SplineFontDB: 3.2
FontName: D-DIN-PRO-Light-Italic
FullName: D-DIN-PRO-Light-Italic
FamilyName: D-DIN-PRO
Weight: Regular
Copyright: Copyright (c) CyberFei. All rights reserved
Version: 1.1.0
ItalicAngle: -13
UnderlinePosition: -150
UnderlineWidth: 50
Ascent: 831
Descent: 169
InvalidEm: 0
sfntRevision: 0x00010000
LayerCount: 2
Layer: 0 0 "Back" 1
Layer: 1 0 "Fore" 0
XUID: [1021 868 -1451673819 30478]
StyleMap: 0x0040
FSType: 4
OS2Version: 3
OS2_WeightWidthSlopeOnly: 0
OS2_UseTypoMetrics: 0
CreationTime: 1462909513
ModificationTime: 1778060079
PfmFamily: 17
TTFWeight: 300
TTFWidth: 5
LineGap: 86
VLineGap: 0
Panose: 2 11 5 4 3 2 2 3 2 4
OS2TypoAscent: 831
OS2TypoAOffset: 0
OS2TypoDescent: -169
OS2TypoDOffset: 0
OS2TypoLinegap: 86
OS2WinAscent: 902
OS2WinAOffset: 0
OS2WinDescent: 184
OS2WinDOffset: 0
HheadAscent: 831
HheadAOffset: 0
HheadDescent: -169
HheadDOffset: 0
OS2SubXSize: 650
OS2SubYSize: 600
OS2SubXOff: 0
OS2SubYOff: 75
OS2SupXSize: 650
OS2SupYSize: 600
OS2SupXOff: 0
OS2SupYOff: 350
OS2StrikeYSize: 50
OS2StrikeYPos: 304
OS2CapHeight: 690
OS2XHeight: 507
OS2Vendor: 'MONO'
OS2CodePages: 20000001.00000000
OS2UnicodeRanges: 8000006f.4000000a.00000000.00000000
Lookup: 1 0 0 "'rtla' Right to Left Alternates lookup 0" { "'rtla' Right to Left Alternates lookup 0 subtable"  } ['rtla' ('DFLT' <'dflt' > ) ]
Lookup: 1 0 0 "'sups' Superscript lookup 1" { "'sups' Superscript lookup 1 subtable" ("superior") } ['sups' ('DFLT' <'dflt' > ) ]
Lookup: 4 0 0 "'frac' Diagonal Fractions lookup 2" { "'frac' Diagonal Fractions lookup 2 subtable"  } ['frac' ('DFLT' <'dflt' > ) ]
Lookup: 4 0 0 "'dlig' Discretionary Ligatures in Latin lookup 3" { "'dlig' Discretionary Ligatures in Latin lookup 3 subtable"  } ['dlig' ('latn' <'dflt' > ) ]
Lookup: 4 0 1 "'liga' Standard Ligatures in Latin lookup 4" { "'liga' Standard Ligatures in Latin lookup 4 subtable"  } ['liga' ('latn' <'dflt' > ) ]

StartChar: .notdef
Encoding: 65536 -1 0
Width: 601
GlyphClass: 1
Flags: W
LayerCount: 2
Fore
SplineSet
566.143554688 688.9296875 m 1
 176.50390625 688.9296875 l 1
 17.5517578125 0.4296875 l 1
 407.19140625 0.4296875 l 1
 566.143554688 688.9296875 l 1
392.28515625 19.8095703125 m 1
 41.4052734375 19.8095703125 l 1
 191.41015625 669.549804688 l 1
 542.290039062 669.549804688 l 1
 392.28515625 19.8095703125 l 1
EndSplineSet
EndChar

StartChar: exclam
Encoding: 33 33 3
Width: 233
GlyphClass: 2
Flags: MW
VStem: 74.2754 75.4805 91.4023 42.2471
LayerCount: 2
Fore
SplineSet
223.204101562 688.9296875 m 1x40
 153.263671875 688.9296875 l 1
 54.3134765625 200.349609375 l 1
 96.560546875 200.349609375 l 1
 223.204101562 688.9296875 l 1x40
84.8798828125 79.990234375 m 1x80
 9.3994140625 79.990234375 l 1
 -8.96875 0.4296875 l 1
 66.51171875 0.4296875 l 1
 84.8798828125 79.990234375 l 1x80
EndSplineSet
EndChar

StartChar: quotedbl
Encoding: 34 34 4
Width: 303
GlyphClass: 2
Flags: MW
HStem: 469.63 219.3<127.544 128.935 128.935 128.935 127.544 266.264 266.264 267.655 267.655 267.655>
LayerCount: 2
Fore
SplineSet
179.563476562 688.9296875 m 1
 127.543945312 688.9296875 l 1
 76.9150390625 469.629882812 l 1
 128.934570312 469.629882812 l 1
 179.563476562 688.9296875 l 1
318.284179688 688.9296875 m 1
 266.263671875 688.9296875 l 1
 215.634765625 469.629882812 l 1
 267.655273438 469.629882812 l 1
 318.284179688 688.9296875 l 1
EndSplineSet
EndChar

StartChar: numbersign
Encoding: 35 35 5
Width: 510
GlyphClass: 2
Flags: W
LayerCount: 2
Fore
SplineSet
401.264648438 439.030273438 m 1
 496.2109375 439.030273438 l 1
 505.629882812 479.830078125 l 1
 415.815429688 479.830078125 l 1
 491.629882812 688.9296875 l 1
 445.86328125 688.9296875 l 1
 370.048828125 479.830078125 l 1
 213.85546875 479.830078125 l 1
 289.669921875 688.9296875 l 1
 244.922851562 688.9296875 l 1
 169.108398438 479.830078125 l 1
 75.189453125 479.830078125 l 1
 65.7705078125 439.030273438 l 1
 154.556640625 439.030273438 l 1
 92.5947265625 267.669921875 l 1
 1.728515625 267.669921875 l 1
 -7.9267578125 225.849609375 l 1
 76.7841796875 225.849609375 l 1
 -4.837890625 0.4296875 l 1
 40.9296875 0.4296875 l 1
 122.55078125 225.849609375 l 1
 278.744140625 225.849609375 l 1
 197.122070312 0.4296875 l 1
 242.889648438 0.4296875 l 1
 324.510742188 225.849609375 l 1
 422.513671875 225.849609375 l 1
 432.168945312 267.669921875 l 1
 339.302734375 267.669921875 l 1
 401.264648438 439.030273438 l 1
137.342773438 267.669921875 m 1
 199.3046875 439.030273438 l 1
 355.49609375 439.030273438 l 1
 293.53515625 267.669921875 l 1
 137.342773438 267.669921875 l 1
EndSplineSet
EndChar

StartChar: dollar
Encoding: 36 36 6
Width: 455
GlyphClass: 2
Flags: MW
HStem: 318.629 49.1289 327.855 52.9248<186.983 199.203> 608.229 49.9248<242.706 263.239>
VStem: 32.124 55.165 42.6562 56.1006 336.789 54.9287 345.596 56.1006
LayerCount: 2
Fore
SplineSet
365.196289062 202.900390625 m 0x72
 378.731445312 261.52734375 382.590820312 344.676757812 263.641601562 367.7578125 c 0
 256.100585938 369.14453125 248.55859375 370.532226562 241.016601562 371.919921875 c 1
 296.224609375 611.051757812 l 1
 304.958007812 609.220703125 l 2
 355.438476562 598.635742188 376.19140625 559.692382812 368.225585938 497.168945312 c 1
 423.154296875 497.168945312 l 1
 429.013671875 546.340820312 422.4765625 583.453125 404.447265625 609.262695312 c 0
 385.262695312 636.724609375 355.39453125 653.122070312 313.859375 658.385742188 c 2
 307.34375 659.211914062 l 1
 326.213867188 740.948242188 l 1
 282.353515625 740.948242188 l 1
 263.239257812 658.154296875 l 1
 238.389648438 655.30859375 188.018554688 649.5390625 138.43359375 605.305664062 c 0
 105.58203125 576 83.384765625 537.4140625 72.091796875 488.5 c 0xac
 61.0712890625 440.766601562 64.7978515625 405.34765625 81.93359375 381.012695312 c 0
 99.2705078125 356.392578125 129.615234375 339.108398438 173.939453125 329.783203125 c 2
 186.983398438 327.85546875 l 1
 129.1875 77.513671875 l 1
 98.8798828125 83.041015625 38.1328125 94.515625 49.728515625 198.309570312 c 1
 -5.4365234375 198.309570312 l 1
 -15.3095703125 123.748046875 0.3046875 41.5859375 111.178710938 28.943359375 c 2
 117.80078125 28.1875 l 1
 97.4990234375 -59.75 l 1
 141.359375 -59.75 l 1
 161.903320312 29.23828125 l 1
 188.345703125 31.990234375 244.369140625 37.822265625 296.108398438 82.62890625 c 0
 330.305664062 112.2421875 353.43359375 151.953125 365.196289062 202.900390625 c 0x72
129.370117188 493.599609375 m 0
 133.0234375 509.423828125 152.506835938 592.682617188 242.706054688 608.229492188 c 2
 252.086914062 609.846679688 l 1
 199.203125 380.780273438 l 1x68
 167.357421875 389.23046875 108.857421875 404.750976562 129.370117188 493.599609375 c 0
172.8984375 76.861328125 m 1
 228.71484375 318.62890625 l 1
 279.638671875 306.029296875 328.581054688 287.30078125 307.91796875 197.799804688 c 0xa2
 296.564453125 148.622070312 265.416015625 88.8291015625 181.833984375 78.017578125 c 2
 172.8984375 76.861328125 l 1
192.58984375 694.540039062 m 1024
EndSplineSet
EndChar

StartChar: percent
Encoding: 37 37 7
Width: 834
GlyphClass: 2
Flags: MW
HStem: -5.69141 43.8604<569.776 606.339 569.776 613.283> 272.77 43.8604<121.003 157.566 121.003 164.509> 372.728 44.8818<656.468 696.995> 651.189 44.8809<207.695 248.222>
VStem: 40.6162 54.0596 218.096 55.0801 553.676 54.0605 731.156 55.0801
LayerCount: 2
Fore
SplineSet
53.33203125 416.080078125 m 2
 24.89453125 292.901367188 79.6806640625 272.76953125 136.015625 272.76953125 c 0
 193.002929688 272.76953125 257.6484375 293.743164062 285.891601562 416.080078125 c 2
 318.624023438 557.860351562 l 2
 344.823242188 671.340820312 296.255859375 696.0703125 233.7421875 696.0703125 c 0
 181.6484375 696.0703125 113.35546875 676.067382812 86.064453125 557.860351562 c 2
 53.33203125 416.080078125 l 2
698.662109375 688.9296875 m 1
 651.794921875 688.9296875 l 1
 120.653320312 0.4296875 l 1
 167.520507812 0.4296875 l 1
 698.662109375 688.9296875 l 1
223.380859375 651.189453125 m 0
 273.063476562 651.189453125 276.405273438 613.565429688 262.130859375 551.739257812 c 2
 231.517578125 419.138671875 l 2
 223.55078125 384.62890625 214.165039062 359.356445312 201.823242188 342.733398438 c 0
 188.672851562 325.021484375 168.990234375 316.629882812 146.141601562 316.629882812 c 0
 95.8642578125 316.629882812 93.4970703125 355.893554688 108.09765625 419.138671875 c 2
 138.7109375 551.739257812 l 2
 152.982421875 613.5546875 173.692382812 651.189453125 223.380859375 651.189453125 c 0
502.104492188 137.619140625 m 2
 473.666015625 14.4404296875 528.453125 -5.69140625 584.7890625 -5.69140625 c 0
 641.776367188 -5.69140625 706.420898438 15.2822265625 734.665039062 137.619140625 c 2
 767.397460938 279.399414062 l 2
 793.595703125 392.879882812 745.029296875 417.609375 682.515625 417.609375 c 0
 630.420898438 417.609375 562.126953125 397.606445312 534.836914062 279.399414062 c 2
 502.104492188 137.619140625 l 2
672.153320312 372.727539062 m 0
 721.8359375 372.727539062 725.177734375 335.104492188 710.904296875 273.278320312 c 2
 680.291015625 140.677734375 l 2
 672.323242188 106.16796875 662.9375 80.89453125 650.595703125 64.2724609375 c 0
 637.444335938 46.560546875 617.763671875 38.1689453125 594.915039062 38.1689453125 c 0
 544.637695312 38.1689453125 542.26953125 77.431640625 556.87109375 140.677734375 c 2
 587.484375 273.278320312 l 2
 601.754882812 335.09375 622.46484375 372.727539062 672.153320312 372.727539062 c 0
EndSplineSet
EndChar

StartChar: ampersand
Encoding: 38 38 8
Width: 598
GlyphClass: 2
Flags: MW
HStem: -9.77051 48.9609<133.28 179.087> 0.429688 51<435.013 443.956 443.956 447.991 447.991 447.991> 653.23 45.8994<304.662 339.938>
VStem: 57.9561 54.0615 106.916 54.0605 332.335 53.041
LayerCount: 2
Fore
SplineSet
447.991210938 0.4296875 m 1x74
 459.765625 51.4296875 l 1
 443.956054688 51.4296875 l 2
 426.0703125 51.4296875 413.115234375 62.9580078125 404.004882812 82.224609375 c 2
 377.954101562 137.75390625 l 1
 485.026367188 247.685546875 l 1
 455.955078125 279.442382812 l 1
 358.091796875 179.669921875 l 1
 266.59765625 374.461914062 l 1
 373.147460938 452.302734375 416.819335938 497.196289062 431.766601562 561.940429688 c 0
 440.939453125 601.673828125 435.5703125 634.018554688 415.8359375 660.095703125 c 0
 396.157226562 686.09765625 366.3671875 699.129882812 325.229492188 699.129882812 c 0
 284.094726562 699.129882812 247.8984375 686.091796875 215.497070312 660.028320312 c 0
 183.122070312 633.987304688 162.327148438 601.01171875 152.8359375 559.900390625 c 0x6c
 147.80078125 538.090820312 148.2109375 516.353515625 154.25390625 494.50390625 c 0
 161.104492188 469.736328125 176.296875 432.77734375 199.711914062 381.20703125 c 1
 84.7958984375 295.806640625 28.6689453125 234.142578125 11.330078125 159.040039062 c 0
 -0.580078125 107.453125 4.4921875 66.8916015625 25.818359375 36.2255859375 c 0
 47.0126953125 5.7490234375 82.8740234375 -9.7705078125 135.045898438 -9.7705078125 c 0xb4
 223.12890625 -9.7705078125 284.818359375 44.88671875 334.63671875 93.212890625 c 1
 358.51953125 43.08984375 l 2
 374.407226562 8.6591796875 388.932617188 0.4296875 420.9609375 0.4296875 c 2
 447.991210938 0.4296875 l 1x74
207.3671875 561.940429688 m 0
 220.462890625 618.665039062 265.768554688 653.23046875 314.631835938 653.23046875 c 0
 365.244140625 653.23046875 391.325195312 616.513671875 378.9609375 562.959960938 c 0
 373.615234375 539.803710938 362.426757812 518.248046875 345.616210938 498.711914062 c 0
 325.884765625 475.78125 293.500976562 449.913085938 247.244140625 415.864257812 c 1
 208.833984375 498.635742188 199.1328125 526.275390625 207.3671875 561.940429688 c 0
150.431640625 39.1904296875 m 0xb4
 116.127929688 39.1904296875 90.6220703125 50.294921875 75.505859375 72.830078125 c 0
 60.4501953125 95.2763671875 57.625 125.399414062 66.09765625 162.099609375 c 0
 82.689453125 233.965820312 149.095703125 289.069335938 219.396484375 340.817382812 c 1
 314.708007812 135.346679688 l 1
 255.731445312 76.470703125 209.651367188 39.1904296875 150.431640625 39.1904296875 c 0xb4
EndSplineSet
EndChar

StartChar: quotesingle
Encoding: 39 39 9
Width: 165
GlyphClass: 2
Flags: MW
HStem: 469.63 219.3<127.544 128.935 128.935 128.935>
VStem: 51.8359 52.0195
LayerCount: 2
Fore
SplineSet
179.563476562 688.9296875 m 1
 127.543945312 688.9296875 l 1
 76.9150390625 469.629882812 l 1
 128.934570312 469.629882812 l 1
 179.563476562 688.9296875 l 1
EndSplineSet
EndChar

StartChar: parenleft
Encoding: 40 40 10
Width: 282
GlyphClass: 2
Flags: MW
VStem: 57.9561 55.0801
LayerCount: 2
Fore
SplineSet
105.264648438 327.33984375 m 0
 124.223632812 409.458007812 171.874023438 564.966796875 298.784179688 739.9296875 c 1
 263.461914062 739.9296875 l 1
 154.755859375 610.188476562 83.7607421875 472.774414062 50.1845703125 327.33984375 c 0
 16.9208984375 183.259765625 24.1318359375 45.837890625 71.9755859375 -85.25 c 1
 108.166992188 -85.25 l 1
 97.5078125 -46.16796875 55.48828125 111.735351562 105.264648438 327.33984375 c 0
EndSplineSet
Substitution2: "'rtla' Right to Left Alternates lookup 0 subtable" parenright
EndChar

StartChar: parenright
Encoding: 41 41 11
Width: 282
GlyphClass: 2
Flags: MW
VStem: 161.996 54.0605
LayerCount: 2
Fore
SplineSet
150.1953125 739.9296875 m 1
 167.112304688 675.823242188 199.40234375 523.0234375 154.224609375 327.33984375 c 0
 133.739257812 238.608398438 82.9150390625 82.34375 -40.2041015625 -85.25 c 1
 -4.013671875 -85.25 l 1
 104.359375 45.837890625 175.021484375 183.259765625 208.28515625 327.33984375 c 0
 242.174804688 474.1328125 234.624023438 611.538085938 185.5390625 739.9296875 c 1
 150.1953125 739.9296875 l 1
EndSplineSet
Substitution2: "'rtla' Right to Left Alternates lookup 0 subtable" parenleft
EndChar

StartChar: asterisk
Encoding: 42 42 12
Width: 373
GlyphClass: 2
Flags: MW
HStem: 423.73 265.199<181.578 273.404 212.179 273.404>
LayerCount: 2
Fore
SplineSet
207.372070312 535.45703125 m 1
 181.578125 423.73046875 l 1
 212.178710938 423.73046875 l 1
 237.955078125 535.379882812 l 1
 319.024414062 481.66015625 l 1
 337.400390625 505.028320312 l 1
 255.290039062 559.965820312 l 1
 362.483398438 613.80859375 l 1
 354.915039062 637.119140625 l 1
 249.041015625 583.399414062 l 1
 273.404296875 688.9296875 l 1
 242.803710938 688.9296875 l 1
 218.422851562 583.323242188 l 1
 138.2421875 637.166992188 l 1
 119.159179688 613.729492188 l 1
 201.37109375 559.965820312 l 1
 94.048828125 505.107421875 l 1
 102.330078125 481.61328125 l 1
 207.372070312 535.45703125 l 1
EndSplineSet
EndChar

StartChar: plus
Encoding: 43 43 13
Width: 511
GlyphClass: 2
Flags: W
LayerCount: 2
Fore
SplineSet
199.21484375 248.290039062 m 1
 160.124023438 78.9697265625 l 1
 212.143554688 78.9697265625 l 1
 251.234375 248.290039062 l 1
 420.5546875 248.290039062 l 1
 432.564453125 300.309570312 l 1
 263.244140625 300.309570312 l 1
 302.334960938 469.629882812 l 1
 250.315429688 469.629882812 l 1
 211.224609375 300.309570312 l 1
 41.904296875 300.309570312 l 1
 29.89453125 248.290039062 l 1
 199.21484375 248.290039062 l 1
EndSplineSet
EndChar

StartChar: comma
Encoding: 44 44 14
Width: 165
GlyphClass: 2
Flags: MW
VStem: 51.8359 52.0195
LayerCount: 2
Fore
SplineSet
38.9794921875 79.990234375 m 1
 -13.0400390625 79.990234375 l 1
 -61.3544921875 -129.279296875 l 1
 1.947265625 -80.412109375 l 1
 38.9794921875 79.990234375 l 1
EndSplineSet
EndChar

StartChar: hyphen
Encoding: 45 45 15
Width: 389
GlyphClass: 2
Flags: MW
HStem: 320.71 52.0205<60.6641 313.854 313.854 313.854>
VStem: 57.9561 265.2
LayerCount: 2
Fore
SplineSet
325.864257812 372.73046875 m 1
 60.6640625 372.73046875 l 1
 48.654296875 320.709960938 l 1
 313.854492188 320.709960938 l 1
 325.864257812 372.73046875 l 1
EndSplineSet
EndChar

StartChar: period
Encoding: 46 46 16
Width: 188
GlyphClass: 2
Flags: MW
HStem: 0.429688 78.54<-13.2764 43.0518 43.0518 43.0518>
VStem: 51.8359 74.46
LayerCount: 2
Fore
SplineSet
61.18359375 78.9697265625 m 1
 -13.2763671875 78.9697265625 l 1
 -31.408203125 0.4296875 l 1
 43.0517578125 0.4296875 l 1
 61.18359375 78.9697265625 l 1
EndSplineSet
EndChar

StartChar: slash
Encoding: 47 47 17
Width: 388
GlyphClass: 2
Flags: W
LayerCount: 2
Fore
SplineSet
395.154296875 688.9296875 m 1
 349.956054688 688.9296875 l 1
 -24.9541015625 -9.7705078125 l 1
 20.244140625 -9.7705078125 l 1
 395.154296875 688.9296875 l 1
EndSplineSet
EndChar

StartChar: zero
Encoding: 48 48 18
Width: 491
GlyphClass: 2
Flags: MW
HStem: -9.77051 52.0205<146.872 188.041 146.872 199.146> 647.11 52.0195<286.516 327.684>
VStem: 65.0957 59.1592 358.854 59.1611
LayerCount: 2
Fore
SplineSet
319.109375 699.129882812 m 0
 231.34375 699.129882812 134.439453125 661.36328125 93.8251953125 485.440429688 c 2
 29.7724609375 208 l 2
 -11.89453125 27.5185546875 68.953125 -9.7705078125 155.446289062 -9.7705078125 c 0
 242.844726562 -9.7705078125 341.114257812 27.9052734375 382.692382812 208 c 2
 446.745117188 485.440429688 l 2
 487.245117188 660.8671875 407.907226562 699.129882812 319.109375 699.129882812 c 0
167.455078125 42.25 m 0
 126.2890625 42.25 98.427734375 56.44140625 86.8349609375 85.619140625 c 0
 75.4365234375 114.306640625 77.806640625 159.811523438 92.228515625 222.280273438 c 2
 148.745117188 467.080078125 l 2
 163.166992188 529.548828125 181.80859375 575.053710938 206.453125 603.741210938 c 0
 231.518554688 632.91796875 265.932617188 647.110351562 307.098632812 647.110351562 c 0
 348.268554688 647.110351562 376.259765625 632.922851562 388.205078125 603.80078125 c 0
 399.9765625 575.100585938 397.768554688 529.557617188 383.344726562 467.080078125 c 2
 326.828125 222.280273438 l 2
 312.404296875 159.801757812 293.583984375 114.258789062 268.560546875 85.5595703125 c 0
 243.16796875 56.4365234375 208.625976562 42.25 167.455078125 42.25 c 0
EndSplineSet
EndChar

StartChar: one
Encoding: 49 49 19
Width: 324
GlyphClass: 2
Flags: W
LayerCount: 2
Fore
SplineSet
231.375976562 626.172851562 m 1
 86.912109375 0.4296875 l 1
 145.051757812 0.4296875 l 1
 304.00390625 688.9296875 l 1
 239.799804688 688.9296875 l 1
 103.953125 600 l 1
 89.037109375 535.393554688 l 1
 231.375976562 626.172851562 l 1
EndSplineSet
Substitution2: "'sups' Superscript lookup 1 subtable" uni00B9
EndChar

StartChar: two
Encoding: 50 50 20
Width: 466
GlyphClass: 2
Flags: MW
HStem: 648.129 51<280.437 326.139>
VStem: 57.9551 58.1396 339.475 60.1816
LayerCount: 2
Fore
SplineSet
439.217773438 532.359375 m 2
 461.05859375 626.96484375 411.348632812 699.12890625 306.8671875 699.12890625 c 0
 254.005859375 699.12890625 209.301757812 683.583984375 171.55859375 652.920898438 c 0
 133.764648438 622.215820312 108.922851562 581.768554688 97.044921875 530.319335938 c 2
 93.630859375 515.529296875 l 1
 151.770507812 515.529296875 l 1
 154.243164062 526.239257812 l 2
 163.15234375 564.828125 179.692382812 595.395507812 204.756835938 616.66796875 c 0
 229.649414062 637.794921875 259.5234375 648.12890625 293.053710938 648.12890625 c 0
 359.224609375 648.12890625 395.836914062 605.133789062 378.565429688 530.3203125 c 2
 375.032226562 515.01953125 l 2
 365.765625 474.87890625 340.219726562 432.329101562 299.360351562 387.319335938 c 2
 -13.716796875 50.552734375 l 1
 -25.2880859375 0.4296875 l 1
 316.412109375 0.4296875 l 1
 328.186523438 51.4296875 l 1
 56.0107421875 51.4296875 l 1
 67.1201171875 63.4365234375 l 1
 67.1201171875 63.4365234375 338.940429688 357.196289062 339.084960938 357.350585938 c 0
 406.236328125 427.111328125 426.157226562 475.788085938 435.213867188 515.018554688 c 2
 439.217773438 532.359375 l 2
EndSplineSet
Substitution2: "'sups' Superscript lookup 1 subtable" uni00B2
EndChar

StartChar: three
Encoding: 51 51 21
Width: 494
GlyphClass: 2
Flags: MW
HStem: -9.77051 50.9971<146.459 179.124> 331.928 52.0205<209.114 226.175 226.175 237.165 209.114 266.442> 648.128 51<289.216 337.611>
VStem: 59.9971 59.1602 68.1572 56.0996 349.677 58.1387 360.896 59.1592
LayerCount: 2
Fore
SplineSet
226.174804688 331.927734375 m 2xec
 306.708984375 331.927734375 341.8671875 278.575195312 323.217773438 197.797851562 c 2
 317.095703125 171.278320312 l 2
 308.139648438 132.486328125 290.111328125 100.625976562 262.665039062 76.8408203125 c 0
 235.087890625 52.9423828125 201.790039062 41.2265625 164.161132812 41.2265625 c 0
 128.756835938 41.2265625 101.872070312 51.0625 84.806640625 71.3310546875 c 0
 67.677734375 91.677734375 63.4482421875 119.700195312 71.3525390625 153.936523438 c 2
 72.6474609375 159.546875 l 1
 13.4873046875 159.546875 l 1
 11.486328125 150.876953125 l 2
 -0.0537109375 100.893554688 6.9365234375 62.3046875 31.88671875 33.6337890625 c 0
 56.8837890625 4.9111328125 96.2900390625 -9.7705078125 151.366210938 -9.7705078125 c 0
 206.881835938 -9.7705078125 254.624023438 7.0830078125 295.778320312 40.5185546875 c 0
 336.885742188 73.9150390625 364.0546875 118.435546875 377.197265625 175.359375 c 2
 382.848632812 199.838867188 l 2xf2
 388.087890625 222.53515625 409.541992188 322.518554688 323.330078125 357.912109375 c 2
 307.657226562 364.346679688 l 1
 326.072265625 372.028320312 l 2
 340.0234375 377.846679688 419.66796875 412.33984375 442.1953125 509.91796875 c 2
 447.375976562 532.358398438 l 2
 459.259765625 583.831054688 453.1640625 623.9140625 429.770507812 653.911132812 c 0
 406.391601562 683.887695312 368.951171875 699.127929688 316.049804688 699.127929688 c 0
 262.3828125 699.127929688 217.809570312 684.325195312 181.217773438 655.380859375 c 0
 144.581054688 626.401367188 120.458984375 587.543945312 108.895507812 537.458007812 c 2
 106.422851562 526.748046875 l 1
 162.522460938 526.748046875 l 1
 164.524414062 535.41796875 l 2
 172.244140625 568.857421875 188.365234375 596.534179688 213.094726562 617.2265625 c 0
 237.9609375 638.032226562 268.1015625 648.127929688 302.235351562 648.127929688 c 0
 372.986328125 648.127929688 404.8046875 599.787109375 388.295898438 528.278320312 c 2
 383.5859375 507.877929688 l 2
 367.264648438 437.184570312 312.682617188 383.948242188 237.165039062 383.948242188 c 2
 209.114257812 383.948242188 l 1
 197.104492188 331.927734375 l 1
 226.174804688 331.927734375 l 2xec
EndSplineSet
Substitution2: "'sups' Superscript lookup 1 subtable" uni00B3
EndChar

StartChar: four
Encoding: 52 52 22
Width: 498
GlyphClass: 2
Flags: W
LayerCount: 2
Fore
SplineSet
284.791992188 0.4296875 m 1
 316.58203125 138.129882812 l 1
 393.08203125 138.129882812 l 1
 405.091796875 190.150390625 l 1
 328.591796875 190.150390625 l 1
 372.86328125 381.91015625 l 1
 313.703125 381.91015625 l 1
 269.431640625 190.150390625 l 1
 60.5146484375 190.150390625 l 1
 386.806640625 688.9296875 l 1
 328.963867188 688.9296875 l 1
 6.6591796875 196.244140625 l 1
 -6.7578125 138.129882812 l 1
 257.421875 138.129882812 l 1
 225.631835938 0.4296875 l 1
 284.791992188 0.4296875 l 1
EndSplineSet
EndChar

StartChar: five
Encoding: 53 53 23
Width: 482
GlyphClass: 2
Flags: MW
HStem: -9.77051 52.0205<124.438 177.789> 390.07 52.0195<256.32 290.648>
VStem: 65.0947 56.1006 76.3145 53.04 349.675 59.1602
LayerCount: 2
Fore
SplineSet
161.334960938 42.25 m 0xd8
 87.5400390625 42.25 57.3466796875 83.6025390625 72.802734375 151.389648438 c 1
 16.7021484375 151.389648438 l 1
 15.4072265625 145.780273438 l 2xe8
 4.1689453125 97.103515625 10.6298828125 59.6806640625 34.125 32.056640625 c 0
 57.6162109375 4.4365234375 95.9033203125 -9.7705078125 150.346679688 -9.7705078125 c 0
 205.23046875 -9.7705078125 250.86328125 6.59765625 288.588867188 38.8173828125 c 0
 326.314453125 71.0380859375 352.383789062 116.484375 366.211914062 176.379882812 c 2
 383.873046875 252.879882812 l 2
 405.373046875 346.005859375 395.823242188 442.08984375 264.865234375 442.08984375 c 0
 247.774414062 442.08984375 196.376953125 438.5 151.401367188 398.725585938 c 2
 134.642578125 383.904296875 l 1
 192.817382812 635.889648438 l 1
 461.078125 635.889648438 l 1
 473.323242188 688.9296875 l 1
 152.022460938 688.9296875 l 1
 66.5419921875 318.669921875 l 1
 118.77734375 318.669921875 l 1
 143.048828125 358.389648438 185.43359375 390.0703125 242.65625 390.0703125 c 0
 338.640625 390.0703125 338.986328125 314.705078125 323.771484375 248.799804688 c 2
 308.46484375 182.5 l 2
 298.645507812 139.969726562 269.432617188 42.25 161.334960938 42.25 c 0xd8
EndSplineSet
EndChar

StartChar: six
Encoding: 54 54 24
Width: 493
GlyphClass: 2
Flags: MW
HStem: -9.77051 51.001<130.166 176.976> 349.27 52.0205<266.23 277.136>
VStem: 57.9551 60.1807 367.017 59.1582
LayerCount: 2
Fore
SplineSet
156.465820312 -9.7705078125 m 0
 197.485351562 -9.7705078125 276.049804688 1.6484375 337.067382812 79.11328125 c 0
 359.5859375 107.701171875 375.625976562 142.051757812 384.96484375 182.5 c 2
 392.970703125 217.1796875 l 2
 406.146484375 274.247070312 400.751953125 318.704101562 377.630859375 351.708984375 c 0
 354.483398438 384.751953125 318.28515625 401.290039062 267.686523438 401.290039062 c 0
 264.774414062 401.290039062 221.771484375 400.955078125 191.177734375 381.396484375 c 2
 161.21484375 362.241210938 l 1
 397.28515625 688.9296875 l 1
 336.80078125 688.9296875 l 1
 99.1435546875 361.69140625 l 2
 45.1806640625 287.854492188 31.3330078125 245.689453125 24.2802734375 215.139648438 c 2
 16.2734375 180.459960938 l 2
 2.6416015625 121.4140625 8.8349609375 75.4951171875 34.0400390625 41.458984375 c 0
 59.244140625 7.4267578125 99.5771484375 -9.7705078125 156.465820312 -9.7705078125 c 0
239.358398438 349.26953125 m 0
 314.913085938 349.26953125 352.403320312 297.704101562 332.87109375 213.098632812 c 2
 324.864257812 178.418945312 l 2
 315.444335938 137.618164062 296.719726562 104.104492188 268.322265625 78.9599609375 c 0
 239.836914062 53.7392578125 205.997070312 41.23046875 168.239257812 41.23046875 c 0
 92.091796875 41.23046875 56.521484375 94.119140625 76.21875 179.440429688 c 2
 84.2255859375 214.120117188 l 2
 93.6435546875 254.913085938 112.296875 288.142578125 140.626953125 312.643554688 c 0
 168.934570312 337.125 202.299804688 349.26953125 239.358398438 349.26953125 c 0
EndSplineSet
EndChar

StartChar: seven
Encoding: 55 55 25
Width: 428
GlyphClass: 2
Flags: W
LayerCount: 2
Fore
SplineSet
457.00390625 688.9296875 m 1
 114.284179688 688.9296875 l 1
 102.274414062 636.91015625 l 1
 392.185546875 636.91015625 l 1
 12.6826171875 0.4296875 l 1
 70.826171875 0.4296875 l 1
 443.538085938 630.6015625 l 1
 457.00390625 688.9296875 l 1
EndSplineSet
EndChar

StartChar: eight
Encoding: 56 56 26
Width: 511
GlyphClass: 2
Flags: MW
HStem: -9.77051 50.999<158.523 196.3 158.523 220.403> 337.029 51.001<226.814 264.909> 648.129 51.001<301.011 334.056>
VStem: 65.0938 59.1611 79.374 59.1602 364.974 59.1621 378.233 59.1631
LayerCount: 2
Fore
SplineSet
22.2353515625 175.361328125 m 2xf0
 -3.6748046875 63.1328125 55.61328125 -9.7705078125 164.626953125 -9.7705078125 c 0
 276.178710938 -9.7705078125 368.96484375 64.591796875 394.7734375 176.380859375 c 2
 400.661132812 201.880859375 l 2xf2
 407.41796875 231.149414062 419.302734375 316.103515625 342.944335938 357.155273438 c 2
 330.383789062 363.908203125 l 1
 360.57421875 377.44140625 387.053710938 389.311523438 417.020507812 424.676757812 c 0
 436.8984375 448.137695312 450.700195312 476.063476562 458.28125 508.900390625 c 2
 462.990234375 529.299804688 l 2
 485.599609375 627.23046875 434.262695312 699.129882812 329.309570312 699.129882812 c 0
 225.426757812 699.129882812 140.358398438 625.153320312 118.229492188 529.30078125 c 2
 113.51953125 508.901367188 l 2xec
 105.932617188 476.037109375 106.678710938 448.08203125 115.40625 424.612304688 c 0
 128.541015625 389.291992188 149.453125 377.471679688 173.59765625 363.823242188 c 1
 141.323242188 350.2265625 109.208007812 336.697265625 74.865234375 295.36328125 c 0
 51.8916015625 267.713867188 36.31640625 236.350585938 28.123046875 200.861328125 c 2
 22.2353515625 175.361328125 l 2xf0
257.484375 388.030273438 m 0
 186.776367188 388.030273438 156.798828125 440.112304688 172.6796875 508.900390625 c 2
 177.625 530.3203125 l 2
 185.370117188 563.87109375 202.260742188 592.3203125 228.209960938 614.58984375 c 0
 254.272460938 636.955078125 284.489257812 648.12890625 317.533203125 648.12890625 c 0
 350.579101562 648.12890625 375.7734375 636.959960938 391.844726562 614.638671875 c 0
 407.87109375 592.377929688 411.817382812 563.904296875 404.064453125 530.3203125 c 2
 399.119140625 508.900390625 l 2xec
 391.077148438 474.06640625 374.056640625 444.78125 347.997070312 422.125 c 0
 321.821289062 399.368164062 291.193359375 388.030273438 257.484375 388.030273438 c 0
177.418945312 41.228515625 m 0
 139.626953125 41.228515625 111.309570312 53.9306640625 93.890625 79.419921875 c 0
 76.552734375 104.788085938 72.6474609375 137.463867188 81.6318359375 176.37890625 c 2
 87.5185546875 201.87890625 l 2
 96.5029296875 240.794921875 115.49609375 273.469726562 144.546875 298.837890625 c 0
 173.735351562 324.327148438 207.91796875 337.029296875 245.709960938 337.029296875 c 0
 284.107421875 337.029296875 312.669921875 324.556640625 329.869140625 299.34375 c 0
 346.979492188 274.262695312 350.624023438 241.41015625 341.497070312 201.87890625 c 2
 335.610351562 176.37890625 l 2xf2
 326.477539062 136.821289062 307.463867188 103.944335938 278.416992188 78.869140625 c 0
 249.298828125 53.7314453125 215.180664062 41.228515625 177.418945312 41.228515625 c 0
EndSplineSet
EndChar

StartChar: nine
Encoding: 57 57 27
Width: 493
GlyphClass: 2
Flags: MW
HStem: 288.07 52.0195<199.462 210.379> 648.13 51<299.62 346.431>
VStem: 57.957 59.1611 365.997 60.1787
LayerCount: 2
Fore
SplineSet
452.314453125 474.219726562 m 2
 460.321289062 508.900390625 l 2
 473.953125 567.946289062 467.760742188 613.865234375 442.555664062 647.901367188 c 0
 417.3515625 681.93359375 377.018554688 699.129882812 320.12890625 699.129882812 c 0
 279.110351562 699.129882812 200.545898438 687.711914062 139.528320312 610.24609375 c 0
 117.010742188 581.659179688 100.969726562 547.307617188 91.630859375 506.860351562 c 2
 83.625 472.1796875 l 2
 70.6123046875 415.81640625 76.0224609375 371.508789062 99.1015625 338.133789062 c 0
 122.180664062 304.7578125 158.33203125 288.0703125 208.91015625 288.0703125 c 0
 211.84765625 288.0703125 254.830078125 288.409179688 285.41796875 307.963867188 c 2
 315.204101562 327.006835938 l 1
 80.29296875 0.4296875 l 1
 140.799804688 0.4296875 l 1
 168.797851562 39.1455078125 377.37890625 327.568359375 377.438476562 327.651367188 c 0
 431.967773438 404.774414062 444.801757812 441.6796875 452.314453125 474.219726562 c 2
308.356445312 648.129882812 m 0
 384.504882812 648.129882812 420.076171875 595.241210938 400.377929688 509.919921875 c 2
 392.37109375 475.240234375 l 2
 382.958984375 434.47265625 364.504882812 401.270507812 336.534179688 376.762695312 c 0
 308.50390625 352.203125 274.93359375 340.08984375 237.239257812 340.08984375 c 0
 161.685546875 340.08984375 124.1953125 391.655273438 143.727539062 476.259765625 c 2
 151.734375 510.940429688 l 2
 161.153320312 551.740234375 179.875976562 585.255859375 208.274414062 610.399414062 c 0
 236.759765625 635.620117188 270.599609375 648.129882812 308.356445312 648.129882812 c 0
EndSplineSet
EndChar

StartChar: colon
Encoding: 58 58 28
Width: 188
GlyphClass: 2
Flags: MW
VStem: 51.8359 74.46
LayerCount: 2
Fore
SplineSet
61.18359375 78.9697265625 m 1
 -13.2763671875 78.9697265625 l 1
 -31.408203125 0.4296875 l 1
 43.0517578125 0.4296875 l 1
 61.18359375 78.9697265625 l 1
140.778320312 423.73046875 m 1
 66.318359375 423.73046875 l 1
 48.185546875 345.190429688 l 1
 122.645507812 345.190429688 l 1
 140.778320312 423.73046875 l 1
EndSplineSet
EndChar

StartChar: semicolon
Encoding: 59 59 29
Width: 188
GlyphClass: 2
Flags: MW
VStem: 51.8359 74.46
LayerCount: 2
Fore
SplineSet
140.778320312 423.73046875 m 1
 66.318359375 423.73046875 l 1
 48.185546875 345.190429688 l 1
 122.645507812 345.190429688 l 1
 140.778320312 423.73046875 l 1
61.419921875 79.990234375 m 1
 9.3994140625 79.990234375 l 1
 -38.9150390625 -129.279296875 l 1
 24.3876953125 -80.412109375 l 1
 61.419921875 79.990234375 l 1
EndSplineSet
EndChar

StartChar: less
Encoding: 60 60 30
Width: 511
GlyphClass: 2
Flags: W
LayerCount: 2
Fore
SplineSet
41.775390625 299.752929688 m 1
 30.255859375 249.854492188 l 1
 383.978515625 89.861328125 l 1
 396.866210938 145.68359375 l 1
 102.360351562 274.299804688 l 1
 456.252929688 402.916015625 l 1
 469.146484375 458.765625 l 1
 41.775390625 299.752929688 l 1
EndSplineSet
Substitution2: "'rtla' Right to Left Alternates lookup 0 subtable" greater
EndChar

StartChar: equal
Encoding: 61 61 31
Width: 511
GlyphClass: 2
Flags: MW
HStem: 150.37 247.86<64.5107 397.948 397.948 397.948>
LayerCount: 2
Fore
SplineSet
455.170898438 398.23046875 m 1
 64.5107421875 398.23046875 l 1
 52.265625 345.190429688 l 1
 442.92578125 345.190429688 l 1
 455.170898438 398.23046875 l 1
409.958007812 202.389648438 m 1
 19.2978515625 202.389648438 l 1
 7.2880859375 150.370117188 l 1
 397.948242188 150.370117188 l 1
 409.958007812 202.389648438 l 1
EndSplineSet
EndChar

StartChar: greater
Encoding: 62 62 32
Width: 511
GlyphClass: 2
Flags: W
LayerCount: 2
Fore
SplineSet
65.5927734375 402.916015625 m 1
 360.09765625 274.299804688 l 1
 6.2060546875 145.68359375 l 1
 -6.681640625 89.861328125 l 1
 420.916015625 249.854492188 l 1
 432.435546875 299.752929688 l 1
 78.486328125 458.765625 l 1
 65.5927734375 402.916015625 l 1
EndSplineSet
Substitution2: "'rtla' Right to Left Alternates lookup 0 subtable" less
EndChar

StartChar: question
Encoding: 63 63 33
Width: 426
GlyphClass: 2
Flags: MW
HStem: 647.11 52.0195<255.872 286.374>
VStem: 36.8164 58.1113 173.216 59.1602 312.957 59.1592
LayerCount: 2
Fore
SplineSet
135.313476562 535.9296875 m 1
 145.405273438 572.016601562 173.907226562 647.110351562 269.360351562 647.110351562 c 0
 303.38671875 647.110351562 328.651367188 637.618164062 343.530273438 617.786132812 c 0
 358.375976562 597.997070312 361.309570312 570.440429688 353.459960938 536.440429688 c 0
 343.744140625 494.354492188 323.5703125 465.28125 277.81640625 418.635742188 c 2
 205.5859375 344.215820312 l 2
 168.524414062 306.118164062 155.37109375 283.70703125 144.015625 234.51953125 c 2
 131.887695312 181.990234375 l 1
 191.047851562 181.990234375 l 1
 202.940429688 233.5 l 2
 211.061523438 268.678710938 222.877929688 288.91796875 254.48828125 322.57421875 c 2
 331.483398438 404.192382812 l 2
 385.934570312 462.032226562 403.400390625 496.506835938 412.619140625 536.440429688 c 0
 424.0234375 585.834960938 418.02734375 624.754882812 395.186523438 654.452148438 c 0
 372.411132812 684.063476562 335.629882812 699.129882812 283.408203125 699.129882812 c 0
 228.3359375 699.129882812 184.01953125 684.127929688 149.192382812 655.053710938 c 0
 115.884765625 627.249023438 91.71484375 587.890625 77.2021484375 535.9296875 c 1
 135.313476562 535.9296875 l 1
175.66015625 79.9892578125 m 1
 100.1796875 79.9892578125 l 1
 81.8115234375 0.4287109375 l 1
 157.291992188 0.4287109375 l 1
 175.66015625 79.9892578125 l 1
EndSplineSet
EndChar

StartChar: at
Encoding: 64 64 34
Width: 877
GlyphClass: 2
Flags: MW
HStem: -130.13 51.001<231.653 369.224> 57.5527 43.8604<350.558 370.874> 450.253 43.8604<420.485 477.865> 638.95 49.9814<473.709 594.976>
VStem: 57.9561 57.1191 272.156 55.0801 533.275 54.0596 754.615 57.1211
LayerCount: 2
Fore
SplineSet
31.58203125 246.762695312 m 2
 -21.4189453125 17.189453125 102.479492188 -130.129882812 321.458007812 -130.129882812 c 0
 416.990234375 -130.129882812 490.81640625 -112.512695312 568.434570312 -74.2900390625 c 1
 560.026367188 -30.076171875 l 1
 474.623046875 -69.025390625 406.2734375 -79.12890625 333.232421875 -79.12890625 c 0
 130.07421875 -79.12890625 45.0703125 57.77734375 88.4658203125 245.741210938 c 2
 105.184570312 318.161132812 l 2
 150.376953125 513.909179688 304.029296875 638.950195312 499.014648438 638.950195312 c 0
 690.9375 638.950195312 790.72265625 517.3984375 744.489257812 317.140625 c 2
 728.711914062 248.80078125 l 2
 716.958007812 197.887695312 701.720703125 160.544921875 681.2578125 136.635742188 c 0
 660.798828125 112.73046875 635.044921875 100.391601562 606.21875 100.391601562 c 0
 578.2421875 100.391601562 530.604492188 115.2734375 549.421875 196.783203125 c 2
 615.711914062 483.913085938 l 1
 564.711914062 483.913085938 l 1
 549.640625 418.6328125 l 1
 540.787109375 441.662109375 l 2
 537.568359375 450.036132812 520.45703125 494.11328125 445.177734375 494.11328125 c 0
 395.79296875 494.11328125 357.25 478.713867188 327.572265625 448.698242188 c 0
 297.45703125 418.240234375 275.22265625 374.282226562 261.794921875 316.123046875 c 2
 242.95703125 234.5234375 l 2
 229.690429688 177.059570312 231.692382812 133.443359375 247.754882812 102.967773438 c 0
 263.541992188 73.0107421875 295.620117188 57.552734375 346.4296875 57.552734375 c 0
 395.318359375 57.552734375 450.356445312 71.8837890625 485.602539062 125.331054688 c 2
 496.270507812 141.508789062 l 1
 499.657226562 125.405273438 l 2
 502.212890625 113.249023438 514.48046875 57.552734375 595.309570312 57.552734375 c 0
 638.8828125 57.552734375 677.155273438 73.19921875 711.599609375 104.857421875 c 0
 745.693359375 136.193359375 770.915039062 184.186523438 786.069335938 249.823242188 c 2
 801.846679688 318.163085938 l 2
 852.823242188 538.966796875 730.796875 688.931640625 510.5546875 688.931640625 c 0
 436.86328125 688.931640625 368.1015625 673.215820312 303.971679688 641.93359375 c 0
 191.392578125 587.017578125 85.41015625 479.916015625 47.5947265625 316.123046875 c 2
 31.58203125 246.762695312 l 2
451.37109375 450.252929688 m 0
 504.359375 450.252929688 547.4453125 422.375976562 523.385742188 318.163085938 c 2
 504.076171875 234.5234375 l 2
 495.577148438 197.7109375 469.03515625 101.413085938 370.834960938 101.413085938 c 0
 330.28125 101.413085938 270.458984375 115.071289062 299.213867188 239.623046875 c 2
 316.639648438 315.102539062 l 2
 325.310546875 352.66015625 352.259765625 450.252929688 451.37109375 450.252929688 c 0
EndSplineSet
EndChar

StartChar: A
Encoding: 65 65 35
Width: 577
GlyphClass: 2
Flags: W
LayerCount: 2
Fore
SplineSet
85.380859375 169.75 m 1
 395.104492188 169.75 l 1
 415.173828125 0.4296875 l 1
 477.357421875 0.4296875 l 1
 385.854492188 688.9296875 l 1
 334.352539062 688.9296875 l 1
 -75.0537109375 0.4296875 l 1
 -12.8701171875 0.4296875 l 1
 85.380859375 169.75 l 1
112.543945312 217.690429688 m 1
 342.678710938 615.784179688 l 1
 390.103515625 217.690429688 l 1
 112.543945312 217.690429688 l 1
EndSplineSet
EndChar

StartChar: B
Encoding: 66 66 36
Width: 615
GlyphClass: 2
Flags: MW
HStem: 0.429688 50.999<67.0635 252.66 252.66 255.253 67.0635 284.992> 326.829 51<142.419 319.854 319.854 325.509 142.419 332.497> 637.929 51.001<202.468 386.577 386.577 402.207>
VStem: 471.054 59.1611 482.273 59.1602
LayerCount: 2
Fore
SplineSet
564.831054688 510.940429688 m 0xf0
 578.123046875 568.512695312 570.600585938 611.793945312 543.1875 642.408203125 c 0
 515.705078125 673.099609375 470.244140625 688.9296875 405.4921875 688.9296875 c 2
 155.08203125 688.9296875 l 1
 -3.8701171875 0.4296875 l 1
 252.66015625 0.4296875 l 2
 317.323242188 0.4296875 371.1171875 17.037109375 414.953125 49.4873046875 c 0
 458.663085938 81.84375 487.3359375 126.678710938 500.9296875 185.55859375 c 0xe8
 513.981445312 242.091796875 512.421875 318.139648438 424.376953125 347.572265625 c 2
 402.8515625 354.767578125 l 1
 427.68359375 362.16796875 l 2
 505.895507812 385.474609375 551.022460938 451.129882812 564.831054688 510.940429688 c 0xf0
386.577148438 637.928710938 m 2
 417.836914062 637.928710938 534.212890625 634.575195312 504.727539062 506.859375 c 0xf0
 494.947265625 464.494140625 474.038085938 431.397460938 441.64453125 409.584960938 c 0
 409.748046875 388.107421875 370.828125 377.829101562 325.508789062 377.829101562 c 2
 142.418945312 377.829101562 l 1
 202.467773438 637.928710938 l 1
 386.577148438 637.928710938 l 2
319.854492188 326.829101562 m 2
 345.138671875 326.829101562 474.33203125 326.604492188 442.947265625 190.66015625 c 0xe8
 432.702148438 146.282226562 411.029296875 111.137695312 377.608398438 86.9609375 c 0
 344.403320312 62.9404296875 303.348632812 51.4287109375 255.252929688 51.4287109375 c 2
 67.0634765625 51.4287109375 l 1
 130.64453125 326.829101562 l 1
 319.854492188 326.829101562 l 2
EndSplineSet
EndChar

StartChar: C
Encoding: 67 67 37
Width: 611
GlyphClass: 2
Flags: MW
HStem: -7.73047 53.0391<183.439 255.881> 646.088 52.0205<346.128 397.279>
VStem: 65.0947 59.1611 478.166 57.1279
LayerCount: 2
Fore
SplineSet
568.282226562 495.127929688 m 1
 594.772460938 619.037109375 522.001953125 698.108398438 383.131835938 698.108398438 c 0
 309.124023438 698.108398438 246.259765625 677.0625 193.434570312 635.475585938 c 0
 141.166015625 594.327148438 103.770507812 528.525390625 82.5205078125 436.478515625 c 2
 40.3681640625 253.899414062 l 2
 19.1181640625 161.852539062 26.130859375 96.05078125 59.400390625 54.90234375 c 0
 93.0224609375 13.3154296875 146.169921875 -7.73046875 220.177734375 -7.73046875 c 0
 291.584960938 -7.73046875 351.678710938 11.2099609375 401.4140625 48.43359375 c 0
 450.166992188 84.921875 482.073242188 133.73828125 497.262695312 196.26953125 c 1
 440.134765625 196.26953125 l 1
 417.69921875 105.623046875 341.93359375 45.30859375 233.442382812 45.30859375 c 0
 133.435546875 45.30859375 62.3984375 93.0654296875 98.587890625 249.819335938 c 2
 140.974609375 433.418945312 l 2
 157.9765625 507.059570312 185.357421875 561.545898438 224.84375 595.69140625 c 0
 264.040039062 629.586914062 313.263671875 646.087890625 371.123046875 646.087890625 c 0
 423.434570312 646.087890625 462.63671875 632.422851562 487.461914062 604.35546875 c 0
 511.513671875 577.162109375 518.559570312 540.301757812 509.112304688 495.127929688 c 1
 568.282226562 495.127929688 l 1
EndSplineSet
EndChar

StartChar: D
Encoding: 68 68 38
Width: 622
GlyphClass: 2
Flags: MW
HStem: 0.429688 52.0195<68.3213 229.202 229.202 242.231 68.3213 265.859> 636.909 52.0205<155.084 377.164>
VStem: 488.396 60.1807
LayerCount: 2
Fore
SplineSet
-3.8681640625 0.4296875 m 1
 229.202148438 0.4296875 l 2
 302.516601562 0.4296875 364.48828125 21.4619140625 416.271484375 63.0009765625 c 0
 467.548828125 104.133789062 504.475585938 169.98046875 525.733398438 262.05859375 c 2
 563.881835938 427.298828125 l 2
 585.140625 519.376953125 578.6171875 585.224609375 546.333007812 626.358398438 c 0
 513.729492188 667.897460938 461.46875 688.928710938 388.154296875 688.928710938 c 0
 310.463867188 688.928710938 232.7734375 688.9296875 155.083984375 688.9296875 c 1
 -3.8681640625 0.4296875 l 1
464.611328125 257.978515625 m 2
 438.565429688 145.1640625 376.360351562 52.44921875 242.231445312 52.44921875 c 2
 68.3212890625 52.44921875 l 1
 203.25390625 636.909179688 l 1
 377.1640625 636.909179688 l 2
 432.444335938 636.909179688 472.295898438 619.936523438 494.923828125 585.366210938 c 0
 517.681640625 550.596679688 519.686523438 496.538085938 502.995117188 424.239257812 c 2
 464.611328125 257.978515625 l 2
EndSplineSet
EndChar

StartChar: E
Encoding: 69 69 39
Width: 547
GlyphClass: 2
Flags: W
LayerCount: 2
Fore
SplineSet
202.234375 636.91015625 m 1
 555.154296875 636.91015625 l 1
 567.1640625 688.9296875 l 1
 155.083984375 688.9296875 l 1
 -3.8681640625 0.4296875 l 1
 408.211914062 0.4296875 l 1
 420.221679688 52.4501953125 l 1
 67.3017578125 52.4501953125 l 1
 130.17578125 324.790039062 l 1
 432.095703125 324.790039062 l 1
 444.10546875 376.809570312 l 1
 142.185546875 376.809570312 l 1
 202.234375 636.91015625 l 1
EndSplineSet
EndChar

StartChar: F
Encoding: 70 70 40
Width: 538
GlyphClass: 2
Flags: W
LayerCount: 2
Fore
SplineSet
202.234375 636.91015625 m 1
 555.154296875 636.91015625 l 1
 567.1640625 688.9296875 l 1
 155.083984375 688.9296875 l 1
 -3.8681640625 0.4296875 l 1
 55.2919921875 0.4296875 l 1
 129.705078125 322.75 l 1
 431.625 322.75 l 1
 443.634765625 374.76953125 l 1
 141.71484375 374.76953125 l 1
 202.234375 636.91015625 l 1
EndSplineSet
EndChar

StartChar: G
Encoding: 71 71 41
Width: 611
GlyphClass: 2
Flags: MW
HStem: -7.73047 53.0391<182.704 254.468> 646.09 52.0205<344.438 395.921>
VStem: 65.0947 59.1602 478.196 59.1592
LayerCount: 2
Fore
SplineSet
566.4921875 496.150390625 m 1
 591.936523438 613.306640625 526.55859375 698.110351562 381.092773438 698.110351562 c 0
 307.782226562 698.110351562 245.440429688 677.078125 192.951171875 635.498046875 c 0
 141.012695312 594.354492188 103.7734375 528.538085938 82.5205078125 436.481445312 c 2
 40.369140625 253.901367188 l 2
 19.115234375 161.84375 25.96484375 96.025390625 58.90625 54.8818359375 c 0
 92.197265625 13.3017578125 144.827148438 -7.73046875 218.137695312 -7.73046875 c 0
 290.797851562 -7.73046875 352.172851562 12.8154296875 403.37890625 53.3544921875 c 0
 454.0234375 93.4482421875 490.583984375 158.412109375 511.6875 249.8203125 c 2
 534.176757812 347.23046875 l 1
 306.716796875 347.23046875 l 1
 295.413085938 298.26953125 l 1
 463.713867188 298.26953125 l 1
 449.466796875 236.559570312 l 2
 434.48046875 171.645507812 408.982421875 122.846679688 371.501953125 91.5078125 c 0
 334.27734375 60.3837890625 287.494140625 45.30859375 232.420898438 45.30859375 c 0
 132.987304688 45.30859375 62.3955078125 93.056640625 98.5869140625 249.819335938 c 2
 140.973632812 433.418945312 l 2
 157.8203125 506.389648438 184.993164062 560.662109375 224.143554688 595.12109375 c 0
 263.090820312 629.401367188 312.228515625 646.08984375 370.103515625 646.08984375 c 0
 421.73828125 646.08984375 460.615234375 632.591796875 485.509765625 604.899414062 c 0
 509.8203125 577.858398438 516.93359375 541.142578125 507.326171875 496.150390625 c 1
 566.4921875 496.150390625 l 1
EndSplineSet
EndChar

StartChar: H
Encoding: 72 72 42
Width: 630
GlyphClass: 2
Flags: W
LayerCount: 2
Fore
SplineSet
459.211914062 0.4296875 m 1
 618.1640625 688.9296875 l 1
 559.00390625 688.9296875 l 1
 487.416992188 378.849609375 l 1
 142.657226562 378.849609375 l 1
 214.244140625 688.9296875 l 1
 155.083984375 688.9296875 l 1
 -3.8681640625 0.4296875 l 1
 55.2919921875 0.4296875 l 1
 130.647460938 326.830078125 l 1
 475.407226562 326.830078125 l 1
 400.051757812 0.4296875 l 1
 459.211914062 0.4296875 l 1
EndSplineSet
EndChar

StartChar: I
Encoding: 73 73 43
Width: 244
GlyphClass: 2
Flags: MW
VStem: 87.5361 59.1602
LayerCount: 2
Fore
SplineSet
222.404296875 688.9296875 m 1
 163.244140625 688.9296875 l 1
 4.2919921875 0.4296875 l 1
 63.4521484375 0.4296875 l 1
 222.404296875 688.9296875 l 1
EndSplineSet
EndChar

StartChar: J
Encoding: 74 74 44
Width: 308
GlyphClass: 2
Flags: MW
HStem: 0.429688 52.0205<-40.8184 8.88184 8.88184 9.6709 -40.8184 29.4321>
VStem: 152.815 59.1602
LayerCount: 2
Fore
SplineSet
8.8818359375 0.4296875 m 2
 49.982421875 0.4296875 131.29296875 11.525390625 158.28515625 128.440429688 c 2
 287.68359375 688.9296875 l 1
 228.5234375 688.9296875 l 1
 101.244140625 137.620117188 l 2
 88.671875 83.1630859375 63.4375 52.4501953125 9.6708984375 52.4501953125 c 2
 -40.818359375 52.4501953125 l 1
 -52.828125 0.4296875 l 1
 8.8818359375 0.4296875 l 2
EndSplineSet
EndChar

StartChar: K
Encoding: 75 75 45
Width: 599
GlyphClass: 2
Flags: W
LayerCount: 2
Fore
SplineSet
116.279296875 264.594726562 m 1
 214.244140625 688.9296875 l 1
 155.083984375 688.9296875 l 1
 -3.8681640625 0.4296875 l 1
 55.2919921875 0.4296875 l 1
 98.8935546875 189.288085938 l 1
 294.865234375 377.50390625 l 1
 426.389648438 0.4296875 l 1
 495.26953125 0.4296875 l 1
 342.940429688 422.8828125 l 1
 619.96875 688.9296875 l 1
 550.967773438 688.9296875 l 1
 116.279296875 264.594726562 l 1
EndSplineSet
EndChar

StartChar: L
Encoding: 76 76 46
Width: 528
GlyphClass: 2
Flags: W
LayerCount: 2
Fore
SplineSet
214.244140625 688.9296875 m 1
 155.083984375 688.9296875 l 1
 -3.8681640625 0.4296875 l 1
 406.171875 0.4296875 l 1
 418.181640625 52.4501953125 l 1
 67.3017578125 52.4501953125 l 1
 214.244140625 688.9296875 l 1
EndSplineSet
EndChar

StartChar: M
Encoding: 77 77 47
Width: 756
GlyphClass: 2
Flags: W
LayerCount: 2
Fore
SplineSet
585.69140625 0.4296875 m 1
 744.643554688 688.9296875 l 1
 682.650390625 688.9296875 l 1
 338.578125 204.619140625 l 1
 217.086914062 688.9296875 l 1
 155.083984375 688.9296875 l 1
 -3.8681640625 0.4296875 l 1
 55.2919921875 0.4296875 l 1
 188.340820312 576.727539062 l 1
 300.140625 141.190429688 l 1
 347.686523438 141.190429688 l 1
 659.615234375 576.880859375 l 1
 526.53125 0.4296875 l 1
 585.69140625 0.4296875 l 1
EndSplineSet
EndChar

StartChar: N
Encoding: 78 78 48
Width: 665
GlyphClass: 2
Flags: W
LayerCount: 2
Fore
SplineSet
493.891601562 0.4296875 m 1
 652.84375 688.9296875 l 1
 593.68359375 688.9296875 l 1
 458.990234375 105.506835938 l 1
 217.723632812 688.9296875 l 1
 155.083984375 688.9296875 l 1
 -3.8681640625 0.4296875 l 1
 55.2919921875 0.4296875 l 1
 190.474609375 585.97265625 l 1
 431.260742188 0.4296875 l 1
 493.891601562 0.4296875 l 1
EndSplineSet
EndChar

StartChar: O
Encoding: 79 79 49
Width: 611
GlyphClass: 2
Flags: MW
HStem: -7.73047 53.041<200.784 252.405> 646.092 52.0176<343.417 416.382 343.417 416.54>
VStem: 65.0967 59.1602 478.197 59.1582
LayerCount: 2
Fore
SplineSet
216.09765625 -7.73046875 m 0
 288.712890625 -7.73046875 350.528320312 13.287109375 402.68359375 54.861328125 c 0
 454.290039062 95.9990234375 491.373046875 161.831054688 512.62890625 253.899414062 c 2
 554.78125 436.478515625 l 2
 576.0390625 528.557617188 569.516601562 594.404296875 537.232421875 635.538085938 c 0
 504.6171875 677.091796875 452.690429688 698.109375 380.073242188 698.109375 c 0
 306.759765625 698.109375 244.604492188 677.077148438 192.467773438 635.517578125 c 0
 140.861328125 594.379882812 103.778320312 528.547851562 82.5224609375 436.48046875 c 2
 40.3701171875 253.900390625 l 2
 19.1123046875 161.821289062 25.6337890625 95.9736328125 57.9189453125 54.8408203125 c 0
 90.5224609375 13.3017578125 142.783203125 -7.73046875 216.09765625 -7.73046875 c 0
368.065429688 646.091796875 m 0
 465.014648438 646.091796875 532.48828125 596.161132812 494.916992188 433.421875 c 2
 452.529296875 249.821289062 l 2
 426.62109375 137.599609375 364.295898438 45.310546875 229.364257812 45.310546875 c 0
 172.204101562 45.310546875 131.189453125 61.4541015625 108.155273438 94.6923828125 c 0
 85.0048828125 128.096679688 82.5166015625 180.204101562 98.5888671875 249.821289062 c 2
 140.9765625 433.420898438 l 2
 157.817382812 506.368164062 184.619140625 560.58984375 223.05078125 595.055664062 c 0
 261.352539062 629.405273438 310.198242188 646.091796875 368.065429688 646.091796875 c 0
EndSplineSet
EndChar

StartChar: P
Encoding: 80 80 50
Width: 577
GlyphClass: 2
Flags: MW
HStem: 291.13 52.0205<134.415 308.555 308.555 314.444 134.415 341.884> 636.91 52.0195<202.234 382.264 382.264 400.394 155.084 418.603>
VStem: 479.216 59.1602
LayerCount: 2
Fore
SplineSet
400.393554688 688.9296875 m 2
 155.083984375 688.9296875 l 1
 -3.8681640625 0.4296875 l 1
 55.2919921875 0.4296875 l 1
 122.405273438 291.129882812 l 1
 308.5546875 291.129882812 l 2
 375.212890625 291.129882812 431.081054688 308.71875 477.115234375 343.209960938 c 0
 523.037109375 377.6171875 553.119140625 424.862304688 567.340820312 486.459960938 c 0
 582.538085938 552.2890625 574.819335938 601.743164062 545.259765625 636.38671875 c 0
 515.58203125 671.168945312 467.737304688 688.9296875 400.393554688 688.9296875 c 2
382.263671875 636.91015625 m 2
 454.94140625 636.91015625 536.96875 611.157226562 508.180664062 486.459960938 c 0
 497.327148438 439.44921875 475.055664062 402.873046875 440.790039062 378.618164062 c 0
 406.875 354.610351562 364.51953125 343.150390625 314.444335938 343.150390625 c 2
 134.415039062 343.150390625 l 1
 202.234375 636.91015625 l 1
 382.263671875 636.91015625 l 2
EndSplineSet
EndChar

StartChar: Q
Encoding: 81 81 51
Width: 611
GlyphClass: 2
Flags: MW
HStem: -20.6494 20G<287.042 287.042> -7.72852 53.04<200.784 230.703> 646.093 52.0176<343.417 416.383 343.417 416.531>
VStem: 65.0967 59.1602 478.197 59.1582
LayerCount: 2
Fore
SplineSet
512.62890625 253.900390625 m 2xb8
 554.78125 436.48046875 l 2
 576.0390625 528.55859375 569.516601562 594.405273438 537.232421875 635.5390625 c 0
 504.6171875 677.092773438 452.69140625 698.110351562 380.07421875 698.110351562 c 0
 306.760742188 698.110351562 244.604492188 677.078125 192.467773438 635.518554688 c 0
 140.861328125 594.380859375 103.778320312 528.548828125 82.5224609375 436.481445312 c 2
 40.37109375 253.901367188 l 2
 19.11328125 161.823242188 25.6357421875 95.9755859375 57.919921875 54.8427734375 c 0
 90.5234375 13.3037109375 142.784179688 -7.728515625 216.098632812 -7.728515625 c 0x78
 245.306640625 -7.728515625 265.143554688 -4.8359375 287.041992188 -0.6494140625 c 1
 333.993164062 -150.770507812 l 1
 384.619140625 -125.610351562 l 1
 340.793945312 16.34765625 l 1
 380.67578125 35.078125 472.297851562 79.205078125 512.62890625 253.900390625 c 2xb8
368.065429688 646.092773438 m 0
 464.997070312 646.092773438 532.4921875 596.178710938 494.916992188 433.421875 c 2
 452.529296875 249.822265625 l 2
 426.62109375 137.600585938 364.295898438 45.3115234375 229.364257812 45.3115234375 c 0
 172.204101562 45.3115234375 131.190429688 61.455078125 108.155273438 94.693359375 c 0
 85.005859375 128.09765625 82.5166015625 180.205078125 98.5888671875 249.822265625 c 2
 140.9765625 433.421875 l 2
 157.817382812 506.369140625 184.619140625 560.590820312 223.05078125 595.056640625 c 0
 261.352539062 629.40625 310.198242188 646.092773438 368.065429688 646.092773438 c 0
EndSplineSet
EndChar

StartChar: R
Encoding: 82 82 52
Width: 600
GlyphClass: 2
Flags: MW
HStem: 636.91 52.0195<202.234 390.424 390.424 408.554 155.084 409.177>
VStem: 478.195 59.1602
LayerCount: 2
Fore
SplineSet
308.279296875 309.490234375 m 1
 396.047851562 0.4296875 l 1
 464.395507812 0.4296875 l 1
 371.845703125 314.22265625 l 1
 401.876953125 320.743164062 454.51953125 332.172851562 503.459960938 379.079101562 c 0
 535.877929688 410.150390625 557.841796875 449.73828125 569.145507812 498.700195312 c 0
 583.393554688 560.413085938 575.84765625 606.788085938 547.526367188 639.411132812 c 0
 519.091796875 672.165039062 473.205078125 688.9296875 408.553710938 688.9296875 c 2
 155.083984375 688.9296875 l 1
 -3.8681640625 0.4296875 l 1
 55.2919921875 0.4296875 l 1
 126.643554688 309.490234375 l 1
 308.279296875 309.490234375 l 1
390.423828125 636.91015625 m 2
 427.9296875 636.91015625 540.508789062 630.91015625 509.75 497.678710938 c 0
 499.6640625 453.993164062 478.411132812 419.099609375 445.692382812 394.596679688 c 0
 413.092773438 370.184570312 372.93359375 358.44921875 326.134765625 358.44921875 c 2
 137.947265625 358.44921875 l 1
 202.234375 636.91015625 l 1
 390.423828125 636.91015625 l 2
EndSplineSet
EndChar

StartChar: S
Encoding: 83 83 53
Width: 546
GlyphClass: 2
Flags: MW
HStem: -5.69043 49.9824<148.179 211.567> 649.15 48.9609<308.98 358.903>
VStem: 32.2588 58.1484 45.7139 57.1221 422.339 57.8945 434.333 58.1416
LayerCount: 2
Fore
SplineSet
-8.59765625 184.032226562 m 1xe4
 -15.935546875 120.858398438 -14.154296875 -5.6904296875 174.748046875 -5.6904296875 c 0
 248.38671875 -5.6904296875 309.274414062 11.5390625 358.100585938 45.115234375 c 0
 406.701171875 78.537109375 438.09375 125.451171875 452.44140625 187.599609375 c 0xe4
 464.987304688 241.942382812 459.296875 282.826171875 436.467773438 311.671875 c 0
 413.387695312 340.836914062 374.360351562 360.771484375 318.500976562 370.801757812 c 2
 240.1796875 385.084960938 l 2
 146.544921875 402.40625 123.15625 449.018554688 138.158203125 514 c 0
 155.831054688 590.546875 221.033203125 649.150390625 330.008789062 649.150390625 c 0
 387.796875 649.150390625 471.120117188 633.127929688 458.485351562 517.5703125 c 1
 516.379882812 517.5703125 l 1
 521.96484375 577.833984375 509.62109375 622.002929688 480.235351562 651.369140625 c 0
 449.211914062 682.37109375 403.569335938 698.111328125 342.333007812 698.111328125 c 0
 275.627929688 698.111328125 218.919921875 681.16015625 171.415039062 647.870117188 c 0
 124.188476562 614.7734375 93.7353515625 569.005859375 79.859375 508.901367188 c 0xd8
 67.791015625 456.625976562 73.474609375 417.291015625 95.84765625 389.451171875 c 0
 118.481445312 361.28515625 156.344726562 342.200195312 210.30859375 332.846679688 c 2
 286.807617188 319.586914062 l 2
 330.065429688 311.969726562 361.310546875 298.060546875 379.762695312 276.911132812 c 0
 398.5625 255.3671875 402.62890625 223.676757812 393.358398438 183.521484375 c 0
 384.301757812 144.291015625 350.608398438 44.2919921875 191.384765625 44.2919921875 c 0
 104.97265625 44.2919921875 38.7470703125 77.3984375 49.55078125 184.032226562 c 1
 -8.59765625 184.032226562 l 1xe4
EndSplineSet
EndChar

StartChar: T
Encoding: 84 84 54
Width: 480
GlyphClass: 2
Flags: W
LayerCount: 2
Fore
SplineSet
181.771484375 0.4296875 m 1
 328.713867188 636.91015625 l 1
 529.654296875 636.91015625 l 1
 541.6640625 688.9296875 l 1
 81.6435546875 688.9296875 l 1
 69.6337890625 636.91015625 l 1
 270.57421875 636.91015625 l 1
 123.631835938 0.4296875 l 1
 181.771484375 0.4296875 l 1
EndSplineSet
EndChar

StartChar: U
Encoding: 85 85 55
Width: 636
GlyphClass: 2
Flags: MW
HStem: -5.69043 51<215.293 267.588 215.293 297.031>
VStem: 79.376 60.1797 489.416 59.1602
LayerCount: 2
Fore
SplineSet
47.349609375 222.280273438 m 2
 17.021484375 90.9150390625 89.75 -5.6904296875 229.829101562 -5.6904296875 c 0
 364.232421875 -5.6904296875 484.630859375 84.0244140625 516.549804688 222.280273438 c 2
 624.284179688 688.9296875 l 1
 565.124023438 688.9296875 l 1
 458.802734375 228.400390625 l 2
 446.0625 173.216796875 419.869140625 128.361328125 379.967773438 95.0712890625 c 0
 340.116210938 61.8232421875 293.573242188 45.3095703125 241.603515625 45.3095703125 c 0
 188.982421875 45.3095703125 149.86328125 61.8017578125 125.681640625 95.1025390625 c 0
 101.504882812 128.397460938 96.20703125 173.236328125 108.942382812 228.400390625 c 2
 215.263671875 688.9296875 l 1
 155.083984375 688.9296875 l 1
 47.349609375 222.280273438 l 2
EndSplineSet
EndChar

StartChar: V
Encoding: 86 86 56
Width: 522
GlyphClass: 2
Flags: W
LayerCount: 2
Fore
SplineSet
144.870117188 688.9296875 m 1
 83.501953125 688.9296875 l 1
 148.0625 0.4296875 l 1
 198.1484375 0.4296875 l 1
 581.611328125 688.9296875 l 1
 520.266601562 688.9296875 l 1
 194.233398438 87.455078125 l 1
 144.870117188 688.9296875 l 1
EndSplineSet
EndChar

StartChar: W
Encoding: 87 87 57
Width: 800
GlyphClass: 2
Flags: MW
VStem: 82.835 56.5537<688.93 688.93> 100.498 47.3418 459.26 55.4893<635.062 688.93> 474.845 54.3867<0.429688 0.429688>
LayerCount: 2
Fore
SplineSet
529.231445312 0.4296875 m 1x10
 860.807617188 688.9296875 l 1
 807.309570312 688.9296875 l 1
 523.200195312 80.4033203125 l 1
 514.749023438 688.9296875 l 1
 431.950195312 688.9296875 l 1
 147.83984375 80.4033203125 l 1x60
 139.388671875 688.9296875 l 1
 82.8349609375 688.9296875 l 1x80
 100.498046875 0.4296875 l 1
 154.879882812 0.4296875 l 1
 459.259765625 635.0625 l 1x60
 474.844726562 0.4296875 l 1
 529.231445312 0.4296875 l 1x10
EndSplineSet
EndChar

StartChar: X
Encoding: 88 88 58
Width: 566
GlyphClass: 2
Flags: W
LayerCount: 2
Fore
SplineSet
242.534179688 358.951171875 m 1
 -71.9267578125 0.4296875 l 1
 -3.5078125 0.4296875 l 1
 265.9140625 314.158203125 l 1
 391.51953125 0.4296875 l 1
 463.041015625 0.4296875 l 1
 313.78515625 362.018554688 l 1
 599.556640625 688.9296875 l 1
 531.118164062 688.9296875 l 1
 289.106445312 405.703125 l 1
 177.869140625 688.9296875 l 1
 106.373046875 688.9296875 l 1
 242.534179688 358.951171875 l 1
EndSplineSet
EndChar

StartChar: Y
Encoding: 89 89 59
Width: 498
GlyphClass: 2
Flags: W
LayerCount: 2
Fore
SplineSet
257.668945312 289.411132812 m 1
 555.142578125 688.9296875 l 1
 491.841796875 688.9296875 l 1
 239.625 341.684570312 l 1
 148.79296875 688.9296875 l 1
 85.51953125 688.9296875 l 1
 198.745117188 290.435546875 l 1
 131.791992188 0.4296875 l 1
 190.952148438 0.4296875 l 1
 257.668945312 289.411132812 l 1
EndSplineSet
EndChar

StartChar: Z
Encoding: 90 90 60
Width: 515
GlyphClass: 2
Flags: W
LayerCount: 2
Fore
SplineSet
388.83203125 0.4296875 m 1
 400.841796875 52.4501953125 l 1
 30.439453125 52.4501953125 l 1
 531.4609375 631.481445312 l 1
 544.723632812 688.9296875 l 1
 127.543945312 688.9296875 l 1
 115.534179688 636.91015625 l 1
 469.616210938 636.91015625 l 1
 -31.4052734375 57.87890625 l 1
 -44.66796875 0.4296875 l 1
 388.83203125 0.4296875 l 1
EndSplineSet
EndChar

StartChar: bracketleft
Encoding: 91 91 61
Width: 290
GlyphClass: 2
Flags: MW
VStem: 79.376 143.82
LayerCount: 2
Fore
SplineSet
310.678710938 739.9296875 m 1
 166.858398438 739.9296875 l 1
 -23.6494140625 -85.25 l 1
 120.170898438 -85.25 l 1
 132.180664062 -33.23046875 l 1
 44.4599609375 -33.23046875 l 1
 210.948242188 687.91015625 l 1
 298.668945312 687.91015625 l 1
 310.678710938 739.9296875 l 1
EndSplineSet
Substitution2: "'rtla' Right to Left Alternates lookup 0 subtable" bracketright
EndChar

StartChar: backslash
Encoding: 92 92 62
Width: 388
GlyphClass: 2
Flags: W
LayerCount: 2
Fore
SplineSet
181.551757812 688.9296875 m 1
 136.353515625 688.9296875 l 1
 188.6484375 -9.7705078125 l 1
 233.846679688 -9.7705078125 l 1
 181.551757812 688.9296875 l 1
EndSplineSet
EndChar

StartChar: bracketright
Encoding: 93 93 63
Width: 290
GlyphClass: 2
Flags: MW
VStem: 57.9561 143.819
LayerCount: 2
Fore
SplineSet
133.428710938 687.91015625 m 1
 221.1484375 687.91015625 l 1
 54.66015625 -33.23046875 l 1
 -33.0595703125 -33.23046875 l 1
 -45.0693359375 -85.25 l 1
 98.75 -85.25 l 1
 289.2578125 739.9296875 l 1
 145.438476562 739.9296875 l 1
 133.428710938 687.91015625 l 1
EndSplineSet
Substitution2: "'rtla' Right to Left Alternates lookup 0 subtable" bracketleft
EndChar

StartChar: asciicircum
Encoding: 94 94 64
Width: 511
GlyphClass: 2
Flags: W
LayerCount: 2
Fore
SplineSet
352.501953125 688.9296875 m 1
 302.42578125 688.9296875 l 1
 40.6630859375 291.129882812 l 1
 85.1728515625 291.129882812 l 1
 318.205078125 651.143554688 l 1
 386.063476562 291.129882812 l 1
 430.586914062 291.129882812 l 1
 352.501953125 688.9296875 l 1
EndSplineSet
EndChar

StartChar: underscore
Encoding: 95 95 65
Width: 455
GlyphClass: 2
Flags: MW
HStem: -105.65 35.7002<-101.718 340.881 340.881 340.881>
LayerCount: 2
Fore
SplineSet
349.123046875 -69.9501953125 m 1
 -101.717773438 -69.9501953125 l 1
 -109.959960938 -105.650390625 l 1
 340.880859375 -105.650390625 l 1
 349.123046875 -69.9501953125 l 1
EndSplineSet
EndChar

StartChar: grave
Encoding: 96 96 66
Width: 499
GlyphClass: 2
Flags: MW
HStem: 583.87 112.2<236.389 363.383 236.389 363.383>
LayerCount: 2
Fore
SplineSet
300.423828125 696.0703125 m 1
 236.388671875 696.0703125 l 1
 318.197265625 583.870117188 l 1
 363.3828125 583.870117188 l 1
 300.423828125 696.0703125 l 1
EndSplineSet
EndChar

StartChar: a
Encoding: 97 97 67
Width: 496
GlyphClass: 2
Flags: MW
HStem: -5.69141 40.8018<127.429 159.774> 243.19 35.6982<194.469 331.658 331.658 331.658> 466.57 42.8398<240.043 271.697>
VStem: 45.7168 54.0596 61.0342 52.0908 358.856 54.0605
LayerCount: 2
Fore
SplineSet
409.1484375 344.6796875 m 2xf4
 426.891601562 421.530273438 414.880859375 509.41015625 267.1484375 509.41015625 c 0
 212.569335938 509.41015625 167.653320312 496.447265625 131.671875 471.390625 c 0
 96.4169921875 446.83984375 74.0400390625 414.767578125 63.9775390625 373.75 c 1
 116.068359375 373.75 l 1xec
 123.55859375 401.5 139.844726562 424.3671875 164.46875 440.936523438 c 0
 190.329101562 458.336914062 221.805664062 466.5703125 258.280273438 466.5703125 c 0
 285.11328125 466.5703125 382.403320312 462.9921875 355.32421875 345.69921875 c 2
 339.899414062 278.888671875 l 1
 192.509765625 278.888671875 l 2
 84.78515625 278.888671875 14.537109375 225.948242188 -5.619140625 138.638671875 c 0
 -16.7255859375 90.5341796875 -10.5341796875 55.30859375 11.8046875 31.2099609375 c 0
 34.298828125 6.9453125 71.53515625 -5.69140625 124.768554688 -5.69140625 c 0
 194.780273438 -5.69140625 239.606445312 16.1962890625 274.8359375 52.4111328125 c 2
 292.926757812 71.0087890625 l 1
 276.6328125 0.4296875 l 1
 329.672851562 0.4296875 l 1
 409.1484375 344.6796875 l 2xf4
314.349609375 168.219726562 m 2
 288.422851562 55.91796875 212.638671875 35.1103515625 145.409179688 35.1103515625 c 0
 109.448242188 35.1103515625 25.890625 40.96484375 48.67578125 139.66015625 c 0xf4
 60.861328125 192.439453125 97.7294921875 243.190429688 194.46875 243.190429688 c 2
 331.658203125 243.190429688 l 1
 314.349609375 168.219726562 l 2
EndSplineSet
EndChar

StartChar: b
Encoding: 98 98 68
Width: 509
GlyphClass: 2
Flags: MW
HStem: -5.69043 46.9219<169.714 215.669> 461.47 47.9404<283.67 318.424>
VStem: 74.2764 54.0605 388.438 54.0586
LayerCount: 2
Fore
SplineSet
191.068359375 -5.6904296875 m 0
 240.26953125 -5.6904296875 283.596679688 10.6552734375 322.325195312 43.4384765625 c 0
 360.470703125 75.7275390625 388.493164062 127.08984375 405.053710938 198.8203125 c 2
 429.543945312 304.900390625 l 2
 446.098632812 376.60546875 441.466796875 427.92578125 417.583007812 460.224609375 c 0
 393.353515625 492.993164062 356.212890625 509.41015625 304.888671875 509.41015625 c 0
 262.452148438 509.41015625 207.163085938 494.6484375 159.49609375 433.80859375 c 2
 139.150390625 407.840820312 l 1
 204.045898438 688.930664062 l 1
 149.985351562 688.930664062 l 1
 -8.9677734375 0.4306640625 l 1
 45.0927734375 0.4306640625 l 1
 49.7626953125 20.66015625 54.4326171875 40.890625 59.1025390625 61.1201171875 c 2
 65.71484375 89.7578125 l 1
 74.2666015625 64.9267578125 l 2
 90.501953125 17.796875 128.577148438 -5.6904296875 191.068359375 -5.6904296875 c 0
351.9375 202.901367188 m 2
 340.499023438 153.357421875 307.419921875 41.2314453125 191.702148438 41.2314453125 c 0
 147.725585938 41.2314453125 116.475585938 56.6064453125 99.9345703125 87.58984375 c 0
 83.6484375 118.095703125 81.2685546875 157.125976562 92.072265625 203.920898438 c 2
 113.030273438 294.701171875 l 2
 123.993164062 342.1875 163.581054688 461.469726562 284.643554688 461.469726562 c 0
 352.204101562 461.469726562 403.423828125 425.915039062 374.543945312 300.8203125 c 2
 351.9375 202.901367188 l 2
EndSplineSet
EndChar

StartChar: c
Encoding: 99 99 69
Width: 502
GlyphClass: 2
Flags: MW
HStem: -5.69043 46.9209<157.703 195.819> 461.469 47.9404<255.739 314.42 255.62 315.414>
VStem: 57.9561 54.0605 383.317 52.0117
LayerCount: 2
Fore
SplineSet
277.5 461.46875 m 0
 353.328125 461.46875 396.196289062 421.678710938 380.13671875 347.228515625 c 1
 432.162109375 347.228515625 l 1
 443.024414062 396.629882812 435.571289062 435.26171875 410.23828125 464.482421875 c 0
 384.477539062 494.197265625 343.33203125 509.409179688 285.508789062 509.409179688 c 0
 225.731445312 509.409179688 175.260742188 492.908203125 133.060546875 460.469726562 c 0
 91.44921875 428.482421875 61.6923828125 377.186523438 45.00390625 304.899414062 c 2
 20.513671875 198.819335938 l 2
 3.662109375 125.828125 9.720703125 74.3876953125 36.59765625 42.765625 c 0
 63.876953125 10.671875 107.114257812 -5.6904296875 167.609375 -5.6904296875 c 0
 224.028320312 -5.6904296875 271.702148438 9.486328125 311.586914062 39.26171875 c 0
 350.469726562 68.2890625 375.828125 106.578125 387.87890625 155.469726562 c 1
 335.8671875 155.469726562 l 1
 327.223632812 120.3359375 309.05859375 91.8984375 281.286132812 71.681640625 c 0
 253.017578125 51.103515625 218.791015625 41.23046875 179.461914062 41.23046875 c 0
 135.943359375 41.23046875 103.659179688 53.072265625 84.0927734375 77.5625 c 0
 64.052734375 102.643554688 62.1376953125 144.950195312 75.5166015625 202.900390625 c 2
 98.123046875 300.8203125 l 2
 111.352539062 358.125 132.939453125 400.125 164.895507812 425.17578125 c 0
 196.083007812 449.624023438 233.977539062 461.46875 277.5 461.46875 c 0
EndSplineSet
EndChar

StartChar: d
Encoding: 100 100 70
Width: 510
GlyphClass: 2
Flags: MW
HStem: -5.69043 46.9209<128.602 166.474> 461.47 47.9404<235.055 283.868>
VStem: 57.957 55.0801 372.116 55.0801
LayerCount: 2
Fore
SplineSet
140.068359375 -5.6904296875 m 0
 192.879882812 -5.6904296875 247.434570312 11.46875 289.396484375 64.8271484375 c 2
 309.69921875 90.6435546875 l 1
 288.872070312 0.4296875 l 1
 343.952148438 0.4296875 l 1
 502.904296875 688.9296875 l 1
 447.82421875 688.9296875 l 1
 383.051757812 408.3671875 l 1
 374.59375 433.75 l 2
 357.677734375 484.513671875 320.15234375 509.41015625 260.009765625 509.41015625 c 0
 210.099609375 509.41015625 166.434570312 493.04296875 127.732421875 460.28125 c 0
 89.5869140625 427.9921875 61.5654296875 376.630859375 45.0048828125 304.900390625 c 2
 20.5146484375 198.8203125 l 2
 3.9541015625 127.088867188 8.259765625 75.7275390625 31.4951171875 43.4384765625 c 0
 55.0869140625 10.6552734375 90.8681640625 -5.6904296875 140.068359375 -5.6904296875 c 0
99.1435546875 300.8203125 m 2
 110.758789062 351.130859375 144.149414062 461.469726562 262.202148438 461.469726562 c 0
 305.533203125 461.469726562 336 446.04296875 351.491210938 414.971679688 c 0
 366.743164062 384.379882812 368.208007812 344.069335938 356.810546875 294.700195312 c 2
 335.852539062 203.919921875 l 2
 324.90234375 156.4921875 304.666992188 117.297851562 274.677734375 87.08984375 c 0
 244.185546875 56.375 205.6875 41.23046875 161.1015625 41.23046875 c 0
 96.1015625 41.23046875 47.50390625 77.1474609375 76.537109375 202.900390625 c 2
 99.1435546875 300.8203125 l 2
EndSplineSet
EndChar

StartChar: e
Encoding: 101 101 71
Width: 502
GlyphClass: 2
Flags: MW
HStem: -5.69043 46.9209<158.694 193.512> 461.47 47.9404<252.635 290.781>
VStem: 57.9561 54.0596 381.296 54.0596
LayerCount: 2
Fore
SplineSet
76.45703125 206.98046875 m 2
 85.2880859375 245.23046875 l 1
 408.627929688 245.23046875 l 1
 420.990234375 298.780273438 l 2
 437.841796875 371.76953125 432.392578125 424.391601562 406.46484375 458.1015625 c 0
 380.24609375 492.19140625 339.016601562 509.41015625 281.428710938 509.41015625 c 0
 223.841796875 509.41015625 174.474609375 492.190429688 132.159179688 458.076171875 c 0
 90.33984375 424.360351562 60.439453125 371.755859375 43.5908203125 298.780273438 c 2
 22.8681640625 209.01953125 l 2
 5.5390625 133.958007812 10.9150390625 80.1474609375 37.080078125 46.1279296875 c 0
 63.5439453125 11.720703125 105.572265625 -5.6904296875 164.547851562 -5.6904296875 c 0
 222.4765625 -5.6904296875 270.16796875 8.5908203125 308.458007812 36.296875 c 0
 346.099609375 63.533203125 370.209960938 99.05859375 381.217773438 144.25 c 1
 329.140625 144.25 l 1
 320.998046875 113.3046875 303.961914062 87.9453125 278.172851562 69.576171875 c 0
 251.21875 50.376953125 218.392578125 41.23046875 180.479492188 41.23046875 c 0
 136.908203125 41.23046875 104.5234375 53.458984375 84.8046875 78.623046875 c 0
 64.6181640625 104.383789062 62.765625 147.67578125 76.45703125 206.98046875 c 2
270.361328125 461.469726562 m 0
 311.201171875 461.469726562 341.716796875 450.103515625 360.470703125 426.671875 c 0
 379.70703125 402.638671875 381.650390625 362.538085938 369.05078125 307.959960938 c 2
 363.045898438 281.950195312 l 1
 93.765625 281.950195312 l 1
 98.1220703125 300.8203125 l 2
 111.344726562 358.094726562 132.543945312 400.029296875 163.776367188 425.098632812 c 0
 194.166015625 449.4921875 230.080078125 461.469726562 270.361328125 461.469726562 c 0
EndSplineSet
EndChar

StartChar: f
Encoding: 102 102 72
Width: 322
GlyphClass: 2
Flags: MW
HStem: 649.15 39.7793<308.59 343.78 343.78 343.78>
VStem: 114.056 55.0801
LayerCount: 2
Fore
SplineSet
217.645507812 571.120117188 m 2
 222.154296875 590.6484375 238.09375 649.150390625 308.58984375 649.150390625 c 2
 343.780273438 649.150390625 l 1
 352.963867188 688.9296875 l 1
 306.553710938 688.9296875 l 2
 269.33203125 688.9296875 238.693359375 677.985351562 213.333984375 656.616210938 c 0
 187.893554688 635.180664062 170.633789062 606.068359375 161.859375 568.059570312 c 2
 146.669921875 502.26953125 l 1
 81.3896484375 502.26953125 l 1
 72.2060546875 462.490234375 l 1
 137.486328125 462.490234375 l 1
 30.8115234375 0.4296875 l 1
 85.8916015625 0.4296875 l 1
 192.56640625 462.490234375 l 1
 300.686523438 462.490234375 l 1
 309.870117188 502.26953125 l 1
 201.75 502.26953125 l 1
 217.645507812 571.120117188 l 2
EndSplineSet
EndChar

StartChar: g
Encoding: 103 103 73
Width: 510
GlyphClass: 2
Flags: MW
HStem: -160.73 44.8799<116.141 152.13> 32.0488 47.9404<137.549 164.136> 465.549 46.9199<235.749 284.808>
VStem: 57.9561 55.0801 372.116 55.0801
LayerCount: 2
Fore
SplineSet
295.112304688 27.458984375 m 2
 283.767578125 -21.6806640625 251.330078125 -115.850585938 132.99609375 -115.850585938 c 0
 99.2861328125 -115.850585938 72.9501953125 -108.659179688 54.73046875 -93.5771484375 c 0
 38.263671875 -79.9482421875 29.76953125 -61.9814453125 29.845703125 -40.37109375 c 1
 -24.6611328125 -40.37109375 l 1
 -28.091796875 -75.9521484375 -18.1513671875 -103.999023438 5.3193359375 -125.559570312 c 0
 30.55859375 -148.744140625 69.357421875 -160.73046875 122.634765625 -160.73046875 c 0
 181.625 -160.73046875 230.370117188 -143.322265625 270.233398438 -109.100585938 c 0
 310.208007812 -74.783203125 337.4765625 -27.6181640625 351.60546875 33.5791015625 c 2
 460.751953125 506.348632812 l 1
 405.671875 506.348632812 l 1
 383.934570312 412.190429688 l 1
 375.526367188 437.857421875 l 2
 359.147460938 487.852539062 321.612304688 512.46875 260.71484375 512.46875 c 0
 210.783203125 512.46875 167.140625 496.250976562 128.522460938 463.823242188 c 0
 90.490234375 431.88671875 62.5078125 380.715820312 45.9453125 308.978515625 c 2
 29.4619140625 237.579101562 l 2
 12.7412109375 165.15234375 16.984375 113.450195312 40.2080078125 81.1767578125 c 0
 63.7998046875 48.3935546875 99.5810546875 32.048828125 148.78125 32.048828125 c 0
 179.491210938 32.048828125 246.219726562 37.3037109375 298.344726562 103.5859375 c 2
 318.647460938 129.40234375 l 1
 295.112304688 27.458984375 l 2
99.8486328125 303.87890625 m 2
 111.512695312 354.40234375 145.029296875 465.548828125 263.142578125 465.548828125 c 0
 306.473632812 465.548828125 336.940429688 450.122070312 352.431640625 419.05078125 c 0
 367.68359375 388.458984375 369.149414062 348.1484375 357.750976562 298.779296875 c 2
 344.799804688 242.678710938 l 2
 333.849609375 195.250976562 313.614257812 156.056640625 283.625 125.848632812 c 0
 253.1328125 95.1337890625 214.634765625 79.9892578125 170.048828125 79.9892578125 c 0
 105.048828125 79.9892578125 56.4521484375 115.907226562 85.484375 241.659179688 c 2
 99.8486328125 303.87890625 l 2
EndSplineSet
EndChar

StartChar: h
Encoding: 104 104 74
Width: 521
GlyphClass: 2
Flags: MW
HStem: 461.469 46.9189<279.165 300.092>
VStem: 74.2754 54.0605 384.355 54.0605
LayerCount: 2
Fore
SplineSet
280.560546875 461.46875 m 0
 319.623046875 461.46875 404.336914062 447.551757812 375.40625 322.239257812 c 2
 301.110351562 0.4287109375 l 1
 355.170898438 0.4287109375 l 1
 431.822265625 332.439453125 l 2
 445.026367188 389.6328125 440.223632812 432.684570312 418.6328125 462.840820312 c 0
 397.026367188 493.018554688 360.921875 508.387695312 308.732421875 508.387695312 c 0
 249.59765625 508.387695312 201.10546875 486.46875 161.1171875 442.399414062 c 2
 142.352539062 421.717773438 l 1
 204.04296875 688.927734375 l 1
 186.0234375 688.927734375 168.00390625 688.9296875 149.983398438 688.9296875 c 1
 -8.96875 0.4296875 l 1
 45.091796875 0.4296875 l 1
 119.387695312 322.240234375 l 2
 129.420898438 365.701171875 148.880859375 400.383789062 178.415039062 424.974609375 c 0
 207.749023438 449.397460938 242.215820312 461.46875 280.560546875 461.46875 c 0
EndSplineSet
EndChar

StartChar: i
Encoding: 105 105 75
Width: 228
GlyphClass: 2
Flags: W
LayerCount: 2
Fore
SplineSet
169.110351562 502.26953125 m 1
 115.049804688 502.26953125 l 1
 -0.80859375 0.4296875 l 1
 53.251953125 0.4296875 l 1
 169.110351562 502.26953125 l 1
211.889648438 678.73046875 m 1
 153.749023438 678.73046875 l 1
 136.087890625 602.23046875 l 1
 194.228515625 602.23046875 l 1
 211.889648438 678.73046875 l 1
EndSplineSet
EndChar

StartChar: j
Encoding: 106 106 76
Width: 220
GlyphClass: 2
Flags: MW
HStem: -154.61 47.9404<-140.795 -110.552 -110.552 -106.625 -140.795 -90.0015>
VStem: 74.2754 54.0605
LayerCount: 2
Fore
SplineSet
205.063476562 688.9296875 m 1
 146.923828125 688.9296875 l 1
 129.262695312 612.4296875 l 1
 187.40234375 612.4296875 l 1
 205.063476562 688.9296875 l 1
-110.551757812 -154.610351562 m 2
 -69.451171875 -154.610351562 11.859375 -143.514648438 38.8515625 -26.599609375 c 2
 160.950195312 502.26953125 l 1
 106.889648438 502.26953125 l 1
 -14.267578125 -22.5205078125 l 2
 -26.416015625 -75.1416015625 -52.3642578125 -106.669921875 -106.625 -106.669921875 c 2
 -140.794921875 -106.669921875 l 1
 -151.862304688 -154.610351562 l 1
 -110.551757812 -154.610351562 l 2
EndSplineSet
EndChar

StartChar: k
Encoding: 107 107 77
Width: 493
GlyphClass: 2
Flags: W
LayerCount: 2
Fore
SplineSet
94.189453125 213.09765625 m 1
 204.043945312 688.9296875 l 1
 149.983398438 688.9296875 l 1
 -8.96875 0.4296875 l 1
 45.091796875 0.4296875 l 1
 79.53125 149.60546875 l 1
 213.999023438 274.21875 l 1
 311.107421875 0.4296875 l 1
 377.759765625 0.4296875 l 1
 258.715820312 314.81640625 l 1
 461.131835938 502.26953125 l 1
 397.642578125 502.26953125 l 1
 94.189453125 213.09765625 l 1
EndSplineSet
EndChar

StartChar: l
Encoding: 108 108 78
Width: 267
GlyphClass: 2
Flags: MW
HStem: 0.429688 47.9404<110.882 129.089 129.089 152.191 152.191 152.191>
VStem: 74.2754 54.0605
LayerCount: 2
Fore
SplineSet
20.5849609375 128.440429688 m 2
 8.7802734375 77.310546875 6.015625 0.4296875 110.881835938 0.4296875 c 2
 152.19140625 0.4296875 l 1
 163.258789062 48.3701171875 l 1
 129.088867188 48.3701171875 l 2
 74.8203125 48.3701171875 63.44140625 79.91015625 75.5869140625 132.51953125 c 2
 204.043945312 688.9296875 l 1
 149.983398438 688.9296875 l 1
 20.5849609375 128.440429688 l 2
EndSplineSet
EndChar

StartChar: m
Encoding: 109 109 79
Width: 829
GlyphClass: 2
Flags: MW
HStem: 461.469 46.9189<299.635 301.021>
VStem: 74.2754 54.0605 383.336 55.0801 693.416 54.0596
LayerCount: 2
Fore
SplineSet
590.640625 461.467773438 m 0
 631.560546875 461.467773438 713.159179688 446.518554688 684.466796875 322.23828125 c 2
 610.170898438 0.427734375 l 1
 664.23046875 0.427734375 l 1
 740.880859375 332.4375 l 2
 753.918945312 388.909179688 748.943359375 431.794921875 727.065429688 462.329101562 c 0
 705.216796875 492.823242188 668.313476562 508.387695312 614.733398438 508.387695312 c 0
 546.311523438 508.387695312 490.578125 480.979492188 445.108398438 425.467773438 c 2
 435.041992188 413.178710938 l 1
 428.319335938 439.346679688 421.53515625 465.750976562 390.676757812 487.017578125 c 0
 370.161132812 501.157226562 343.004882812 508.387695312 308.732421875 508.387695312 c 0
 290.537109375 508.387695312 218.10546875 507.029296875 160.135742188 442.442382812 c 2
 141.260742188 421.413085938 l 1
 159.927734375 502.268554688 l 1
 142.249023438 502.268554688 124.569335938 502.26953125 106.889648438 502.26953125 c 1
 -8.96875 0.4296875 l 1
 45.091796875 0.4296875 l 1
 119.387695312 322.240234375 l 2
 129.420898438 365.701171875 148.880859375 400.383789062 178.415039062 424.974609375 c 0
 207.749023438 449.397460938 242.215820312 461.46875 280.560546875 461.46875 c 0
 321.48046875 461.46875 403.079101562 446.51953125 374.38671875 322.239257812 c 2
 300.090820312 0.4287109375 l 1
 355.170898438 0.4287109375 l 1
 430.173828125 325.298828125 l 2
 439.747070312 366.764648438 458.651367188 400.36328125 487.37109375 424.885742188 c 0
 516.1484375 449.45703125 551.01953125 461.467773438 590.640625 461.467773438 c 0
EndSplineSet
EndChar

StartChar: n
Encoding: 110 110 80
Width: 521
GlyphClass: 2
Flags: MW
HStem: 461.469 46.9199<289.232 300.092>
VStem: 74.2754 54.0605 384.355 54.0605
LayerCount: 2
Fore
SplineSet
431.822265625 332.439453125 m 2
 438.641601562 361.977539062 471.350585938 508.388671875 308.733398438 508.388671875 c 0
 269.731445312 508.388671875 208.860351562 497.939453125 160.215820312 442.53125 c 2
 141.115234375 420.775390625 l 1
 159.9296875 502.26953125 l 1
 106.889648438 502.26953125 l 1
 -8.96875 0.4296875 l 1
 45.091796875 0.4296875 l 1
 119.387695312 322.240234375 l 2
 129.420898438 365.701171875 148.880859375 400.383789062 178.415039062 424.974609375 c 0
 207.749023438 449.397460938 242.215820312 461.46875 280.560546875 461.46875 c 0
 319.623046875 461.46875 404.336914062 447.551757812 375.40625 322.239257812 c 2
 301.110351562 0.4287109375 l 1
 355.170898438 0.4287109375 l 1
 431.822265625 332.439453125 l 2
EndSplineSet
EndChar

StartChar: o
Encoding: 111 111 81
Width: 504
GlyphClass: 2
Flags: MW
HStem: -5.69043 46.9209<154.595 193.386> 461.469 47.9414<253.929 292.539>
VStem: 57.9561 54.0596 383.336 54.0586
LayerCount: 2
Fore
SplineSet
164.547851562 -5.6904296875 m 0
 222.223632812 -5.6904296875 271.298828125 10.7587890625 312.850585938 43.19921875 c 0
 353.8046875 75.1728515625 383.256835938 126.504882812 399.952148438 198.8203125 c 2
 424.442382812 304.900390625 l 2
 441.137695312 377.21484375 435.38671875 428.546875 409.196289062 460.520507812 c 0
 382.624023438 492.9609375 341.143554688 509.41015625 283.467773438 509.41015625 c 0
 224.389648438 509.41015625 174.447265625 492.92578125 132.583007812 460.495117188 c 0
 91.30078125 428.515625 61.6962890625 377.201171875 45.00390625 304.900390625 c 2
 20.513671875 198.8203125 l 2
 3.6591796875 125.815429688 9.5576171875 74.35546875 36.109375 42.7412109375 c 0
 63.0693359375 10.638671875 105.453125 -5.6904296875 164.547851562 -5.6904296875 c 0
175.380859375 41.23046875 m 0
 133.80859375 41.23046875 102.720703125 53.15234375 83.55078125 77.6015625 c 0
 63.876953125 102.692382812 62.1396484375 144.96484375 75.515625 202.900390625 c 2
 98.1220703125 300.8203125 l 2
 111.344726562 358.094726562 132.54296875 400.028320312 163.776367188 425.09765625 c 0
 194.235351562 449.546875 230.828125 461.46875 272.400390625 461.46875 c 0
 312.677734375 461.46875 342.920898438 449.490234375 361.712890625 425.057617188 c 0
 381.001953125 399.978515625 382.661132812 358.080078125 369.442382812 300.819335938 c 2
 346.834960938 202.899414062 l 2
 333.462890625 144.978515625 312.399414062 102.741210938 281.504882812 77.6416015625 c 0
 251.431640625 53.208984375 215.658203125 41.23046875 175.380859375 41.23046875 c 0
EndSplineSet
EndChar

StartChar: p
Encoding: 112 112 82
Width: 509
GlyphClass: 2
Flags: MW
VStem: 74.2754 368.221
LayerCount: 2
Fore
SplineSet
160.950195312 502.26953125 m 1
 106.889648438 502.26953125 l 1
 -44.7626953125 -154.610351562 l 1
 9.2978515625 -154.610351562 l 1
 65.7138671875 89.7568359375 l 1
 74.2666015625 64.9267578125 l 2
 90.501953125 17.796875 128.577148438 -5.6904296875 191.068359375 -5.6904296875 c 0
 240.290039062 -5.6904296875 283.596679688 10.5048828125 322.241210938 42.9560546875 c 0
 360.252929688 74.8759765625 388.331054688 126.387695312 405.053710938 198.8203125 c 2
 429.543945312 304.900390625 l 2
 446.099609375 376.610351562 441.418945312 427.739257812 417.486328125 459.685546875 c 0
 393.185546875 492.123046875 355.998046875 508.388671875 304.653320312 508.388671875 c 0
 265.2421875 508.388671875 206.575195312 495.983398438 159.599609375 433.944335938 c 2
 138.848632812 406.537109375 l 1
 160.950195312 502.26953125 l 1
374.306640625 299.797851562 m 2
 351.935546875 202.899414062 l 2
 340.498046875 153.35546875 307.41796875 41.228515625 191.700195312 41.228515625 c 0
 147.723632812 41.228515625 116.474609375 56.6044921875 99.93359375 87.587890625 c 0
 83.6474609375 118.09375 81.267578125 157.124023438 92.0703125 203.918945312 c 2
 113.029296875 294.69921875 l 2
 123.9921875 342.185546875 163.579101562 461.467773438 284.641601562 461.467773438 c 0
 352.259765625 461.467773438 403.359375 425.639648438 374.306640625 299.797851562 c 2
EndSplineSet
EndChar

StartChar: q
Encoding: 113 113 83
Width: 510
GlyphClass: 2
Flags: MW
HStem: -5.69043 46.9209<128.601 171.314> 461.47 46.9199<238.181 283.867>
VStem: 57.9561 55.0801 372.116 55.0801
LayerCount: 2
Fore
SplineSet
309.494140625 89.7568359375 m 1
 253.078125 -154.610351562 l 1
 308.158203125 -154.610351562 l 1
 459.810546875 502.26953125 l 1
 404.73046875 502.26953125 l 1
 382.62890625 406.538085938 l 1
 374.532226562 433.9453125 l 2
 370.21484375 448.559570312 351.989257812 508.389648438 263.853515625 508.389648438 c 0
 212.508789062 508.389648438 167.810546875 492.124023438 128.532226562 459.686523438 c 0
 89.849609375 427.741210938 61.5595703125 376.611328125 45.00390625 304.900390625 c 2
 20.513671875 198.8203125 l 2
 3.791015625 126.387695312 8.0830078125 74.8759765625 31.357421875 42.9560546875 c 0
 55.01953125 10.5048828125 90.8466796875 -5.6904296875 140.068359375 -5.6904296875 c 0
 202.560546875 -5.6904296875 251.478515625 17.796875 289.475585938 64.9267578125 c 2
 309.494140625 89.7568359375 l 1
98.90625 299.799804688 m 2
 110.571289062 350.323242188 144.087890625 461.469726562 262.201171875 461.469726562 c 0
 305.532226562 461.469726562 335.999023438 446.04296875 351.490234375 414.971679688 c 0
 366.7421875 384.379882812 368.20703125 344.069335938 356.809570312 294.700195312 c 2
 335.8515625 203.919921875 l 2
 324.901367188 156.4921875 304.666015625 117.297851562 274.676757812 87.08984375 c 0
 244.184570312 56.375 205.686523438 41.23046875 161.100585938 41.23046875 c 0
 96.1005859375 41.23046875 47.5029296875 77.1474609375 76.5361328125 202.900390625 c 2
 98.90625 299.799804688 l 2
EndSplineSet
EndChar

StartChar: r
Encoding: 114 114 84
Width: 332
GlyphClass: 2
Flags: MW
HStem: 460.45 48.96<284.612 286.272>
VStem: 74.2754 54.0605
LayerCount: 2
Fore
SplineSet
159.930664062 502.270507812 m 1
 106.889648438 502.270507812 l 1
 -8.96875 0.4296875 l 1
 45.091796875 0.4296875 l 1
 118.916015625 320.200195312 l 2
 128.35546875 361.086914062 147.774414062 395.109375 177.35546875 421.203125 c 0
 206.961914062 447.319335938 241.067382812 460.450195312 278.287109375 460.450195312 c 0
 294.2578125 460.450195312 308.9765625 458.60546875 322.391601562 454.883789062 c 1
 334.51953125 507.41796875 l 1
 325.03125 508.745117188 315.157226562 509.41015625 304.889648438 509.41015625 c 0
 264.334960938 509.41015625 206.161132812 496.829101562 159.182617188 436.869140625 c 2
 138.836914062 410.900390625 l 1
 159.930664062 502.270507812 l 1
EndSplineSet
EndChar

StartChar: s
Encoding: 115 115 85
Width: 460
GlyphClass: 2
Flags: MW
HStem: -5.69043 43.8584<133.999 169.08> 467.589 41.8203<234.134 271.276>
VStem: 45.749 52.0781 53.875 52.0195 359.875 52.0195
LayerCount: 2
Fore
SplineSet
308.067382812 136.59765625 m 0xd8
 293.678710938 74.2724609375 236.291992188 38.16796875 153.252929688 38.16796875 c 0
 114.744140625 38.16796875 85.19921875 46.7421875 65.5283203125 64.6953125 c 0
 46.7373046875 81.8447265625 39.9931640625 105.4296875 45.4306640625 134.047851562 c 1
 -6.6474609375 134.047851562 l 1xe8
 -15.623046875 91.533203125 -7.3125 58.484375 18.2158203125 33.4365234375 c 0
 44.5595703125 7.5849609375 84.841796875 -5.6904296875 140.067382812 -5.6904296875 c 0
 198.092773438 -5.6904296875 246.603515625 7.4755859375 286.168945312 33.044921875 c 0
 325.395507812 58.3955078125 350.176757812 93.669921875 361.029296875 140.6796875 c 0
 370.102539062 179.978515625 365.247070312 208.619140625 347.62109375 228.286132812 c 0
 329.686523438 248.299804688 296.977539062 263.516601562 248.875 272.900390625 c 2
 248.875 272.900390625 184.469726562 285.123046875 184.4140625 285.133789062 c 0
 132.052734375 294.620117188 95.46484375 315.826171875 108.484375 372.21875 c 0
 115.227539062 401.424804688 131.870117188 425.412109375 157.756835938 442.515625 c 0
 183.56640625 459.568359375 215.29296875 467.588867188 252.392578125 467.588867188 c 0
 290.16015625 467.588867188 318.953125 459.571289062 337.880859375 442.626953125 c 0
 355.913085938 426.482421875 362.428710938 404.06640625 357.306640625 376.80859375 c 1
 409.416992188 376.80859375 l 1
 418.068359375 416.008789062 409.530273438 447.184570312 383.326171875 471.724609375 c 0
 356.7734375 496.590820312 315.982421875 509.409179688 260.0078125 509.409179688 c 0
 208.259765625 509.409179688 163.952148438 496.364257812 126.352539062 470.810546875 c 0
 88.943359375 445.38671875 65.65234375 412.015625 55.7587890625 369.159179688 c 0
 46.8310546875 330.491210938 51.333984375 302.318359375 68.05078125 283.012695312 c 0
 84.998046875 263.44140625 116.893554688 248.72265625 164.462890625 240.012695312 c 2
 226.125 228.793945312 l 2
 259.297851562 222.563476562 282.995117188 213.248046875 296.80859375 199.694335938 c 0
 311.137695312 185.633789062 314.372070312 163.907226562 308.067382812 136.59765625 c 0xd8
EndSplineSet
EndChar

StartChar: t
Encoding: 116 116 86
Width: 335
GlyphClass: 2
Flags: MW
HStem: 0.430664 45.9004<152.079 169.419 169.419 191.973 191.973 191.973>
VStem: 113.036 55.0811
LayerCount: 2
Fore
SplineSet
169.418945312 46.3310546875 m 2
 134.739257812 46.3310546875 98.7275390625 60.4423828125 113.484375 124.361328125 c 2
 191.547851562 462.490234375 l 1
 307.826171875 462.490234375 l 1
 317.009765625 502.26953125 l 1
 200.73046875 502.26953125 l 1
 234.583007812 648.8984375 l 1
 173.60546875 623.354492188 l 1
 145.650390625 502.26953125 l 1
 65.0703125 502.26953125 l 1
 55.88671875 462.490234375 l 1
 136.466796875 462.490234375 l 1
 57.6962890625 121.299804688 l 2
 48.7568359375 82.5771484375 52.5693359375 53.328125 68.134765625 32.2763671875 c 0
 83.669921875 11.2626953125 109.637695312 0.4306640625 147.602539062 0.4306640625 c 2
 191.97265625 0.4306640625 l 1
 202.569335938 46.3310546875 l 1
 169.418945312 46.3310546875 l 2
EndSplineSet
EndChar

StartChar: u
Encoding: 117 117 87
Width: 521
GlyphClass: 2
Flags: MW
HStem: -5.69043 46.9209<160.126 199.018>
VStem: 74.2754 54.0605 384.355 54.0605
LayerCount: 2
Fore
SplineSet
33.0654296875 182.5 m 2
 10.83203125 86.1962890625 27.20703125 -5.6904296875 170.668945312 -5.6904296875 c 0
 227.3671875 -5.6904296875 356.266601562 5.173828125 397.206054688 182.5 c 2
 471.030273438 502.26953125 l 1
 416.969726562 502.26953125 l 1
 345.264648438 191.6796875 l 2
 319.315429688 79.2802734375 264.512695312 41.23046875 182.520507812 41.23046875 c 0
 137.731445312 41.23046875 106.821289062 53.5517578125 92.5712890625 79.9130859375 c 0
 78.630859375 105.701171875 78.048828125 143.18359375 89.2451171875 191.6796875 c 2
 160.950195312 502.26953125 l 1
 106.889648438 502.26953125 l 1
 33.0654296875 182.5 l 2
EndSplineSet
EndChar

StartChar: v
Encoding: 118 118 88
Width: 436
GlyphClass: 2
Flags: W
LayerCount: 2
Fore
SplineSet
106.9375 502.26953125 m 1
 47.7548828125 502.26953125 l 1
 105.115234375 0.4296875 l 1
 156.427734375 0.4296875 l 1
 445.504882812 502.26953125 l 1
 387.342773438 502.26953125 l 1
 147.337890625 69.978515625 l 1
 106.9375 502.26953125 l 1
EndSplineSet
EndChar

StartChar: w
Encoding: 119 119 89
Width: 717
GlyphClass: 2
Flags: MW
VStem: 47.3408 59.3604<502.27 502.27>
LayerCount: 2
Fore
SplineSet
106.701171875 502.26953125 m 1
 47.3408203125 502.26953125 l 1
 83.9150390625 0.4296875 l 1
 134.825195312 0.4296875 l 1
 370.455078125 435.669921875 l 1
 406.184570312 0.4296875 l 1
 458.12890625 0.4296875 l 1
 726.419921875 502.26953125 l 1
 667.045898438 502.26953125 l 1
 444.245117188 68.90625 l 1
 409.802734375 502.26953125 l 1
 362.9375 502.26953125 l 1
 128.33984375 68.802734375 l 1
 106.701171875 502.26953125 l 1
EndSplineSet
EndChar

StartChar: x
Encoding: 120 120 90
Width: 418
GlyphClass: 2
Flags: W
LayerCount: 2
Fore
SplineSet
-8.6875 0.4296875 m 1
 170.491210938 214.55859375 l 1
 251.852539062 0.4296875 l 1
 308.37890625 0.4296875 l 1
 208.432617188 263.134765625 l 1
 413.841796875 502.26953125 l 1
 357.567382812 502.26953125 l 1
 193.14453125 303.358398438 l 1
 117.391601562 502.26953125 l 1
 60.8447265625 502.26953125 l 1
 153.021484375 258.989257812 l 1
 -65.17578125 0.4296875 l 1
 -8.6875 0.4296875 l 1
EndSplineSet
EndChar

StartChar: y
Encoding: 121 121 91
Width: 436
GlyphClass: 2
Flags: MW
HStem: -154.61 47.9404<-41.8545 -29.9727 -29.9727 -24.0049 -41.8545 3.25049>
LayerCount: 2
Fore
SplineSet
-52.921875 -154.610351562 m 1
 -29.97265625 -154.610351562 l 2
 36.4736328125 -154.610351562 81.1494140625 -127.553710938 120.134765625 -60.7763671875 c 2
 445.486328125 502.26953125 l 1
 389.352539062 502.26953125 l 1
 149.389648438 74.4453125 l 1
 106.967773438 502.26953125 l 1
 47.76953125 502.26953125 l 1
 106.140625 -2.033203125 l 1
 99.8212890625 -13.44921875 93.5048828125 -24.87109375 87.181640625 -36.2841796875 c 0
 54.76953125 -91.802734375 22.724609375 -106.669921875 -24.0048828125 -106.669921875 c 2
 -41.8544921875 -106.669921875 l 1
 -52.921875 -154.610351562 l 1
EndSplineSet
EndChar

StartChar: z
Encoding: 122 122 92
Width: 454
GlyphClass: 2
Flags: MW
VStem: 57.9561 329.46
LayerCount: 2
Fore
SplineSet
315.474609375 49.3896484375 m 1
 41.3408203125 49.3896484375 l 1
 407.509765625 448.03515625 l 1
 420.030273438 502.26953125 l 1
 90.5703125 502.26953125 l 1
 79.267578125 453.309570312 l 1
 351.298828125 453.309570312 l 1
 -12.763671875 54.6796875 l 1
 -25.2880859375 0.4296875 l 1
 304.171875 0.4296875 l 1
 315.474609375 49.3896484375 l 1
EndSplineSet
EndChar

StartChar: braceleft
Encoding: 123 123 93
Width: 335
GlyphClass: 2
Flags: MW
HStem: -85.25 46.9199<126.068 148.854 148.854 166.07 166.07 166.07> 304.021 51.7393<44.8008 56.7461> 693.01 46.9199<317.696 345.746 345.746 345.746>
VStem: 129.355 57.1201
LayerCount: 2
Fore
SplineSet
50.4677734375 19.2998046875 m 2
 34.568359375 -49.568359375 54.994140625 -85.25 122.720703125 -85.25 c 2
 166.0703125 -85.25 l 1
 176.903320312 -38.330078125 l 1
 148.853515625 -38.330078125 l 2
 103.283203125 -38.330078125 101.081054688 -8.8837890625 108.05859375 21.33984375 c 2
 151.387695312 209.01953125 l 2
 159.893554688 245.86328125 161.424804688 272.2109375 157.114257812 287.663085938 c 0
 152.862304688 302.907226562 141.478515625 314.454101562 121.416015625 322.1640625 c 2
 102.915039062 329.272460938 l 1
 124.674804688 336.572265625 l 2
 147.590820312 344.259765625 164.241210938 355.806640625 175.944335938 371.201171875 c 0
 187.647460938 386.59375 198.536132812 413.2421875 207.198242188 450.759765625 c 2
 249.349609375 633.33984375 l 2
 256.32421875 663.547851562 272.114257812 693.009765625 317.696289062 693.009765625 c 2
 345.74609375 693.009765625 l 1
 356.578125 739.9296875 l 1
 313.228515625 739.9296875 l 2
 245.5 739.9296875 208.599609375 704.247070312 192.701171875 635.379882812 c 2
 148.900390625 445.66015625 l 2
 135.604492188 388.06640625 109.80078125 359.58984375 56.74609375 355.759765625 c 1
 44.80078125 304.020507812 l 1
 96.0966796875 300.189453125 108.739257812 271.703125 95.4453125 214.120117188 c 2
 50.4677734375 19.2998046875 l 2
EndSplineSet
Substitution2: "'rtla' Right to Left Alternates lookup 0 subtable" braceright
EndChar

StartChar: bar
Encoding: 124 124 94
Width: 298
GlyphClass: 2
Flags: MW
VStem: 118.136 53.04
LayerCount: 2
Fore
SplineSet
258.658203125 739.9296875 m 1
 205.618164062 739.9296875 l 1
 15.345703125 -84.23046875 l 1
 68.3857421875 -84.23046875 l 1
 258.658203125 739.9296875 l 1
EndSplineSet
EndChar

StartChar: braceright
Encoding: 125 125 95
Width: 335
GlyphClass: 2
Flags: MW
HStem: -85.25 46.9199<-34.2363 -6.18652 -34.2363 -1.71973 -34.2363 32.1445> 304.021 51.7393<255.94 267.886> 693.01 46.9199<145.438 162.656 162.656 185.441>
VStem: 140.576 57.1201
LayerCount: 2
Fore
SplineSet
261.041992188 635.379882812 m 2
 276.94140625 704.248046875 256.514648438 739.9296875 188.788085938 739.9296875 c 2
 145.438476562 739.9296875 l 1
 134.606445312 693.009765625 l 1
 162.65625 693.009765625 l 2
 208.2265625 693.009765625 210.428710938 663.563476562 203.450195312 633.33984375 c 2
 161.298828125 450.759765625 l 2
 152.63671875 413.2421875 151.220703125 386.59375 155.81640625 371.201171875 c 0
 160.412109375 355.806640625 171.73046875 344.259765625 191.09765625 336.572265625 c 2
 209.485351562 329.272460938 l 1
 187.704101562 322.1640625 l 2
 164.08203125 314.455078125 147.366210938 302.907226562 136.07421875 287.663085938 c 0
 124.62890625 272.2109375 113.994140625 245.86328125 105.48828125 209.01953125 c 2
 62.1591796875 21.33984375 l 2
 55.185546875 -8.8681640625 39.3955078125 -38.330078125 -6.1865234375 -38.330078125 c 2
 -34.236328125 -38.330078125 l 1
 -45.0693359375 -85.25 l 1
 -1.7197265625 -85.25 l 2
 66.0087890625 -85.25 102.909179688 -49.5673828125 118.80859375 19.2998046875 c 2
 163.786132812 214.120117188 l 2
 177.083007812 271.713867188 202.885742188 300.189453125 255.940429688 304.020507812 c 1
 267.885742188 355.759765625 l 1
 216.590820312 359.590820312 203.947265625 388.077148438 217.241210938 445.66015625 c 2
 261.041992188 635.379882812 l 2
EndSplineSet
Substitution2: "'rtla' Right to Left Alternates lookup 0 subtable" braceleft
EndChar

StartChar: asciitilde
Encoding: 126 126 96
Width: 511
GlyphClass: 2
Flags: MW
HStem: 216.67 49.9805<301.69 306.34> 281.95 48.96<141.599 170.679>
LayerCount: 2
Fore
SplineSet
53.75 223.651367188 m 1
 87.0927734375 263.108398438 111.868164062 281.950195312 148.334960938 281.950195312 c 0
 193.0234375 281.950195312 211.20703125 247.295898438 257.58984375 225.235351562 c 0
 269.544921875 219.548828125 283.458984375 216.669921875 299.524414062 216.669921875 c 0
 313.155273438 216.669921875 376.063476562 216.802734375 439.62109375 301.130859375 c 1
 407.646484375 324.819335938 l 1
 376.436523438 287.578125 349.311523438 266.650390625 312.083007812 266.650390625 c 0
 291.296875 266.650390625 280.693359375 271.287109375 243.569335938 296.31640625 c 0
 199.518554688 327.419921875 184.045898438 330.91015625 160.657226562 330.91015625 c 0
 122.540039062 330.91015625 69.728515625 313.459960938 21.515625 246.635742188 c 1
 53.75 223.651367188 l 1
EndSplineSet
EndChar

StartChar: exclamdown
Encoding: 161 161 98
Width: 233
GlyphClass: 2
Flags: MW
VStem: 74.2754 76.5 91.3877 42.2764
LayerCount: 2
Fore
SplineSet
183.389648438 502.26953125 m 1x80
 106.889648438 502.26953125 l 1
 88.287109375 421.690429688 l 1
 164.787109375 421.690429688 l 1
 183.389648438 502.26953125 l 1x80
120.123046875 302.349609375 m 1x40
 77.8466796875 302.349609375 l 1
 -41.4677734375 -154.610351562 l 1
 28.443359375 -154.610351562 l 1
 120.123046875 302.349609375 l 1x40
EndSplineSet
EndChar

StartChar: cent
Encoding: 162 162 99
Width: 502
GlyphClass: 2
Flags: MW
HStem: -5.05176 46.6387<178.466 189.233> 461.102 47.6709<286.086 297.092>
VStem: 57.9561 54.0596 219.117 43.8584 383.316 52.0117
LayerCount: 2
Fore
SplineSet
189.233398438 41.5869140625 m 1
 286.0859375 461.1015625 l 1
 308.209960938 459.260742188 346.024414062 456.114257812 368.616210938 426.029296875 c 0
 383.524414062 406.177734375 387.107421875 379.518554688 380.137695312 347.23046875 c 1
 432.163085938 347.23046875 l 1
 442.451171875 394.032226562 436.2734375 431.28125 414.076171875 460.141601562 c 0
 391.481445312 489.518554688 355.28515625 505.751953125 304.258789062 508.400390625 c 2
 297.091796875 508.772460938 l 1
 319.138671875 604.26953125 l 1
 275.279296875 604.26953125 l 1
 253.130859375 508.333984375 l 1
 226.959960938 504.903320312 171.482421875 497.6328125 119.299804688 448.904296875 c 0
 84.9453125 416.823242188 59.833984375 369.135742188 45.00390625 304.900390625 c 2
 20.513671875 198.8203125 l 2
 5.685546875 134.59375 8.9892578125 87.1171875 28.90625 55.3896484375 c 0
 49.06640625 23.2705078125 81.919921875 3.89453125 128.544921875 -2.701171875 c 2
 134.940429688 -3.60546875 l 1
 112.323242188 -101.5703125 l 1
 156.182617188 -101.5703125 l 1
 178.465820312 -5.0517578125 l 1
 205.818359375 -3.666015625 263.342773438 -0.75 317.904296875 43.578125 c 0
 353.169921875 72.228515625 376.46484375 109.146484375 387.877929688 155.469726562 c 1
 335.866210938 155.469726562 l 1
 327.91015625 123.149414062 311.811523438 96.4638671875 287.389648438 76.623046875 c 0
 250.423828125 46.58984375 211.95703125 43.4443359375 189.233398438 41.5869140625 c 1
75.515625 202.901367188 m 2
 98.1220703125 300.821289062 l 2
 108.982421875 347.86328125 125.337890625 384.119140625 148.466796875 409.203125 c 0
 182.694335938 446.323242188 218.209960938 454.163085938 241.829101562 459.376953125 c 1
 145.826171875 43.5439453125 l 1
 124.727539062 48.18359375 92.44140625 55.2841796875 75.443359375 93.0322265625 c 0
 63.9970703125 118.450195312 64.5 155.189453125 75.515625 202.901367188 c 2
EndSplineSet
EndChar

StartChar: sterling
Encoding: 163 163 100
Width: 433
GlyphClass: 2
Flags: MW
HStem: 645.071 54.0596<300.91 336.72>
VStem: 98.7559 60.1797 331.123 58.2119
LayerCount: 2
Fore
SplineSet
52.6005859375 161.081054688 m 2
 40.408203125 108.26953125 20.2958984375 74.6474609375 -18.51171875 51.8759765625 c 1
 -30.388671875 0.4306640625 l 1
 310.291992188 0.4306640625 l 1
 322.772460938 54.490234375 l 1
 45.0546875 54.490234375 l 1
 68.8115234375 75.595703125 79.8251953125 85.3818359375 93.1357421875 109.8203125 c 0
 102.049804688 126.189453125 109.379882812 146.352539062 114.899414062 170.259765625 c 2
 143.982421875 296.23046875 l 1
 285.762695312 296.23046875 l 1
 297.772460938 348.25 l 1
 155.9921875 348.25 l 1
 200.8515625 542.559570312 l 2
 208.310546875 574.869140625 221.186523438 600.475585938 240.583984375 618.404296875 c 0
 259.987304688 636.338867188 283.897460938 645.071289062 310.708984375 645.071289062 c 0
 362.731445312 645.071289062 386.204101562 611.069335938 376.924804688 559.390625 c 1
 435.13671875 559.390625 l 1
 443.704101562 602.469726562 438.20703125 635.651367188 419.431640625 660.0625 c 0
 399.486328125 685.995117188 368.194335938 699.130859375 324.208984375 699.130859375 c 0
 277.610351562 699.130859375 238.721679688 684.413085938 206.072265625 655.288085938 c 0
 173.38671875 626.129882812 150.510742188 585.176757812 138.08203125 531.340820312 c 2
 95.8125 348.250976562 l 1
 28.4921875 348.250976562 l 1
 16.482421875 296.231445312 l 1
 83.802734375 296.231445312 l 1
 52.6005859375 161.081054688 l 2
EndSplineSet
EndChar

StartChar: currency
Encoding: 164 164 101
Width: 614
GlyphClass: 2
Flags: MW
HStem: 133.03 46.9199<240.147 270.632> 472.69 46.9199<317.469 348.327>
VStem: 108.955 49.9785 445.554 49.9824
LayerCount: 2
Fore
SplineSet
487.529296875 326.3203125 m 0
 497.071289062 367.651367188 493.995117188 405.1328125 478.2421875 439.272460938 c 2
 475.823242188 444.513671875 l 1
 562.606445312 515.01953125 l 1
 534.025390625 552.181640625 l 1
 446.135742188 481.596679688 l 1
 431.240234375 494.336914062 401.692382812 519.610351562 338.86328125 519.610351562 c 0
 296.07421875 519.610351562 256.353515625 508.16796875 219.108398438 485.331054688 c 2
 213.018554688 481.596679688 l 1
 157.765625 552.124023438 l 1
 112.909179688 515.040039062 l 1
 167.055664062 443.326171875 l 1
 149.803710938 425.458007812 115.67578125 390.11328125 100.948242188 326.3203125 c 0
 91.3955078125 284.943359375 94.2353515625 247.795898438 109.461914062 214.361328125 c 2
 111.845703125 209.126953125 l 1
 26.2001953125 139.545898438 l 1
 53.78125 101.6328125 l 1
 140.526367188 172.107421875 l 1
 155.640625 159.056640625 185.779296875 133.030273438 249.61328125 133.030273438 c 0
 291.651367188 133.030273438 331.439453125 144.766601562 369.577148438 168.3125 c 2
 375.725585938 172.107421875 l 1
 430.759765625 100.553710938 l 1
 476.729492188 138.544921875 l 1
 421.3828125 209.193359375 l 1
 438.672851562 227.375976562 473.02734375 263.505859375 487.529296875 326.3203125 c 0
260.4453125 179.950195312 m 0
 219.848632812 179.950195312 188.59375 194.052734375 167.784179688 222.04296875 c 0
 146.989257812 250.013671875 141.41796875 285.133789062 150.926757812 326.3203125 c 0
 160.435546875 367.505859375 182.22265625 402.625976562 215.932617188 430.596679688 c 0
 249.666015625 458.586914062 287.432617188 472.690429688 328.029296875 472.690429688 c 0
 368.625 472.690429688 399.879882812 458.586914062 420.689453125 430.596679688 c 0
 441.486328125 402.625976562 447.055664062 367.505859375 437.546875 326.3203125 c 0
 428.038085938 285.133789062 406.252929688 250.013671875 372.541015625 222.04296875 c 0
 338.807617188 194.052734375 301.041015625 179.950195312 260.4453125 179.950195312 c 0
EndSplineSet
EndChar

StartChar: yen
Encoding: 165 165 102
Width: 452
GlyphClass: 2
Flags: MW
VStem: 87.9346 66.6465<688.93 688.93>
LayerCount: 2
Fore
SplineSet
145.8515625 158.530273438 m 1
 109.3515625 0.4296875 l 1
 168.51171875 0.4296875 l 1
 205.01171875 158.530273438 l 1
 348.83203125 158.530273438 l 1
 358.487304688 200.349609375 l 1
 214.666992188 200.349609375 l 1
 233.9765625 283.990234375 l 1
 377.796875 283.990234375 l 1
 387.6875 326.830078125 l 1
 259.026367188 326.830078125 l 1
 506.84375 688.9296875 l 1
 441.201171875 688.9296875 l 1
 219.063476562 345.197265625 l 1
 154.581054688 688.9296875 l 1
 87.9345703125 688.9296875 l 1
 169.578125 326.830078125 l 1
 39.8671875 326.830078125 l 1
 29.9765625 283.990234375 l 1
 174.81640625 283.990234375 l 1
 155.506835938 200.349609375 l 1
 10.6669921875 200.349609375 l 1
 1.01171875 158.530273438 l 1
 145.8515625 158.530273438 l 1
EndSplineSet
EndChar

StartChar: brokenbar
Encoding: 166 166 103
Width: 298
GlyphClass: 2
Flags: MW
VStem: 118.136 53.04
LayerCount: 2
Fore
SplineSet
258.658203125 739.9296875 m 1
 205.618164062 739.9296875 l 1
 126.259765625 396.190429688 l 1
 179.299804688 396.190429688 l 1
 258.658203125 739.9296875 l 1
148.215820312 261.549804688 m 1
 95.17578125 261.549804688 l 1
 15.345703125 -84.23046875 l 1
 68.3857421875 -84.23046875 l 1
 148.215820312 261.549804688 l 1
EndSplineSet
EndChar

StartChar: section
Encoding: 167 167 104
Width: 510
GlyphClass: 2
Flags: MW
HStem: -170.93 49.9795<105.904 150.144> 663.432 49.9805<311.616 346.57>
VStem: 79.374 58.1377 92.7256 55.1084 101.813 58.1416 347.633 58.1426 363.952 58.1436
LayerCount: 2
Fore
SplineSet
5.0068359375 -18.9501953125 m 1xd4
 -8.4619140625 -84.318359375 -4.8583984375 -170.9296875 126.400390625 -170.9296875 c 0
 173.887695312 -170.9296875 214.495117188 -157.52734375 249.237304688 -131.133789062 c 0
 283.889648438 -104.806640625 306.250976562 -70.087890625 316.526367188 -25.5810546875 c 0xd4
 332.375 43.0673828125 315.297851562 81.5517578125 268.590820312 105.146484375 c 2
 252.489257812 113.279296875 l 1
 272.65625 119.39453125 l 2
 304.456054688 129.038085938 331.356445312 147.38671875 354.25 175.173828125 c 0
 377.268554688 203.11328125 393.163085938 235.6796875 401.84375 273.280273438 c 0
 430.515625 397.47265625 370.00390625 434.850585938 308.731445312 449.416992188 c 0
 265.1484375 460.430664062 235.317382812 474.532226562 219.893554688 493.13671875 c 0
 204.381835938 511.844726562 200.817382812 537.993164062 208.229492188 570.100585938 c 0
 214.837890625 598.724609375 228.397460938 622.100585938 249.345703125 638.811523438 c 0
 270.231445312 655.471679688 295.534179688 663.431640625 324.125976562 663.431640625 c 0
 369.014648438 663.431640625 411.170898438 644.75390625 396.436523438 568.572265625 c 1
 451.547851562 568.572265625 l 1
 460.561523438 613.158203125 455.934570312 647.661132812 438.518554688 673.055664062 c 0
 420.342773438 699.557617188 386.374023438 713.412109375 334.645507812 713.412109375 c 0
 288.586914062 713.412109375 249.215820312 699.903320312 215.41796875 673.227539062 c 0
 181.556640625 646.501953125 159.885742188 612.540039062 150.087890625 570.1015625 c 0xca
 134.440429688 502.32421875 152.517578125 467.98828125 196.14453125 443.329101562 c 2
 210.516601562 435.204101562 l 1
 191.986328125 429.251953125 l 2
 157.62109375 418.213867188 129.544921875 399.231445312 106.806640625 371.864257812 c 0
 83.9111328125 344.30859375 67.9658203125 311.586914062 59.1220703125 273.282226562 c 0xe0
 30.1103515625 147.615234375 95.9833984375 111.8359375 153.48828125 98.1650390625 c 0
 198.422851562 87.15625 229.330078125 73.08203125 245.7734375 54.5888671875 c 0
 262.400390625 35.888671875 266.4375 9.3056640625 258.854492188 -23.5400390625 c 0
 251.934570312 -53.5126953125 237.80859375 -77.9091796875 216.015625 -95.306640625 c 0
 194.233398438 -112.6953125 167.4921875 -120.950195312 136.9140625 -120.950195312 c 0
 74.89453125 -120.950195312 46.08984375 -89.6455078125 60.115234375 -18.9501953125 c 1
 5.0068359375 -18.9501953125 l 1xd4
201.907226562 147.309570312 m 0
 137.973632812 147.309570312 97.53515625 187.84375 117.259765625 273.280273438 c 0
 126.330078125 312.567382812 143.270507812 344.060546875 168.828125 366.62890625 c 0
 194.393554688 389.202148438 225.369140625 400.268554688 260.307617188 400.268554688 c 0
 295.241210938 400.268554688 320.973632812 389.200195312 335.778320312 366.576171875 c 0
 350.55078125 344.002929688 352.764648438 312.541992188 343.700195312 273.279296875 c 0xe2
 334.779296875 234.638671875 317.890625 203.48828125 292.366210938 180.950195312 c 0
 266.844726562 158.415039062 236.2109375 147.309570312 201.907226562 147.309570312 c 0
313.33984375 713.918945312 m 1024
EndSplineSet
EndChar

StartChar: dieresis
Encoding: 168 168 105
Width: 499
GlyphClass: 2
Flags: MW
HStem: 589.99 72.4199<195.882 241.382 241.382 241.382 370.302 415.802 415.802 415.802>
LayerCount: 2
Fore
SplineSet
258.1015625 662.41015625 m 1
 195.881835938 662.41015625 l 1
 179.162109375 589.990234375 l 1
 241.381835938 589.990234375 l 1
 258.1015625 662.41015625 l 1
432.521484375 662.41015625 m 1
 370.301757812 662.41015625 l 1
 353.58203125 589.990234375 l 1
 415.801757812 589.990234375 l 1
 432.521484375 662.41015625 l 1
EndSplineSet
EndChar

StartChar: copyright
Encoding: 169 169 106
Width: 825
GlyphClass: 2
Flags: MW
HStem: -9.77051 38.7598<242.34 419.948 242.34 426.83> 151.389 33.6611<357.521 385.099> 498.189 34.6797<429.813 457.738> 650.171 38.7578<385.74 563.358>
VStem: 65.0957 42.8398 269.095 39.7803 509.765 37.7725 709.736 42.8389
LayerCount: 2
Fore
SplineSet
60.150390625 339.579101562 m 0
 12.904296875 134.934570312 117.302734375 -9.7705078125 322.7265625 -9.7705078125 c 0
 530.93359375 -9.7705078125 700.450195312 135.221679688 747.629882812 339.579101562 c 0
 795.46875 546.793945312 687.791992188 688.928710938 484.034179688 688.928710938 c 0
 278.599609375 688.928710938 107.393554688 544.212890625 60.150390625 339.579101562 c 0
704.791015625 339.580078125 m 0
 660.28515625 146.803710938 508.220703125 28.9892578125 331.674804688 28.9892578125 c 0
 153.005859375 28.9892578125 59.1787109375 149.810546875 102.990234375 339.580078125 c 0
 146.796875 529.327148438 296.395507812 650.170898438 475.084960938 650.170898438 c 0
 651.631835938 650.170898438 749.296875 532.354492188 704.791015625 339.580078125 c 0
446.118164062 498.189453125 m 0
 469.357421875 498.189453125 537.15234375 491.69921875 522.095703125 414.548828125 c 1
 559.8984375 414.548828125 l 1
 567.79296875 451.040039062 562.302734375 479.124023438 543.94921875 500.170898438 c 0
 525.15625 521.721679688 494.96484375 532.869140625 452.083984375 532.869140625 c 0
 407.229492188 532.869140625 369.828125 520.758789062 338.872070312 497.163085938 c 0
 308.551757812 474.051757812 286.418945312 436.041992188 273.803710938 381.3984375 c 2
 255.671875 302.858398438 l 2
 243.055664062 248.21484375 247.638671875 210.20703125 267.288085938 187.095703125 c 0
 287.349609375 163.5 319.159179688 151.388671875 364.013671875 151.388671875 c 0
 406.18359375 151.388671875 441.372070312 162.51171875 470.51171875 184.12109375 c 0
 498.907226562 205.178710938 517.505859375 233.24609375 526.4609375 269.709960938 c 1
 488.688476562 269.709960938 l 1
 482.146484375 244.534179688 468.8203125 223.682617188 448.646484375 208.469726562 c 0
 427.610351562 192.606445312 402.348632812 185.049804688 373.825195312 185.049804688 c 0
 341.215820312 185.049804688 316.868164062 193.807617188 302.32421875 212.2265625 c 0
 287.334960938 231.2109375 286.239257812 262.955078125 296.158203125 305.918945312 c 2
 312.877929688 378.338867188 l 2
 322.646484375 420.651367188 338.3515625 452.057617188 362.0703125 471.01171875 c 0
 385.1171875 489.431640625 413.508789062 498.189453125 446.118164062 498.189453125 c 0
EndSplineSet
EndChar

StartChar: ordfeminine
Encoding: 170 170 107
Width: 325
GlyphClass: 2
Flags: MW
HStem: 434.95 38.7598<155.69 163.128> 579.79 30.5996<194.657 265.548 265.548 265.548> 713.41 34.6797<222.21 251.271>
VStem: 33.4746 47.9414 41.7725 46 215.036 49.9795
LayerCount: 2
Fore
SplineSet
330.951171875 646.599609375 m 2xf4
 337.263671875 673.942382812 350.103515625 748.08984375 239.630859375 748.08984375 c 0
 204.7890625 748.08984375 176.418945312 739.731445312 153.770507812 723.858398438 c 0
 132.7265625 709.111328125 118.959960938 690.061523438 112.064453125 665.469726562 c 1
 158.064453125 665.469726562 l 1xec
 165.418945312 688.67578125 187.149414062 713.41015625 231.625 713.41015625 c 0
 270.91796875 713.41015625 291.524414062 692.314453125 281.677734375 649.66015625 c 2
 272.611328125 610.389648438 l 1
 191.521484375 610.389648438 l 2
 159.426757812 610.389648438 133.23046875 602.563476562 112.157226562 587.706054688 c 0
 91.220703125 572.9453125 77.7998046875 552.995117188 71.623046875 526.240234375 c 0
 67.9970703125 510.536132812 50.9326171875 434.950195312 146.938476562 434.950195312 c 0
 179.317382812 434.950195312 204.036132812 443.91796875 228.015625 467.69140625 c 2
 245.771484375 485.29296875 l 1
 235.090820312 439.030273438 l 1
 283.030273438 439.030273438 l 1
 330.951171875 646.599609375 l 2xf4
257.1875 543.580078125 m 2
 243.376953125 483.758789062 202.311523438 473.709960938 169.146484375 473.709960938 c 0
 142.234375 473.709960938 109.439453125 482.385742188 119.799804688 527.259765625 c 0xf4
 125.107421875 550.250976562 142.145507812 579.790039062 194.657226562 579.790039062 c 2
 265.547851562 579.790039062 l 1
 257.1875 543.580078125 l 2
272.87109375 856.719726562 m 1024
EndSplineSet
EndChar

StartChar: guillemotleft
Encoding: 171 171 108
Width: 476
GlyphClass: 2
Flags: W
LayerCount: 2
Fore
SplineSet
226.349609375 445.352539062 m 1
 3.517578125 262.059570312 l 1
 141.716796875 78.767578125 l 1
 156.23046875 141.6328125 l 1
 65.7001953125 262.059570312 l 1
 211.836914062 382.487304688 l 1
 226.349609375 445.352539062 l 1
413.009765625 445.352539062 m 1
 190.177734375 262.059570312 l 1
 328.376953125 78.767578125 l 1
 342.890625 141.6328125 l 1
 252.360351562 262.059570312 l 1
 398.497070312 382.487304688 l 1
 413.009765625 445.352539062 l 1
EndSplineSet
EndChar

StartChar: logicalnot
Encoding: 172 172 109
Width: 511
GlyphClass: 2
Flags: MW
HStem: 133.03 184.62<339.885 394.965 394.965 394.965>
LayerCount: 2
Fore
SplineSet
371.439453125 269.709960938 m 1
 339.884765625 133.030273438 l 1
 394.96484375 133.030273438 l 1
 437.587890625 317.650390625 l 1
 44.8876953125 317.650390625 l 1
 33.8193359375 269.709960938 l 1
 371.439453125 269.709960938 l 1
EndSplineSet
EndChar

StartChar: uni00AD
Encoding: 173 173 110
Width: 389
GlyphClass: 2
Flags: MW
HStem: 320.71 52.0205<60.6641 313.854 313.854 313.854>
VStem: 57.9561 265.2
LayerCount: 2
Fore
SplineSet
325.864257812 372.73046875 m 1
 60.6640625 372.73046875 l 1
 48.654296875 320.709960938 l 1
 313.854492188 320.709960938 l 1
 325.864257812 372.73046875 l 1
EndSplineSet
EndChar

StartChar: registered
Encoding: 174 174 111
Width: 536
GlyphClass: 2
Flags: MW
HStem: 312.55 16.3203<232.391 280.082 232.391 305.208> 507.37 21G<254.948 308.498 254.948 254.948> 585.91 17.3398<273.081 326.631 326.631 331.653 255.664 335.225> 671.59 16.3203<311.514 381.668>
VStem: 79.376 19.3799 319.076 20.3994 430.256 18.3604
LayerCount: 2
Fore
SplineSet
111.637695312 500.740234375 m 0
 86.845703125 393.35546875 145.888671875 312.549804688 252.30078125 312.549804688 c 0
 358.116210938 312.549804688 455.463867188 390.66015625 480.877929688 500.740234375 c 0
 505.506835938 607.420898438 446.689453125 687.91015625 338.958984375 687.91015625 c 0
 234.568359375 687.91015625 136.70703125 609.329101562 111.637695312 500.740234375 c 0
335.19140625 671.58984375 m 0
 428.14453125 671.58984375 486.329101562 603.880859375 462.517578125 500.740234375 c 0
 451.14453125 451.479492188 425.930664062 410.0625 387.059570312 377.61328125 c 0
 348.170898438 345.149414062 304.095703125 328.870117188 256.068359375 328.870117188 c 0
 208.712890625 328.870117188 172.627929688 344.985351562 148.994140625 377.104492188 c 0
 125.337890625 409.25390625 119.499023438 450.8515625 131.017578125 500.740234375 c 0
 142.384765625 549.977539062 167.372070312 591.228515625 205.845703125 623.35546875 c 0
 244.309570312 655.474609375 287.8359375 671.58984375 335.19140625 671.58984375 c 0
382.333984375 546.639648438 m 0
 387.178710938 567.627929688 387.21875 603.25 331.653320312 603.25 c 2
 255.6640625 603.25 l 1
 208.801757812 400.26953125 l 1
 230.221679688 400.26953125 l 1
 250.9453125 490.030273438 l 1
 299.39453125 490.030273438 l 1
 304.221679688 490.030273438 l 1
 326.337890625 400.26953125 l 1
 349.151367188 400.26953125 l 1
 326.772460938 490.736328125 l 1
 342.602539062 496.111328125 353.817382812 499.919921875 365.6796875 513.135742188 c 0
 373.5078125 521.857421875 379.1484375 532.844726562 382.333984375 546.639648438 c 0
361.934570312 546.639648438 m 0
 358.422851562 531.428710938 346.811523438 507.370117188 308.498046875 507.370117188 c 2
 254.948242188 507.370117188 l 1
 273.081054688 585.91015625 l 1
 326.630859375 585.91015625 l 2
 343.818359375 585.91015625 369.762695312 580.549804688 361.934570312 546.639648438 c 0
EndSplineSet
EndChar

StartChar: macron
Encoding: 175 175 112
Width: 499
GlyphClass: 2
Flags: MW
HStem: 602.23 47.9395<186.936 425.769 425.769 425.769>
VStem: 120.176 249.9
LayerCount: 2
Fore
SplineSet
436.8359375 650.169921875 m 1
 186.935546875 650.169921875 l 1
 175.868164062 602.23046875 l 1
 425.768554688 602.23046875 l 1
 436.8359375 650.169921875 l 1
EndSplineSet
EndChar

StartChar: degree
Encoding: 176 176 113
Width: 408
GlyphClass: 2
Flags: MW
HStem: 428.83 34.6797<209.763 235.057> 665.47 33.6602<258.441 284.375>
VStem: 65.0957 36.7197 297.656 36.7197
LayerCount: 2
Fore
SplineSet
215.905273438 428.830078125 m 0
 254.208007812 428.830078125 288.650390625 441.610351562 320.37890625 467.388671875 c 0
 352.076171875 493.139648438 372.229492188 524.9609375 381.237304688 563.98046875 c 0
 390.24609375 602.999023438 384.78515625 634.8203125 364.978515625 660.571289062 c 0
 345.15234375 686.349609375 316.612304688 699.129882812 278.309570312 699.129882812 c 0
 238.573242188 699.129882812 203.65234375 686.299804688 172.34765625 660.606445312 c 0
 140.982421875 634.862304688 120.971679688 603.024414062 111.95703125 563.98046875 c 0
 102.943359375 524.935546875 108.25390625 493.09765625 127.732421875 467.353515625 c 0
 147.172851562 441.66015625 176.168945312 428.830078125 215.905273438 428.830078125 c 0
148.676757812 563.98046875 m 0
 162.227539062 622.674804688 212.671875 665.469726562 270.538085938 665.469726562 c 0
 298.212890625 665.469726562 319.631835938 655.78125 333.646484375 636.600585938 c 0
 347.669921875 617.409179688 351.177734375 592.830078125 344.517578125 563.98046875 c 0
 338.001953125 535.758789062 323.188476562 511.53125 300.350585938 492.379882812 c 0
 277.478515625 473.198242188 251.586914062 463.509765625 223.912109375 463.509765625 c 0
 195.61328125 463.509765625 173.830078125 473.155273438 159.783203125 492.379882812 c 0
 145.7890625 511.53125 142.161132812 535.758789062 148.676757812 563.98046875 c 0
EndSplineSet
EndChar

StartChar: plusminus
Encoding: 177 177 114
Width: 511
GlyphClass: 2
Flags: W
LayerCount: 2
Fore
SplineSet
207.692382812 285.009765625 m 1
 168.6015625 115.690429688 l 1
 220.62109375 115.690429688 l 1
 259.711914062 285.009765625 l 1
 429.032226562 285.009765625 l 1
 441.041992188 337.030273438 l 1
 271.721679688 337.030273438 l 1
 310.8125 506.349609375 l 1
 258.79296875 506.349609375 l 1
 219.702148438 337.030273438 l 1
 50.3818359375 337.030273438 l 1
 38.3720703125 285.009765625 l 1
 207.692382812 285.009765625 l 1
374.399414062 48.3701171875 m 1
 -16.2607421875 48.3701171875 l 1
 -28.2705078125 -3.650390625 l 1
 362.389648438 -3.650390625 l 1
 374.399414062 48.3701171875 l 1
EndSplineSet
EndChar

StartChar: uni00B2
Encoding: 178 178 115
Width: 316
GlyphClass: 2
Flags: MW
HStem: 814.39 41.8203<251.041 273.298>
VStem: 40.6162 52.0195 210.956 55.0791
LayerCount: 2
Fore
SplineSet
256.978515625 814.389648438 m 0
 289.618164062 814.389648438 310.7890625 793.424804688 300.911132812 750.639648438 c 2
 299.02734375 742.48046875 l 2
 293.924804688 720.379882812 282.932617188 700.233398438 255.744140625 671.708007812 c 2
 71.587890625 481.900390625 l 1
 61.6904296875 439.030273438 l 1
 285.0703125 439.030273438 l 1
 295.431640625 483.91015625 l 1
 138.112304688 483.91015625 l 1
 293.670898438 646.16015625 l 2
 334.666015625 687.147460938 347.732421875 714.872070312 354.106445312 742.48046875 c 2
 356.697265625 753.700195312 l 2
 363.822265625 784.563476562 359.345703125 808.787109375 343.556640625 827.678710938 c 0
 327.79296875 846.538085938 303.255859375 856.209960938 268.673828125 856.209960938 c 0
 233.407226562 856.209960938 203.85546875 846.364257812 178.97265625 827.171875 c 0
 154.133789062 808.012695312 137.955078125 782.623046875 130.3359375 749.620117188 c 2
 128.569335938 741.969726562 l 1
 180.588867188 741.969726562 l 1
 181.4140625 745.540039062 l 2
 186.368164062 767 195.158203125 784.381835938 208.924804688 796.5546875 c 0
 222.530273438 808.5859375 239.032226562 814.389648438 256.978515625 814.389648438 c 0
EndSplineSet
EndChar

StartChar: uni00B3
Encoding: 179 179 116
Width: 314
GlyphClass: 2
Flags: MW
HStem: 432.91 40.7998<164.696 183.423> 630.79 41.8203<202.316 206.432 206.432 216.086 202.316 216.77> 814.389 41.8203<246.251 258.292>
VStem: 37.5557 45.9004 206.876 52.0195 214.016 51.001
LayerCount: 2
Fore
SplineSet
256.40234375 544.599609375 m 2xf4
 246.190429688 500.366210938 214.892578125 473.709960938 174.24609375 473.709960938 c 0
 155.145507812 473.709960938 140.26953125 479.143554688 131.022460938 490.650390625 c 0
 121.82421875 502.096679688 119.578125 517.4609375 123.723632812 535.419921875 c 2
 124.3125 537.969726562 l 1
 78.412109375 537.969726562 l 1
 77.587890625 534.400390625 l 2
 70.1103515625 502.012695312 74.3505859375 477.698242188 89.546875 459.961914062 c 0
 104.763671875 442.204101562 129.745117188 432.91015625 165.848632812 432.91015625 c 0
 200.997070312 432.91015625 230.982421875 443.334960938 256.927734375 463.900390625 c 0
 282.875 484.466796875 299.633789062 510.944335938 307.403320312 544.599609375 c 2
 310.229492188 556.83984375 l 2xf4
 314.873046875 576.954101562 322.30859375 629.90625 278.297851562 649.711914062 c 2
 264.446289062 655.9453125 l 1
 291.920898438 668.740234375 305.09765625 674.875 323.049804688 695.578125 c 0
 334.840820312 709.174804688 343.006835938 725.328125 347.4375 744.518554688 c 2
 349.791992188 754.71875 l 2
 356.93359375 785.651367188 352.703125 809.713867188 337.522460938 828.227539062 c 0
 322.390625 846.680664062 298.192382812 856.208984375 263.57421875 856.208984375 c 0
 228.927734375 856.208984375 200.334960938 846.825195312 176.763671875 828.692382812 c 0
 153.206054688 810.568359375 137.801757812 786.37890625 130.4921875 754.71875 c 2
 129.668945312 751.149414062 l 1
 176.588867188 751.149414062 l 1
 177.176757812 753.69921875 l 2
 185.05078125 787.803710938 210.846679688 814.388671875 251.87890625 814.388671875 c 0
 264.705078125 814.388671875 310.576171875 810.174804688 296.360351562 748.598632812 c 2
 294.004882812 738.399414062 l 2xf8
 289.59375 719.290039062 280.409179688 703.05078125 266.172851562 690.845703125 c 0
 251.849609375 678.564453125 234.703125 672.610351562 216.0859375 672.610351562 c 2
 202.31640625 672.610351562 l 1
 192.662109375 630.790039062 l 1
 206.431640625 630.790039062 l 2
 227.107421875 630.790039062 243.024414062 624.142578125 252.711914062 610.53515625 c 0
 262.353515625 596.994140625 264.35546875 579.045898438 259.463867188 557.860351562 c 2
 256.40234375 544.599609375 l 2xf4
EndSplineSet
EndChar

StartChar: acute
Encoding: 180 180 117
Width: 499
GlyphClass: 2
Flags: MW
HStem: 583.87 112.2<229.775 408.576 274.961 408.576>
LayerCount: 2
Fore
SplineSet
408.576171875 696.0703125 m 1
 344.541015625 696.0703125 l 1
 229.775390625 583.870117188 l 1
 274.9609375 583.870117188 l 1
 408.576171875 696.0703125 l 1
EndSplineSet
EndChar

StartChar: uni00B5
Encoding: 181 181 118
Width: 514
GlyphClass: 2
Flags: MW
HStem: -7.73047 47.9404<158.038 173.736>
VStem: 74.2754 54.0605 376.196 55.0791
LayerCount: 2
Fore
SplineSet
176.165039062 40.2099609375 m 0
 139.91015625 40.2099609375 57.2392578125 53.0478515625 85.2421875 174.33984375 c 2
 160.950195312 502.26953125 l 1
 106.889648438 502.26953125 l 1
 -44.7626953125 -154.610351562 l 1
 9.2978515625 -154.610351562 l 1
 55.142578125 43.9638671875 l 1
 65.09375 29.5859375 l 2
 82.2001953125 4.875 110.913085938 -7.73046875 152.858398438 -7.73046875 c 0
 194.614257812 -7.73046875 248.283203125 5.177734375 293.09765625 57.9921875 c 2
 312.5546875 80.923828125 l 1
 293.971679688 0.4296875 l 1
 348.03125 0.4296875 l 1
 463.889648438 502.26953125 l 1
 408.810546875 502.26953125 l 1
 333.102539062 174.33984375 l 2
 323.513671875 132.806640625 304.078125 99.412109375 274.352539062 75.560546875 c 0
 245.000976562 52.0078125 211.893554688 40.2099609375 176.165039062 40.2099609375 c 0
EndSplineSet
EndChar

StartChar: paragraph
Encoding: 182 182 119
Width: 614
GlyphClass: 2
Flags: MW
VStem: 79.376 244.8
LayerCount: 2
Fore
SplineSet
368.7734375 688.9296875 m 2
 225.985351562 688.9296875 133.109375 593.74609375 107.633789062 483.400390625 c 0
 94.333984375 425.79296875 100.336914062 378.509765625 125.26171875 340.576171875 c 0
 150.143554688 302.70703125 189.609375 281.813476562 244.833984375 277.850585938 c 2
 251.823242188 277.349609375 l 1
 152.09765625 -154.610351562 l 1
 205.137695312 -154.610351562 l 1
 388.109375 637.9296875 l 1
 496.229492188 637.9296875 l 1
 313.2578125 -154.610351562 l 1
 366.297851562 -154.610351562 l 1
 561.043945312 688.9296875 l 1
 368.7734375 688.9296875 l 2
EndSplineSet
EndChar

StartChar: periodcentered
Encoding: 183 183 120
Width: 188
GlyphClass: 2
Flags: MW
HStem: 227.89 78.54<39.2373 95.5645 95.5645 95.5645>
VStem: 51.8359 74.46
LayerCount: 2
Fore
SplineSet
113.697265625 306.4296875 m 1
 39.2373046875 306.4296875 l 1
 21.1044921875 227.889648438 l 1
 95.564453125 227.889648438 l 1
 113.697265625 306.4296875 l 1
EndSplineSet
EndChar

StartChar: cedilla
Encoding: 184 184 121
Width: 499
GlyphClass: 2
Flags: MW
HStem: -152.57 149.94<74.5029 213.861 130.19 213.861>
VStem: 193.07 55.6875
LayerCount: 2
Fore
SplineSet
213.861328125 -2.6298828125 m 1
 167.428710938 -2.6298828125 l 1
 74.5029296875 -152.5703125 l 1
 130.190429688 -152.5703125 l 1
 213.861328125 -2.6298828125 l 1
EndSplineSet
EndChar

StartChar: uni00B9
Encoding: 185 185 122
Width: 216
GlyphClass: 2
Flags: MW
VStem: 24.2959 129.54
LayerCount: 2
Fore
SplineSet
199.552734375 797.600585938 m 1
 116.770507812 439.030273438 l 1
 171.850585938 439.030273438 l 1
 266.515625 849.0703125 l 1
 206.305664062 849.0703125 l 1
 125.134765625 797.784179688 l 1
 112.141601562 741.500976562 l 1
 199.552734375 797.600585938 l 1
EndSplineSet
EndChar

StartChar: ordmasculine
Encoding: 186 186 123
Width: 325
GlyphClass: 2
Flags: MW
HStem: 434.95 43.8594<169.423 194.519> 704.23 43.8594<228.772 253.868>
VStem: 39.5957 49.9805 227.275 49.9805
LayerCount: 2
Fore
SplineSet
175.498046875 434.950195312 m 0
 213.5390625 434.950195312 244.677734375 445.34375 270.03125 465.431640625 c 0
 294.990234375 485.206054688 313.16015625 516.518554688 323.411132812 560.919921875 c 2
 337.540039062 622.120117188 l 2
 347.791015625 666.521484375 344.079101562 697.833984375 328.250976562 717.608398438 c 0
 312.172851562 737.696289062 285.833007812 748.08984375 247.791992188 748.08984375 c 0
 209.751953125 748.08984375 178.612304688 737.696289062 153.258789062 717.608398438 c 0
 128.30078125 697.833984375 110.130859375 666.521484375 99.8798828125 622.120117188 c 2
 85.7509765625 560.919921875 l 2
 75.5 516.51953125 79.2119140625 485.20703125 95.0390625 465.431640625 c 0
 111.1171875 445.34375 137.458007812 434.950195312 175.498046875 434.950195312 c 0
237.666992188 704.23046875 m 0
 270.068359375 704.23046875 303.069335938 689.298828125 287.559570312 622.120117188 c 2
 273.430664062 560.919921875 l 2
 269.515625 543.963867188 253.936523438 478.809570312 185.624023438 478.809570312 c 0
 153.22265625 478.809570312 120.221679688 493.741210938 135.731445312 560.919921875 c 2
 149.860351562 622.120117188 l 2
 153.774414062 639.076171875 169.354492188 704.23046875 237.666992188 704.23046875 c 0
272.87109375 856.719726562 m 1024
EndSplineSet
EndChar

StartChar: guillemotright
Encoding: 187 187 124
Width: 476
GlyphClass: 2
Flags: W
LayerCount: 2
Fore
SplineSet
79.236328125 382.487304688 m 1
 169.765625 262.059570312 l 1
 23.6298828125 141.6328125 l 1
 9.1162109375 78.767578125 l 1
 231.948242188 262.059570312 l 1
 93.7490234375 445.352539062 l 1
 79.236328125 382.487304688 l 1
264.880859375 382.506835938 m 1
 356.47265625 262.059570312 l 1
 209.266601562 141.61328125 l 1
 194.7421875 78.7001953125 l 1
 418.581054688 262.059570312 l 1
 279.405273438 445.419921875 l 1
 264.880859375 382.506835938 l 1
EndSplineSet
EndChar

StartChar: onequarter
Encoding: 188 188 125
Width: 733
GlyphClass: 3
Flags: W
LayerCount: 2
Fore
SplineSet
162.58203125 637.4609375 m 1
 79.798828125 278.889648438 l 1
 134.87890625 278.889648438 l 1
 229.543945312 688.9296875 l 1
 169.333984375 688.9296875 l 1
 88.1640625 637.64453125 l 1
 75.169921875 581.360351562 l 1
 162.58203125 637.4609375 l 1
572.431640625 0.4296875 m 1
 590.092773438 76.9296875 l 1
 629.873046875 76.9296875 l 1
 640.234375 121.809570312 l 1
 600.454101562 121.809570312 l 1
 623.53125 221.76953125 l 1
 568.451171875 221.76953125 l 1
 545.374023438 121.809570312 l 1
 436.559570312 121.809570312 l 1
 621.522460938 410.469726562 l 1
 568.68359375 410.469726562 l 1
 386.649414062 127.9375 l 1
 374.873046875 76.9296875 l 1
 535.012695312 76.9296875 l 1
 517.3515625 0.4296875 l 1
 572.431640625 0.4296875 l 1
591.561523438 688.9296875 m 1
 544.6953125 688.9296875 l 1
 13.5537109375 0.4296875 l 1
 60.4208984375 0.4296875 l 1
 591.561523438 688.9296875 l 1
EndSplineSet
Ligature2: "'frac' Diagonal Fractions lookup 2 subtable" one slash four
EndChar

StartChar: onehalf
Encoding: 189 189 126
Width: 722
GlyphClass: 3
Flags: MW
HStem: 375.79 41.8203<555.743 578>
VStem: 446.577 52.0195 616.917 55.0791
LayerCount: 2
Fore
SplineSet
162.58203125 637.4609375 m 1
 79.798828125 278.889648438 l 1
 134.87890625 278.889648438 l 1
 229.543945312 688.9296875 l 1
 169.333984375 688.9296875 l 1
 88.1640625 637.64453125 l 1
 75.169921875 581.360351562 l 1
 162.58203125 637.4609375 l 1
561.680664062 375.790039062 m 0
 594.3203125 375.790039062 615.491210938 354.825195312 605.61328125 312.040039062 c 2
 603.729492188 303.879882812 l 2
 598.627929688 281.780273438 587.633789062 261.6328125 560.446289062 233.107421875 c 2
 376.2890625 43.30078125 l 1
 366.391601562 0.4296875 l 1
 589.771484375 0.4296875 l 1
 600.1328125 45.3095703125 l 1
 442.813476562 45.3095703125 l 1
 454.458007812 57.455078125 l 1
 454.458007812 57.455078125 598.213867188 207.395507812 598.374023438 207.557617188 c 0
 639.44140625 248.625 652.454101562 276.356445312 658.80859375 303.879882812 c 2
 661.399414062 315.099609375 l 2
 668.524414062 345.963867188 664.048828125 370.186523438 648.258789062 389.079101562 c 0
 632.495117188 407.938476562 607.958007812 417.610351562 573.375976562 417.610351562 c 0
 538.109375 417.610351562 508.557617188 407.764648438 483.674804688 388.571289062 c 0
 458.8359375 369.413085938 442.657226562 344.0234375 435.038085938 311.01953125 c 2
 433.272460938 303.370117188 l 1
 485.291992188 303.370117188 l 1
 486.116210938 306.940429688 l 2
 491.0703125 328.400390625 499.860351562 345.782226562 513.626953125 357.954101562 c 0
 527.232421875 369.986328125 543.734375 375.790039062 561.680664062 375.790039062 c 0
591.5625 688.9296875 m 1
 544.696289062 688.9296875 l 1
 13.5546875 0.4296875 l 1
 60.421875 0.4296875 l 1
 591.5625 688.9296875 l 1
EndSplineSet
Ligature2: "'frac' Diagonal Fractions lookup 2 subtable" one slash two
EndChar

StartChar: threequarters
Encoding: 190 190 127
Width: 831
GlyphClass: 3
Flags: MW
HStem: 272.77 40.7998<127.725 146.451> 470.649 41.8193<165.345 169.46 169.46 179.114 165.345 179.798> 654.248 41.8203<209.279 221.32>
VStem: 37.5557 45.9004 206.876 52.0195 214.016 51.001
LayerCount: 2
Fore
SplineSet
219.431640625 384.458984375 m 2xf4
 209.21875 340.224609375 177.921875 313.569335938 137.275390625 313.569335938 c 0
 118.174804688 313.569335938 103.297851562 319.001953125 94.05078125 330.508789062 c 0
 84.8525390625 341.955078125 82.6064453125 357.319335938 86.7529296875 375.279296875 c 2
 87.3408203125 377.829101562 l 1
 41.4404296875 377.829101562 l 1
 40.6162109375 374.258789062 l 2
 33.1396484375 341.872070312 37.3798828125 317.557617188 52.576171875 299.822265625 c 0
 67.79296875 282.064453125 92.7734375 272.76953125 128.876953125 272.76953125 c 0
 164.025390625 272.76953125 194.01171875 283.1953125 219.95703125 303.759765625 c 0
 245.904296875 324.326171875 262.663085938 350.8046875 270.432617188 384.459960938 c 2
 273.258789062 396.700195312 l 2xf4
 277.890625 416.765625 285.354492188 469.772460938 241.328125 489.5703125 c 2
 227.46875 495.801757812 l 1
 254.952148438 508.599609375 268.125976562 514.734375 286.078125 535.436523438 c 0
 297.870117188 549.034179688 306.03515625 565.186523438 310.465820312 584.377929688 c 2
 312.821289062 594.578125 l 2
 319.961914062 625.510742188 315.731445312 649.572265625 300.55078125 668.0859375 c 0
 285.418945312 686.540039062 261.220703125 696.068359375 226.602539062 696.068359375 c 0
 191.956054688 696.068359375 163.364257812 686.684570312 139.79296875 668.55078125 c 0
 116.234375 650.427734375 100.830078125 626.23828125 93.521484375 594.578125 c 2
 92.697265625 591.0078125 l 1
 139.6171875 591.0078125 l 1
 140.205078125 593.557617188 l 2
 148.079101562 627.663085938 173.875 654.248046875 214.907226562 654.248046875 c 0
 227.733398438 654.248046875 273.604492188 650.033203125 259.388671875 588.458007812 c 2
 257.033203125 578.2578125 l 2xf8
 252.622070312 559.1484375 243.4375 542.91015625 229.202148438 530.705078125 c 0
 214.877929688 518.423828125 197.731445312 512.46875 179.114257812 512.46875 c 2
 165.344726562 512.46875 l 1
 155.690429688 470.649414062 l 1
 169.459960938 470.649414062 l 2
 190.135742188 470.649414062 206.052734375 464.001953125 215.740234375 450.39453125 c 0
 225.381835938 436.852539062 227.383789062 418.905273438 222.4921875 397.71875 c 2
 219.431640625 384.458984375 l 2xf4
671.37109375 0.4287109375 m 1
 689.033203125 76.9287109375 l 1
 728.8125 76.9287109375 l 1
 739.173828125 121.80859375 l 1
 699.39453125 121.80859375 l 1
 722.471679688 221.768554688 l 1
 667.391601562 221.768554688 l 1
 644.314453125 121.80859375 l 1
 535.499023438 121.80859375 l 1
 720.461914062 410.46875 l 1
 667.623046875 410.46875 l 1
 485.587890625 127.936523438 l 1
 473.8125 76.9287109375 l 1
 633.953125 76.9287109375 l 1
 616.291015625 0.4287109375 l 1
 671.37109375 0.4287109375 l 1
690.501953125 688.928710938 m 1
 643.634765625 688.928710938 l 1
 112.493164062 0.4287109375 l 1
 159.359375 0.4287109375 l 1
 690.501953125 688.928710938 l 1
EndSplineSet
Ligature2: "'frac' Diagonal Fractions lookup 2 subtable" three slash four
EndChar

StartChar: questiondown
Encoding: 191 191 128
Width: 426
GlyphClass: 2
Flags: MW
HStem: -164.81 52.0195<89.1289 131.092>
VStem: 45.7148 59.1592 185.454 59.1602 322.903 59.1348
LayerCount: 2
Fore
SplineSet
286.41015625 502.26953125 m 1
 210.9296875 502.26953125 l 1
 192.5625 422.709960938 l 1
 268.04296875 422.709960938 l 1
 286.41015625 502.26953125 l 1
170.3828125 295.719726562 m 2
 159.84765625 250.086914062 147.8359375 230.546875 112.017578125 196.05859375 c 2
 112.017578125 196.05859375 50.0517578125 134.958984375 50.041015625 134.948242188 c 0
 -5.7744140625 79.759765625 -27.28125 44.818359375 -38.1181640625 -2.119140625 c 0
 -49.5166015625 -51.4931640625 -43.365234375 -90.3984375 -20.1962890625 -120.102539062 c 0
 2.921875 -149.743164062 39.89453125 -164.809570312 92.11328125 -164.809570312 c 0
 170.0703125 -164.809570312 261.536132812 -133.716796875 298.322265625 -1.6103515625 c 1
 239.1875 -1.6103515625 l 1
 229.2578125 -37.162109375 201.0078125 -112.790039062 106.161132812 -112.790039062 c 0
 72.0966796875 -112.790039062 46.7158203125 -103.095703125 31.5986328125 -82.95703125 c 0
 16.5400390625 -62.8955078125 13.330078125 -35.5185546875 21.041015625 -2.1201171875 c 0
 31.7958984375 44.462890625 53.4599609375 74.48828125 96.943359375 115.939453125 c 2
 96.943359375 115.939453125 158.450195312 175.01171875 158.512695312 175.071289062 c 0
 202.305664062 217.797851562 217.265625 242.540039062 229.307617188 294.700195312 c 2
 236.018554688 323.76953125 l 1
 176.858398438 323.76953125 l 1
 170.3828125 295.719726562 l 2
EndSplineSet
EndChar

StartChar: Agrave
Encoding: 192 192 129
Width: 577
GlyphClass: 2
Flags: W
LayerCount: 2
Fore
SplineSet
85.380859375 169.75 m 1
 395.104492188 169.75 l 1
 415.173828125 0.4296875 l 1
 477.357421875 0.4296875 l 1
 385.854492188 688.9296875 l 1
 334.352539062 688.9296875 l 1
 -75.0537109375 0.4296875 l 1
 -12.8701171875 0.4296875 l 1
 85.380859375 169.75 l 1
112.543945312 217.690429688 m 1
 342.678710938 615.784179688 l 1
 390.103515625 217.690429688 l 1
 112.543945312 217.690429688 l 1
358.818359375 882.73046875 m 1
 294.783203125 882.73046875 l 1
 376.590820312 770.530273438 l 1
 421.776367188 770.530273438 l 1
 358.818359375 882.73046875 l 1
EndSplineSet
EndChar

StartChar: Aacute
Encoding: 193 193 130
Width: 577
GlyphClass: 2
Flags: W
LayerCount: 2
Fore
SplineSet
85.380859375 169.75 m 1
 395.104492188 169.75 l 1
 415.173828125 0.4296875 l 1
 477.357421875 0.4296875 l 1
 385.854492188 688.9296875 l 1
 334.352539062 688.9296875 l 1
 -75.0537109375 0.4296875 l 1
 -12.8701171875 0.4296875 l 1
 85.380859375 169.75 l 1
112.543945312 217.690429688 m 1
 342.678710938 615.784179688 l 1
 390.103515625 217.690429688 l 1
 112.543945312 217.690429688 l 1
497.5703125 882.73046875 m 1
 433.53515625 882.73046875 l 1
 318.768554688 770.530273438 l 1
 363.954101562 770.530273438 l 1
 497.5703125 882.73046875 l 1
EndSplineSet
EndChar

StartChar: Acircumflex
Encoding: 194 194 131
Width: 577
GlyphClass: 2
Flags: W
LayerCount: 2
Fore
SplineSet
85.380859375 169.75 m 1
 395.104492188 169.75 l 1
 415.173828125 0.4296875 l 1
 477.357421875 0.4296875 l 1
 385.854492188 688.9296875 l 1
 334.352539062 688.9296875 l 1
 -75.0537109375 0.4296875 l 1
 -12.8701171875 0.4296875 l 1
 85.380859375 169.75 l 1
112.543945312 217.690429688 m 1
 342.678710938 615.784179688 l 1
 390.103515625 217.690429688 l 1
 112.543945312 217.690429688 l 1
431.170898438 891.91015625 m 1
 382.76171875 891.91015625 l 1
 254.612304688 760.330078125 l 1
 298.870117188 760.330078125 l 1
 400.65625 862.188476562 l 1
 454.337890625 760.330078125 l 1
 498.564453125 760.330078125 l 1
 431.170898438 891.91015625 l 1
EndSplineSet
EndChar

StartChar: Atilde
Encoding: 195 195 132
Width: 577
GlyphClass: 2
Flags: MW
HStem: 768.493 44.8799<428.664 444.924> 807.251 45.9023<331.739 345.567>
LayerCount: 2
Fore
SplineSet
85.380859375 169.75 m 1x00
 395.104492188 169.75 l 1
 415.173828125 0.4296875 l 1
 477.357421875 0.4296875 l 1
 385.854492188 688.9296875 l 1
 334.352539062 688.9296875 l 1
 -75.0537109375 0.4296875 l 1
 -12.8701171875 0.4296875 l 1
 85.380859375 169.75 l 1x00
112.543945312 217.690429688 m 1
 342.678710938 615.784179688 l 1
 390.103515625 217.690429688 l 1
 112.543945312 217.690429688 l 1
513.833007812 842.298828125 m 1
 489.67578125 823.4453125 472.458984375 813.373046875 447.485351562 813.373046875 c 0x80
 402.451171875 813.373046875 389.481445312 853.153320312 342.428710938 853.153320312 c 0
 321.049804688 853.153320312 301.143554688 845.7109375 271.860351562 819.201171875 c 1
 262.53515625 778.8125 l 1
 285.041015625 796.694335938 303.192382812 807.250976562 329.791015625 807.250976562 c 0x40
 361.34375 807.250976562 381.635742188 783.901367188 407.266601562 773.0859375 c 0
 414.374023438 770.0859375 423.262695312 768.493164062 434.064453125 768.493164062 c 0x80
 455.783203125 768.493164062 478.94921875 778.857421875 504.40625 801.466796875 c 1
 513.833007812 842.298828125 l 1
EndSplineSet
EndChar

StartChar: Adieresis
Encoding: 196 196 133
Width: 577
GlyphClass: 2
Flags: W
LayerCount: 2
Fore
SplineSet
85.380859375 169.75 m 1
 395.104492188 169.75 l 1
 415.173828125 0.4296875 l 1
 477.357421875 0.4296875 l 1
 385.854492188 688.9296875 l 1
 334.352539062 688.9296875 l 1
 -75.0537109375 0.4296875 l 1
 -12.8701171875 0.4296875 l 1
 85.380859375 169.75 l 1
112.543945312 217.690429688 m 1
 342.678710938 615.784179688 l 1
 390.103515625 217.690429688 l 1
 112.543945312 217.690429688 l 1
340.975585938 849.0703125 m 1
 278.755859375 849.0703125 l 1
 262.036132812 776.650390625 l 1
 324.255859375 776.650390625 l 1
 340.975585938 849.0703125 l 1
515.395507812 849.0703125 m 1
 453.17578125 849.0703125 l 1
 436.456054688 776.650390625 l 1
 498.67578125 776.650390625 l 1
 515.395507812 849.0703125 l 1
EndSplineSet
EndChar

StartChar: Aring
Encoding: 197 197 134
Width: 577
GlyphClass: 2
Flags: MW
HStem: 846.01 23.46<389.558 413.892>
VStem: 199.736 24.4795 345.596 24.4805
LayerCount: 2
Fore
SplineSet
467.567382812 783.280273438 m 0
 473.448242188 808.752929688 470.033203125 829.000976562 457.58203125 845.19140625 c 0
 445.09765625 861.421875 427.034179688 869.469726562 402.295898438 869.469726562 c 0
 376.8203125 869.469726562 354.912109375 861.38671875 335.353515625 845.245117188 c 0
 315.750976562 829.06640625 303.1171875 808.791992188 297.227539062 783.280273438 c 0
 292.8515625 764.326171875 294.165039062 747.787109375 301.0859375 733.098632812 c 0
 311.405273438 711.202148438 326.859375 705.622070312 341.5078125 700.331054688 c 1
 -75.0478515625 0.4296875 l 1
 -12.8701171875 0.4296875 l 1
 85.380859375 169.75 l 1
 395.104492188 169.75 l 1
 415.173828125 0.4296875 l 1
 477.3515625 0.4296875 l 1
 383.96484375 700.331054688 l 1
 401.046875 705.619140625 419.149414062 711.221679688 440.109375 733.186523438 c 0
 454.123046875 747.873046875 463.202148438 764.374023438 467.567382812 783.280273438 c 0
368.150390625 721.571289062 m 0
 334.643554688 721.571289062 313.275390625 746.758789062 321.70703125 783.280273438 c 0
 330.016601562 819.276367188 362.817382812 846.009765625 396.87890625 846.009765625 c 0
 430.904296875 846.009765625 451.40625 819.318359375 443.086914062 783.28125 c 0
 434.654296875 746.755859375 401.651367188 721.571289062 368.150390625 721.571289062 c 0
112.543945312 217.69140625 m 1
 342.678710938 615.78515625 l 1
 390.103515625 217.69140625 l 1
 112.543945312 217.69140625 l 1
368.5 696.581054688 m 1024
EndSplineSet
EndChar

StartChar: AE
Encoding: 198 198 135
Width: 871
GlyphClass: 2
Flags: W
LayerCount: 2
Fore
SplineSet
554.133789062 636.91015625 m 1
 880.534179688 636.91015625 l 1
 892.543945312 688.9296875 l 1
 460.0234375 688.9296875 l 1
 -73.11328125 0.4296875 l 1
 -9.9697265625 0.4296875 l 1
 124.137695312 174.849609375 l 1
 388.298828125 174.849609375 l 1
 348.03125 0.4296875 l 1
 733.591796875 0.4296875 l 1
 745.6015625 52.4501953125 l 1
 419.201171875 52.4501953125 l 1
 482.075195312 324.790039062 l 1
 756.455078125 324.790039062 l 1
 768.46484375 376.809570312 l 1
 494.084960938 376.809570312 l 1
 554.133789062 636.91015625 l 1
399.3671875 222.790039062 m 1
 161.625 222.790039062 l 1
 500.895507812 662.557617188 l 1
 399.3671875 222.790039062 l 1
EndSplineSet
EndChar

StartChar: Ccedilla
Encoding: 199 199 136
Width: 611
GlyphClass: 2
Flags: MW
HStem: -7.73145 53.041<209.176 209.176> 646.089 52.0215<346.129 397.278>
VStem: 65.0947 59.1602 249.153 55.7119 478.165 57.1279
LayerCount: 2
Fore
SplineSet
440.133789062 196.270507812 m 1
 417.69921875 105.624023438 341.93359375 45.3095703125 233.442382812 45.3095703125 c 0
 133.435546875 45.3095703125 62.3974609375 93.06640625 98.5869140625 249.8203125 c 2
 140.973632812 433.419921875 l 2
 157.975585938 507.060546875 185.356445312 561.546875 224.842773438 595.692382812 c 0
 264.0390625 629.587890625 313.262695312 646.088867188 371.122070312 646.088867188 c 0
 423.43359375 646.088867188 462.635742188 632.423828125 487.4609375 604.356445312 c 0
 511.513671875 577.163085938 518.559570312 540.303710938 509.111328125 495.129882812 c 1
 568.282226562 495.129882812 l 1
 594.7734375 619.0390625 522.002929688 698.110351562 383.1328125 698.110351562 c 0
 309.125 698.110351562 246.259765625 677.064453125 193.435546875 635.477539062 c 0
 141.166992188 594.329101562 103.771484375 528.52734375 82.5205078125 436.481445312 c 2
 40.369140625 253.901367188 l 2
 19.583984375 163.872070312 25.8125 98.99609375 57.14453125 57.8388671875 c 0
 88.8076171875 16.24609375 139.055664062 -5.7333984375 209.17578125 -7.7314453125 c 2
 219.93359375 -8.037109375 l 1
 130.586914062 -152.568359375 l 1
 186.298828125 -152.568359375 l 1
 269.155273438 -4.51171875 l 1
 296.9296875 -0.0546875 360.853515625 10.7685546875 419.607421875 63.6240234375 c 0
 458.23046875 98.369140625 484.133789062 142.276367188 497.26171875 196.270507812 c 1
 440.133789062 196.270507812 l 1
EndSplineSet
EndChar

StartChar: Egrave
Encoding: 200 200 137
Width: 547
GlyphClass: 2
Flags: W
LayerCount: 2
Fore
SplineSet
202.234375 636.91015625 m 1
 555.154296875 636.91015625 l 1
 567.1640625 688.9296875 l 1
 155.083984375 688.9296875 l 1
 -3.8681640625 0.4296875 l 1
 408.211914062 0.4296875 l 1
 420.221679688 52.4501953125 l 1
 67.3017578125 52.4501953125 l 1
 130.17578125 324.790039062 l 1
 432.095703125 324.790039062 l 1
 444.10546875 376.809570312 l 1
 142.185546875 376.809570312 l 1
 202.234375 636.91015625 l 1
349.638671875 882.73046875 m 1
 285.603515625 882.73046875 l 1
 367.411132812 770.530273438 l 1
 412.596679688 770.530273438 l 1
 349.638671875 882.73046875 l 1
EndSplineSet
EndChar

StartChar: Eacute
Encoding: 201 201 138
Width: 547
GlyphClass: 2
Flags: W
LayerCount: 2
Fore
SplineSet
202.234375 636.91015625 m 1
 555.154296875 636.91015625 l 1
 567.1640625 688.9296875 l 1
 155.083984375 688.9296875 l 1
 -3.8681640625 0.4296875 l 1
 408.211914062 0.4296875 l 1
 420.221679688 52.4501953125 l 1
 67.3017578125 52.4501953125 l 1
 130.17578125 324.790039062 l 1
 432.095703125 324.790039062 l 1
 444.10546875 376.809570312 l 1
 142.185546875 376.809570312 l 1
 202.234375 636.91015625 l 1
488.390625 882.73046875 m 1
 424.35546875 882.73046875 l 1
 309.588867188 770.530273438 l 1
 354.774414062 770.530273438 l 1
 488.390625 882.73046875 l 1
EndSplineSet
EndChar

StartChar: Ecircumflex
Encoding: 202 202 139
Width: 547
GlyphClass: 2
Flags: W
LayerCount: 2
Fore
SplineSet
202.234375 636.91015625 m 1
 555.154296875 636.91015625 l 1
 567.1640625 688.9296875 l 1
 155.083984375 688.9296875 l 1
 -3.8681640625 0.4296875 l 1
 408.211914062 0.4296875 l 1
 420.221679688 52.4501953125 l 1
 67.3017578125 52.4501953125 l 1
 130.17578125 324.790039062 l 1
 432.095703125 324.790039062 l 1
 444.10546875 376.809570312 l 1
 142.185546875 376.809570312 l 1
 202.234375 636.91015625 l 1
421.991210938 891.91015625 m 1
 373.581054688 891.91015625 l 1
 245.432617188 760.330078125 l 1
 289.690429688 760.330078125 l 1
 391.475585938 862.188476562 l 1
 445.158203125 760.330078125 l 1
 489.383789062 760.330078125 l 1
 421.991210938 891.91015625 l 1
EndSplineSet
EndChar

StartChar: Edieresis
Encoding: 203 203 140
Width: 547
GlyphClass: 2
Flags: W
LayerCount: 2
Fore
SplineSet
202.234375 636.91015625 m 1
 555.154296875 636.91015625 l 1
 567.1640625 688.9296875 l 1
 155.083984375 688.9296875 l 1
 -3.8681640625 0.4296875 l 1
 408.211914062 0.4296875 l 1
 420.221679688 52.4501953125 l 1
 67.3017578125 52.4501953125 l 1
 130.17578125 324.790039062 l 1
 432.095703125 324.790039062 l 1
 444.10546875 376.809570312 l 1
 142.185546875 376.809570312 l 1
 202.234375 636.91015625 l 1
331.795898438 849.0703125 m 1
 269.575195312 849.0703125 l 1
 252.85546875 776.650390625 l 1
 315.076171875 776.650390625 l 1
 331.795898438 849.0703125 l 1
506.215820312 849.0703125 m 1
 443.995117188 849.0703125 l 1
 427.275390625 776.650390625 l 1
 489.49609375 776.650390625 l 1
 506.215820312 849.0703125 l 1
EndSplineSet
EndChar

StartChar: Igrave
Encoding: 204 204 141
Width: 244
GlyphClass: 2
Flags: W
LayerCount: 2
Fore
SplineSet
222.404296875 688.9296875 m 1
 163.244140625 688.9296875 l 1
 4.2919921875 0.4296875 l 1
 63.4521484375 0.4296875 l 1
 222.404296875 688.9296875 l 1
191.5390625 882.73046875 m 1
 127.50390625 882.73046875 l 1
 209.311523438 770.530273438 l 1
 254.497070312 770.530273438 l 1
 191.5390625 882.73046875 l 1
EndSplineSet
EndChar

StartChar: Iacute
Encoding: 205 205 142
Width: 244
GlyphClass: 2
Flags: W
LayerCount: 2
Fore
SplineSet
222.404296875 688.9296875 m 1
 163.244140625 688.9296875 l 1
 4.2919921875 0.4296875 l 1
 63.4521484375 0.4296875 l 1
 222.404296875 688.9296875 l 1
330.290039062 882.73046875 m 1
 266.255859375 882.73046875 l 1
 151.48828125 770.530273438 l 1
 196.673828125 770.530273438 l 1
 330.290039062 882.73046875 l 1
EndSplineSet
EndChar

StartChar: Icircumflex
Encoding: 206 206 143
Width: 244
GlyphClass: 2
Flags: W
LayerCount: 2
Fore
SplineSet
222.404296875 688.9296875 m 1
 163.244140625 688.9296875 l 1
 4.2919921875 0.4296875 l 1
 63.4521484375 0.4296875 l 1
 222.404296875 688.9296875 l 1
263.890625 891.91015625 m 1
 215.481445312 891.91015625 l 1
 87.33203125 760.330078125 l 1
 131.58984375 760.330078125 l 1
 233.375976562 862.188476562 l 1
 287.057617188 760.330078125 l 1
 331.284179688 760.330078125 l 1
 263.890625 891.91015625 l 1
EndSplineSet
EndChar

StartChar: Idieresis
Encoding: 207 207 144
Width: 244
GlyphClass: 2
Flags: W
LayerCount: 2
Fore
SplineSet
222.404296875 688.9296875 m 1
 163.244140625 688.9296875 l 1
 4.2919921875 0.4296875 l 1
 63.4521484375 0.4296875 l 1
 222.404296875 688.9296875 l 1
173.6953125 849.0703125 m 1
 111.475585938 849.0703125 l 1
 94.755859375 776.650390625 l 1
 156.975585938 776.650390625 l 1
 173.6953125 849.0703125 l 1
348.115234375 849.0703125 m 1
 285.895507812 849.0703125 l 1
 269.17578125 776.650390625 l 1
 331.395507812 776.650390625 l 1
 348.115234375 849.0703125 l 1
EndSplineSet
EndChar

StartChar: Eth
Encoding: 208 208 145
Width: 671
GlyphClass: 2
Flags: MW
HStem: 0.429688 52.0195<117.281 278.162 278.162 291.191 117.281 314.819> 636.909 52.0205<252.214 426.124 426.124 437.114 204.044 453.764>
VStem: 537.355 60.1807
LayerCount: 2
Fore
SplineSet
437.114257812 688.9296875 m 2
 204.043945312 688.9296875 l 1
 131.514648438 374.76953125 l 1
 39.71484375 374.76953125 l 1
 27.705078125 322.75 l 1
 119.504882812 322.75 l 1
 45.091796875 0.4296875 l 1
 278.162109375 0.4296875 l 2
 351.4765625 0.4296875 413.448242188 21.4619140625 465.231445312 63.0009765625 c 0
 516.508789062 104.133789062 553.435546875 169.98046875 574.693359375 262.05859375 c 2
 612.841796875 427.298828125 l 2
 634.100585938 519.376953125 627.578125 585.225585938 595.29296875 626.359375 c 0
 562.689453125 667.8984375 510.428710938 688.9296875 437.114257812 688.9296875 c 2
513.571289062 257.978515625 m 2
 487.525390625 145.1640625 425.3203125 52.44921875 291.19140625 52.44921875 c 2
 117.28125 52.44921875 l 1
 179.684570312 322.749023438 l 1
 322.484375 322.749023438 l 1
 334.494140625 374.768554688 l 1
 191.694335938 374.768554688 l 1
 252.213867188 636.909179688 l 1
 426.124023438 636.909179688 l 2
 481.404296875 636.909179688 521.255859375 619.936523438 543.883789062 585.366210938 c 0
 566.642578125 550.596679688 568.646484375 496.538085938 551.955078125 424.239257812 c 2
 513.571289062 257.978515625 l 2
EndSplineSet
EndChar

StartChar: Ntilde
Encoding: 209 209 146
Width: 665
GlyphClass: 2
Flags: MW
HStem: 768.493 44.8799<471.503 487.763> 807.251 45.9023<374.562 388.407>
LayerCount: 2
Fore
SplineSet
493.891601562 0.4296875 m 1x00
 652.84375 688.9296875 l 1
 593.68359375 688.9296875 l 1
 458.990234375 105.506835938 l 1
 217.723632812 688.9296875 l 1
 155.083984375 688.9296875 l 1
 -3.8681640625 0.4296875 l 1
 55.2919921875 0.4296875 l 1
 190.474609375 585.97265625 l 1
 431.260742188 0.4296875 l 1
 493.891601562 0.4296875 l 1x00
556.671875 842.298828125 m 1
 532.514648438 823.4453125 515.297851562 813.373046875 490.32421875 813.373046875 c 0x80
 445.290039062 813.373046875 432.321289062 853.153320312 385.266601562 853.153320312 c 0
 363.856445312 853.153320312 343.954101562 845.684570312 314.700195312 819.201171875 c 1
 305.375 778.8125 l 1
 327.880859375 796.694335938 346.032226562 807.250976562 372.630859375 807.250976562 c 0x40
 404.182617188 807.250976562 424.481445312 783.8984375 450.10546875 773.0859375 c 0
 457.212890625 770.0859375 466.102539062 768.493164062 476.903320312 768.493164062 c 0x80
 498.622070312 768.493164062 521.7890625 778.857421875 547.245117188 801.466796875 c 1
 556.671875 842.298828125 l 1
EndSplineSet
EndChar

StartChar: Ograve
Encoding: 210 210 147
Width: 611
GlyphClass: 2
Flags: MW
HStem: -7.73047 53.041<200.784 252.405> 646.092 52.0176<343.417 416.382 343.417 416.54>
VStem: 65.0967 59.1602 478.197 59.1582
LayerCount: 2
Fore
SplineSet
216.09765625 -7.73046875 m 0
 288.712890625 -7.73046875 350.528320312 13.287109375 402.68359375 54.861328125 c 0
 454.290039062 95.9990234375 491.373046875 161.831054688 512.62890625 253.899414062 c 2
 554.78125 436.478515625 l 2
 576.0390625 528.557617188 569.516601562 594.404296875 537.232421875 635.538085938 c 0
 504.6171875 677.091796875 452.690429688 698.109375 380.073242188 698.109375 c 0
 306.759765625 698.109375 244.604492188 677.077148438 192.467773438 635.517578125 c 0
 140.861328125 594.379882812 103.778320312 528.547851562 82.5224609375 436.48046875 c 2
 40.3701171875 253.900390625 l 2
 19.1123046875 161.821289062 25.6337890625 95.9736328125 57.9189453125 54.8408203125 c 0
 90.5224609375 13.3017578125 142.783203125 -7.73046875 216.09765625 -7.73046875 c 0
368.065429688 646.091796875 m 0
 465.014648438 646.091796875 532.48828125 596.161132812 494.916992188 433.421875 c 2
 452.529296875 249.821289062 l 2
 426.62109375 137.599609375 364.295898438 45.310546875 229.364257812 45.310546875 c 0
 172.204101562 45.310546875 131.189453125 61.4541015625 108.155273438 94.6923828125 c 0
 85.0048828125 128.096679688 82.5166015625 180.204101562 98.5888671875 249.821289062 c 2
 140.9765625 433.420898438 l 2
 157.817382812 506.368164062 184.619140625 560.58984375 223.05078125 595.055664062 c 0
 261.352539062 629.405273438 310.198242188 646.091796875 368.065429688 646.091796875 c 0
375.139648438 882.732421875 m 1
 311.104492188 882.732421875 l 1
 392.913085938 770.532226562 l 1
 438.098632812 770.532226562 l 1
 375.139648438 882.732421875 l 1
EndSplineSet
EndChar

StartChar: Oacute
Encoding: 211 211 148
Width: 611
GlyphClass: 2
Flags: MW
HStem: -7.73047 53.041<200.784 252.405> 646.092 52.0176<343.417 416.382 343.417 416.54>
VStem: 65.0967 59.1602 478.197 59.1582
LayerCount: 2
Fore
SplineSet
216.09765625 -7.73046875 m 0
 288.712890625 -7.73046875 350.528320312 13.287109375 402.68359375 54.861328125 c 0
 454.290039062 95.9990234375 491.373046875 161.831054688 512.62890625 253.899414062 c 2
 554.78125 436.478515625 l 2
 576.0390625 528.557617188 569.516601562 594.404296875 537.232421875 635.538085938 c 0
 504.6171875 677.091796875 452.690429688 698.109375 380.073242188 698.109375 c 0
 306.759765625 698.109375 244.604492188 677.077148438 192.467773438 635.517578125 c 0
 140.861328125 594.379882812 103.778320312 528.547851562 82.5224609375 436.48046875 c 2
 40.3701171875 253.900390625 l 2
 19.1123046875 161.821289062 25.6337890625 95.9736328125 57.9189453125 54.8408203125 c 0
 90.5224609375 13.3017578125 142.783203125 -7.73046875 216.09765625 -7.73046875 c 0
368.065429688 646.091796875 m 0
 465.014648438 646.091796875 532.48828125 596.161132812 494.916992188 433.421875 c 2
 452.529296875 249.821289062 l 2
 426.62109375 137.599609375 364.295898438 45.310546875 229.364257812 45.310546875 c 0
 172.204101562 45.310546875 131.189453125 61.4541015625 108.155273438 94.6923828125 c 0
 85.0048828125 128.096679688 82.5166015625 180.204101562 98.5888671875 249.821289062 c 2
 140.9765625 433.420898438 l 2
 157.817382812 506.368164062 184.619140625 560.58984375 223.05078125 595.055664062 c 0
 261.352539062 629.405273438 310.198242188 646.091796875 368.065429688 646.091796875 c 0
513.891601562 882.732421875 m 1
 449.856445312 882.732421875 l 1
 335.090820312 770.532226562 l 1
 380.276367188 770.532226562 l 1
 513.891601562 882.732421875 l 1
EndSplineSet
EndChar

StartChar: Ocircumflex
Encoding: 212 212 149
Width: 611
GlyphClass: 2
Flags: MW
HStem: -7.73047 53.041<200.784 252.405> 646.092 52.0176<343.417 416.382 343.417 416.54>
VStem: 65.0967 59.1602 478.197 59.1582
LayerCount: 2
Fore
SplineSet
216.09765625 -7.73046875 m 0
 288.712890625 -7.73046875 350.528320312 13.287109375 402.68359375 54.861328125 c 0
 454.290039062 95.9990234375 491.373046875 161.831054688 512.62890625 253.899414062 c 2
 554.78125 436.478515625 l 2
 576.0390625 528.557617188 569.516601562 594.404296875 537.232421875 635.538085938 c 0
 504.6171875 677.091796875 452.690429688 698.109375 380.073242188 698.109375 c 0
 306.759765625 698.109375 244.604492188 677.077148438 192.467773438 635.517578125 c 0
 140.861328125 594.379882812 103.778320312 528.547851562 82.5224609375 436.48046875 c 2
 40.3701171875 253.900390625 l 2
 19.1123046875 161.821289062 25.6337890625 95.9736328125 57.9189453125 54.8408203125 c 0
 90.5224609375 13.3017578125 142.783203125 -7.73046875 216.09765625 -7.73046875 c 0
368.065429688 646.091796875 m 0
 465.014648438 646.091796875 532.48828125 596.161132812 494.916992188 433.421875 c 2
 452.529296875 249.821289062 l 2
 426.62109375 137.599609375 364.295898438 45.310546875 229.364257812 45.310546875 c 0
 172.204101562 45.310546875 131.189453125 61.4541015625 108.155273438 94.6923828125 c 0
 85.0048828125 128.096679688 82.5166015625 180.204101562 98.5888671875 249.821289062 c 2
 140.9765625 433.420898438 l 2
 157.817382812 506.368164062 184.619140625 560.58984375 223.05078125 595.055664062 c 0
 261.352539062 629.405273438 310.198242188 646.091796875 368.065429688 646.091796875 c 0
447.4921875 891.912109375 m 1
 399.08203125 891.912109375 l 1
 270.93359375 760.33203125 l 1
 315.19140625 760.33203125 l 1
 416.977539062 862.190429688 l 1
 470.659179688 760.33203125 l 1
 514.885742188 760.33203125 l 1
 447.4921875 891.912109375 l 1
EndSplineSet
EndChar

StartChar: Otilde
Encoding: 213 213 150
Width: 611
GlyphClass: 2
Flags: MW
HStem: -7.73047 53.041<200.784 252.405> 646.092 52.0176<343.417 416.382 343.417 416.54> 768.495 44.8799<444.983 461.244> 807.253 45.9023<348.044 361.888>
VStem: 65.0967 59.1602 478.197 59.1582
LayerCount: 2
Fore
SplineSet
216.09765625 -7.73046875 m 0xcc
 288.712890625 -7.73046875 350.528320312 13.287109375 402.68359375 54.861328125 c 0
 454.290039062 95.9990234375 491.373046875 161.831054688 512.62890625 253.899414062 c 2
 554.78125 436.478515625 l 2
 576.0390625 528.557617188 569.516601562 594.404296875 537.232421875 635.538085938 c 0
 504.6171875 677.091796875 452.690429688 698.109375 380.073242188 698.109375 c 0
 306.759765625 698.109375 244.604492188 677.077148438 192.467773438 635.517578125 c 0
 140.861328125 594.379882812 103.778320312 528.547851562 82.5224609375 436.48046875 c 2
 40.3701171875 253.900390625 l 2
 19.1123046875 161.821289062 25.6337890625 95.9736328125 57.9189453125 54.8408203125 c 0
 90.5224609375 13.3017578125 142.783203125 -7.73046875 216.09765625 -7.73046875 c 0xcc
368.065429688 646.091796875 m 0
 465.014648438 646.091796875 532.48828125 596.161132812 494.916992188 433.421875 c 2
 452.529296875 249.821289062 l 2
 426.62109375 137.599609375 364.295898438 45.310546875 229.364257812 45.310546875 c 0
 172.204101562 45.310546875 131.189453125 61.4541015625 108.155273438 94.6923828125 c 0
 85.0048828125 128.096679688 82.5166015625 180.204101562 98.5888671875 249.821289062 c 2
 140.9765625 433.420898438 l 2
 157.817382812 506.368164062 184.619140625 560.58984375 223.05078125 595.055664062 c 0
 261.352539062 629.405273438 310.198242188 646.091796875 368.065429688 646.091796875 c 0
530.154296875 842.30078125 m 1
 505.99609375 823.447265625 488.778320312 813.375 463.805664062 813.375 c 0xec
 418.771484375 813.375 405.803710938 853.155273438 358.749023438 853.155273438 c 0
 337.338867188 853.155273438 317.435546875 845.686523438 288.180664062 819.203125 c 1
 278.856445312 778.814453125 l 1
 301.362304688 796.696289062 319.513671875 807.252929688 346.112304688 807.252929688 c 0xdc
 377.6640625 807.252929688 397.962890625 783.900390625 423.5859375 773.087890625 c 0
 430.694335938 770.087890625 439.583007812 768.495117188 450.383789062 768.495117188 c 0xec
 472.103515625 768.495117188 495.270507812 778.860351562 520.727539062 801.46875 c 1
 530.154296875 842.30078125 l 1
EndSplineSet
EndChar

StartChar: Odieresis
Encoding: 214 214 151
Width: 611
GlyphClass: 2
Flags: MW
HStem: -7.73047 53.041<200.784 252.405> 646.092 52.0176<343.417 416.382 343.417 416.54>
VStem: 65.0967 59.1602 478.197 59.1582
LayerCount: 2
Fore
SplineSet
216.09765625 -7.73046875 m 0
 288.712890625 -7.73046875 350.528320312 13.287109375 402.68359375 54.861328125 c 0
 454.290039062 95.9990234375 491.373046875 161.831054688 512.62890625 253.899414062 c 2
 554.78125 436.478515625 l 2
 576.0390625 528.557617188 569.516601562 594.404296875 537.232421875 635.538085938 c 0
 504.6171875 677.091796875 452.690429688 698.109375 380.073242188 698.109375 c 0
 306.759765625 698.109375 244.604492188 677.077148438 192.467773438 635.517578125 c 0
 140.861328125 594.379882812 103.778320312 528.547851562 82.5224609375 436.48046875 c 2
 40.3701171875 253.900390625 l 2
 19.1123046875 161.821289062 25.6337890625 95.9736328125 57.9189453125 54.8408203125 c 0
 90.5224609375 13.3017578125 142.783203125 -7.73046875 216.09765625 -7.73046875 c 0
368.065429688 646.091796875 m 0
 465.014648438 646.091796875 532.48828125 596.161132812 494.916992188 433.421875 c 2
 452.529296875 249.821289062 l 2
 426.62109375 137.599609375 364.295898438 45.310546875 229.364257812 45.310546875 c 0
 172.204101562 45.310546875 131.189453125 61.4541015625 108.155273438 94.6923828125 c 0
 85.0048828125 128.096679688 82.5166015625 180.204101562 98.5888671875 249.821289062 c 2
 140.9765625 433.420898438 l 2
 157.817382812 506.368164062 184.619140625 560.58984375 223.05078125 595.055664062 c 0
 261.352539062 629.405273438 310.198242188 646.091796875 368.065429688 646.091796875 c 0
357.296875 849.072265625 m 1
 295.076171875 849.072265625 l 1
 278.357421875 776.65234375 l 1
 340.578125 776.65234375 l 1
 357.296875 849.072265625 l 1
531.716796875 849.072265625 m 1
 469.49609375 849.072265625 l 1
 452.77734375 776.65234375 l 1
 514.998046875 776.65234375 l 1
 531.716796875 849.072265625 l 1
EndSplineSet
EndChar

StartChar: multiply
Encoding: 215 215 152
Width: 511
GlyphClass: 2
Flags: W
LayerCount: 2
Fore
SplineSet
100.90625 400.780273438 m 1
 197.383789062 275.341796875 l 1
 42.724609375 148.862304688 l 1
 68.9404296875 114.776367188 l 1
 223.365234375 240.236328125 l 1
 319.907226562 114.715820312 l 1
 362.788085938 148.922851562 l 1
 266.575195312 275.341796875 l 1
 420.8984375 400.71875 l 1
 393.828125 434.903320312 l 1
 239.329101562 309.383789062 l 1
 142.833984375 434.84375 l 1
 100.90625 400.780273438 l 1
EndSplineSet
EndChar

StartChar: Oslash
Encoding: 216 216 153
Width: 611
GlyphClass: 2
Flags: MW
HStem: -7.72949 53.04<203.26 252.405> 646.091 52.0195<343.417 393.552>
VStem: 65.0957 59.1602 478.196 59.1592
LayerCount: 2
Fore
SplineSet
380.073242188 698.110351562 m 0
 306.759765625 698.110351562 244.603515625 677.078125 192.466796875 635.518554688 c 0
 140.860351562 594.380859375 103.77734375 528.548828125 82.521484375 436.481445312 c 2
 40.3701171875 253.901367188 l 2
 21.7744140625 173.354492188 25.0859375 111.95703125 49.0634765625 68.91015625 c 2
 51.3291015625 64.841796875 l 1
 -17.2529296875 -19.96875 l 1
 24.22265625 -19.96875 l 1
 71.40234375 38.6435546875 l 1
 89.662109375 22.767578125 124.736328125 -7.7294921875 216.09765625 -7.7294921875 c 0
 288.712890625 -7.7294921875 350.529296875 13.2880859375 402.68359375 54.8623046875 c 0
 454.290039062 96 491.374023438 161.83203125 512.62890625 253.900390625 c 2
 554.78125 436.48046875 l 2
 582.186523438 555.18359375 554.6640625 604.6328125 543.586914062 624.51953125 c 1
 612.168945312 709.330078125 l 1
 570.651367188 709.330078125 l 1
 523.702148438 651.77734375 l 1
 505.494140625 667.609375 470.416015625 698.110351562 380.073242188 698.110351562 c 0
98.587890625 249.8203125 m 2
 140.974609375 433.419921875 l 2
 157.81640625 506.3671875 184.6171875 560.588867188 223.048828125 595.0546875 c 0
 261.3515625 629.404296875 310.197265625 646.090820312 368.064453125 646.090820312 c 0
 419.040039062 646.090820312 456.517578125 632.397460938 478.977539062 604.137695312 c 2
 482.26953125 599.99609375 l 1
 95.951171875 119.990234375 l 1
 89.3671875 148.098632812 82.18359375 178.767578125 98.587890625 249.8203125 c 2
452.528320312 249.821289062 m 2
 426.620117188 137.599609375 364.294921875 45.310546875 229.36328125 45.310546875 c 0
 177.15625 45.310546875 138.903320312 58.208984375 116.053710938 85.0849609375 c 2
 112.530273438 89.228515625 l 1
 498.952148438 568.607421875 l 1
 505.158203125 539.547851562 512.010742188 507.465820312 494.916015625 433.420898438 c 2
 452.528320312 249.821289062 l 2
EndSplineSet
EndChar

StartChar: Ugrave
Encoding: 217 217 154
Width: 636
GlyphClass: 2
Flags: MW
HStem: -5.69043 51<215.293 267.588 215.293 297.031>
VStem: 79.376 60.1797 489.416 59.1602
LayerCount: 2
Fore
SplineSet
47.349609375 222.280273438 m 2
 17.021484375 90.9150390625 89.75 -5.6904296875 229.829101562 -5.6904296875 c 0
 364.232421875 -5.6904296875 484.630859375 84.0244140625 516.549804688 222.280273438 c 2
 624.284179688 688.9296875 l 1
 565.124023438 688.9296875 l 1
 458.802734375 228.400390625 l 2
 446.0625 173.216796875 419.869140625 128.361328125 379.967773438 95.0712890625 c 0
 340.116210938 61.8232421875 293.573242188 45.3095703125 241.603515625 45.3095703125 c 0
 188.982421875 45.3095703125 149.86328125 61.8017578125 125.681640625 95.1025390625 c 0
 101.504882812 128.397460938 96.20703125 173.236328125 108.942382812 228.400390625 c 2
 215.263671875 688.9296875 l 1
 155.083984375 688.9296875 l 1
 47.349609375 222.280273438 l 2
387.37890625 882.731445312 m 1
 323.34375 882.731445312 l 1
 405.15234375 770.53125 l 1
 450.337890625 770.53125 l 1
 387.37890625 882.731445312 l 1
EndSplineSet
EndChar

StartChar: Uacute
Encoding: 218 218 155
Width: 636
GlyphClass: 2
Flags: MW
HStem: -5.69043 51<215.293 267.588 215.293 297.031>
VStem: 79.376 60.1797 489.416 59.1602
LayerCount: 2
Fore
SplineSet
47.349609375 222.280273438 m 2
 17.021484375 90.9150390625 89.75 -5.6904296875 229.829101562 -5.6904296875 c 0
 364.232421875 -5.6904296875 484.630859375 84.0244140625 516.549804688 222.280273438 c 2
 624.284179688 688.9296875 l 1
 565.124023438 688.9296875 l 1
 458.802734375 228.400390625 l 2
 446.0625 173.216796875 419.869140625 128.361328125 379.967773438 95.0712890625 c 0
 340.116210938 61.8232421875 293.573242188 45.3095703125 241.603515625 45.3095703125 c 0
 188.982421875 45.3095703125 149.86328125 61.8017578125 125.681640625 95.1025390625 c 0
 101.504882812 128.397460938 96.20703125 173.236328125 108.942382812 228.400390625 c 2
 215.263671875 688.9296875 l 1
 155.083984375 688.9296875 l 1
 47.349609375 222.280273438 l 2
526.130859375 882.731445312 m 1
 462.095703125 882.731445312 l 1
 347.330078125 770.53125 l 1
 392.515625 770.53125 l 1
 526.130859375 882.731445312 l 1
EndSplineSet
EndChar

StartChar: Ucircumflex
Encoding: 219 219 156
Width: 636
GlyphClass: 2
Flags: MW
HStem: -5.69043 51<215.293 267.588 215.293 297.031>
VStem: 79.376 60.1797 489.416 59.1602
LayerCount: 2
Fore
SplineSet
47.349609375 222.280273438 m 2
 17.021484375 90.9150390625 89.75 -5.6904296875 229.829101562 -5.6904296875 c 0
 364.232421875 -5.6904296875 484.630859375 84.0244140625 516.549804688 222.280273438 c 2
 624.284179688 688.9296875 l 1
 565.124023438 688.9296875 l 1
 458.802734375 228.400390625 l 2
 446.0625 173.216796875 419.869140625 128.361328125 379.967773438 95.0712890625 c 0
 340.116210938 61.8232421875 293.573242188 45.3095703125 241.603515625 45.3095703125 c 0
 188.982421875 45.3095703125 149.86328125 61.8017578125 125.681640625 95.1025390625 c 0
 101.504882812 128.397460938 96.20703125 173.236328125 108.942382812 228.400390625 c 2
 215.263671875 688.9296875 l 1
 155.083984375 688.9296875 l 1
 47.349609375 222.280273438 l 2
459.73046875 891.911132812 m 1
 411.321289062 891.911132812 l 1
 283.171875 760.331054688 l 1
 327.430664062 760.331054688 l 1
 429.215820312 862.189453125 l 1
 482.8984375 760.331054688 l 1
 527.124023438 760.331054688 l 1
 459.73046875 891.911132812 l 1
EndSplineSet
EndChar

StartChar: Udieresis
Encoding: 220 220 157
Width: 636
GlyphClass: 2
Flags: MW
HStem: -5.69043 51<215.293 267.588 215.293 297.031>
VStem: 79.376 60.1797 489.416 59.1602
LayerCount: 2
Fore
SplineSet
47.349609375 222.280273438 m 2
 17.021484375 90.9150390625 89.75 -5.6904296875 229.829101562 -5.6904296875 c 0
 364.232421875 -5.6904296875 484.630859375 84.0244140625 516.549804688 222.280273438 c 2
 624.284179688 688.9296875 l 1
 565.124023438 688.9296875 l 1
 458.802734375 228.400390625 l 2
 446.0625 173.216796875 419.869140625 128.361328125 379.967773438 95.0712890625 c 0
 340.116210938 61.8232421875 293.573242188 45.3095703125 241.603515625 45.3095703125 c 0
 188.982421875 45.3095703125 149.86328125 61.8017578125 125.681640625 95.1025390625 c 0
 101.504882812 128.397460938 96.20703125 173.236328125 108.942382812 228.400390625 c 2
 215.263671875 688.9296875 l 1
 155.083984375 688.9296875 l 1
 47.349609375 222.280273438 l 2
369.53515625 849.071289062 m 1
 307.315429688 849.071289062 l 1
 290.596679688 776.651367188 l 1
 352.81640625 776.651367188 l 1
 369.53515625 849.071289062 l 1
543.955078125 849.071289062 m 1
 481.735351562 849.071289062 l 1
 465.016601562 776.651367188 l 1
 527.236328125 776.651367188 l 1
 543.955078125 849.071289062 l 1
EndSplineSet
EndChar

StartChar: Yacute
Encoding: 221 221 158
Width: 498
GlyphClass: 2
Flags: W
LayerCount: 2
Fore
SplineSet
257.668945312 289.411132812 m 1
 555.142578125 688.9296875 l 1
 491.841796875 688.9296875 l 1
 239.625 341.684570312 l 1
 148.79296875 688.9296875 l 1
 85.51953125 688.9296875 l 1
 198.745117188 290.435546875 l 1
 131.791992188 0.4296875 l 1
 190.952148438 0.4296875 l 1
 257.668945312 289.411132812 l 1
457.790039062 882.73046875 m 1
 393.755859375 882.73046875 l 1
 278.98828125 770.530273438 l 1
 324.173828125 770.530273438 l 1
 457.790039062 882.73046875 l 1
EndSplineSet
EndChar

StartChar: Thorn
Encoding: 222 222 159
Width: 577
GlyphClass: 2
Flags: MW
HStem: 162.61 52.0195<104.744 268.685 268.685 274.574 104.744 302.013> 509.41 51<184.573 342.629 342.629 360.523 184.573 377.347>
VStem: 469.016 59.1602
LayerCount: 2
Fore
SplineSet
360.5234375 560.41015625 m 2
 184.573242188 560.41015625 l 1
 214.244140625 688.9296875 l 1
 155.083984375 688.9296875 l 1
 -3.8681640625 0.4296875 l 1
 55.2919921875 0.4296875 l 1
 92.734375 162.610351562 l 1
 268.684570312 162.610351562 l 2
 335.341796875 162.610351562 391.209960938 180.198242188 437.244140625 214.690429688 c 0
 483.166015625 249.09765625 513.248046875 296.341796875 527.46875 357.940429688 c 0
 542.666992188 423.768554688 534.947265625 473.22265625 505.387695312 507.866210938 c 0
 475.709960938 542.6484375 427.866210938 560.41015625 360.5234375 560.41015625 c 2
342.62890625 509.41015625 m 2
 412.065429688 509.41015625 497.6875 485.192382812 468.30859375 357.940429688 c 0
 457.456054688 310.9296875 435.184570312 274.353515625 400.91796875 250.09765625 c 0
 367.00390625 226.090820312 324.6484375 214.629882812 274.57421875 214.629882812 c 2
 104.744140625 214.629882812 l 1
 172.798828125 509.41015625 l 1
 342.62890625 509.41015625 l 2
EndSplineSet
EndChar

StartChar: germandbls
Encoding: 223 223 160
Width: 504
GlyphClass: 2
Flags: MW
HStem: -3.65039 47.9404<180.678 183.823 180.678 191.539 180.678 236.112> 401.291 47.9404<273.144 275.847 275.847 293.034 273.144 295.874> 648.131 47.9404<298.235 350.217>
VStem: 74.2744 54.0605 374.155 55.0811 382.314 55.0811
LayerCount: 2
Fore
SplineSet
417.013671875 546.640625 m 0xf8
 398.616210938 466.953125 347.366210938 449.231445312 293.034179688 449.231445312 c 2
 273.143554688 449.231445312 l 1
 262.076171875 401.291015625 l 1
 275.846679688 401.291015625 l 2
 315.900390625 401.291015625 371.612304688 395.372070312 368.028320312 326.146484375 c 0
 366.805664062 302.5390625 360.864257812 268.087890625 350.288085938 222.28125 c 0
 339.400390625 175.118164062 329.328125 140.17578125 319.708007812 116.866210938 c 0
 293.322265625 52.9296875 243.829101562 44.291015625 199.546875 44.291015625 c 0
 193.256835938 44.291015625 186.967773438 44.2900390625 180.677734375 44.2900390625 c 1
 169.609375 -3.650390625 l 1
 191.5390625 -3.650390625 l 2
 280.684570312 -3.650390625 331.040039062 21.5341796875 361.760742188 85.4189453125 c 0
 376.962890625 117.032226562 391.63671875 162.797851562 405.369140625 222.280273438 c 0xf4
 434.474609375 348.34765625 434.50390625 393.416992188 381.287109375 421.388671875 c 2
 368.717773438 427.99609375 l 1
 409.5703125 446.803710938 453.740234375 467.138671875 472.330078125 547.66015625 c 0
 494.294921875 642.798828125 445.139648438 696.071289062 330.643554688 696.071289062 c 0
 265.827148438 696.071289062 217.020507812 679.854492188 182.741210938 649.1796875 c 0
 148.037109375 618.124023438 122.924804688 571.727539062 108.419921875 508.901367188 c 2
 -8.9697265625 0.4306640625 l 1
 45.0908203125 0.4306640625 l 1
 164.599609375 518.081054688 l 2
 183.298828125 599.07421875 226.734375 648.130859375 320.59375 648.130859375 c 0
 379.83984375 648.130859375 436.17578125 629.641601562 417.013671875 546.640625 c 0xf8
EndSplineSet
EndChar

StartChar: agrave
Encoding: 224 224 161
Width: 496
GlyphClass: 2
Flags: MW
HStem: -5.69141 40.8018<127.429 159.774> 243.19 35.6982<194.469 331.658 331.658 331.658> 466.57 42.8398<240.043 271.697>
VStem: 45.7168 54.0596 61.0342 52.0908 358.856 54.0605
LayerCount: 2
Fore
SplineSet
409.1484375 344.6796875 m 2xf4
 426.891601562 421.530273438 414.880859375 509.41015625 267.1484375 509.41015625 c 0
 212.569335938 509.41015625 167.653320312 496.447265625 131.671875 471.390625 c 0
 96.4169921875 446.83984375 74.0400390625 414.767578125 63.9775390625 373.75 c 1
 116.068359375 373.75 l 1xec
 123.55859375 401.5 139.844726562 424.3671875 164.46875 440.936523438 c 0
 190.329101562 458.336914062 221.805664062 466.5703125 258.280273438 466.5703125 c 0
 285.11328125 466.5703125 382.403320312 462.9921875 355.32421875 345.69921875 c 2
 339.899414062 278.888671875 l 1
 192.509765625 278.888671875 l 2
 84.78515625 278.888671875 14.537109375 225.948242188 -5.619140625 138.638671875 c 0
 -16.7255859375 90.5341796875 -10.5341796875 55.30859375 11.8046875 31.2099609375 c 0
 34.298828125 6.9453125 71.53515625 -5.69140625 124.768554688 -5.69140625 c 0
 194.780273438 -5.69140625 239.606445312 16.1962890625 274.8359375 52.4111328125 c 2
 292.926757812 71.0087890625 l 1
 276.6328125 0.4296875 l 1
 329.672851562 0.4296875 l 1
 409.1484375 344.6796875 l 2xf4
314.349609375 168.219726562 m 2
 288.422851562 55.91796875 212.638671875 35.1103515625 145.409179688 35.1103515625 c 0
 109.448242188 35.1103515625 25.890625 40.96484375 48.67578125 139.66015625 c 0xf4
 60.861328125 192.439453125 97.7294921875 243.190429688 194.46875 243.190429688 c 2
 331.658203125 243.190429688 l 1
 314.349609375 168.219726562 l 2
271.866210938 696.071289062 m 1
 207.831054688 696.071289062 l 1
 289.639648438 583.87109375 l 1
 334.825195312 583.87109375 l 1
 271.866210938 696.071289062 l 1
EndSplineSet
EndChar

StartChar: aacute
Encoding: 225 225 162
Width: 496
GlyphClass: 2
Flags: MW
HStem: -5.69141 40.8018<127.429 159.774> 243.19 35.6982<194.469 331.658 331.658 331.658> 466.57 42.8398<240.043 271.697>
VStem: 45.7168 54.0596 61.0342 52.0908 358.856 54.0605
LayerCount: 2
Fore
SplineSet
409.1484375 344.6796875 m 2xf4
 426.891601562 421.530273438 414.880859375 509.41015625 267.1484375 509.41015625 c 0
 212.569335938 509.41015625 167.653320312 496.447265625 131.671875 471.390625 c 0
 96.4169921875 446.83984375 74.0400390625 414.767578125 63.9775390625 373.75 c 1
 116.068359375 373.75 l 1xec
 123.55859375 401.5 139.844726562 424.3671875 164.46875 440.936523438 c 0
 190.329101562 458.336914062 221.805664062 466.5703125 258.280273438 466.5703125 c 0
 285.11328125 466.5703125 382.403320312 462.9921875 355.32421875 345.69921875 c 2
 339.899414062 278.888671875 l 1
 192.509765625 278.888671875 l 2
 84.78515625 278.888671875 14.537109375 225.948242188 -5.619140625 138.638671875 c 0
 -16.7255859375 90.5341796875 -10.5341796875 55.30859375 11.8046875 31.2099609375 c 0
 34.298828125 6.9453125 71.53515625 -5.69140625 124.768554688 -5.69140625 c 0
 194.780273438 -5.69140625 239.606445312 16.1962890625 274.8359375 52.4111328125 c 2
 292.926757812 71.0087890625 l 1
 276.6328125 0.4296875 l 1
 329.672851562 0.4296875 l 1
 409.1484375 344.6796875 l 2xf4
314.349609375 168.219726562 m 2
 288.422851562 55.91796875 212.638671875 35.1103515625 145.409179688 35.1103515625 c 0
 109.448242188 35.1103515625 25.890625 40.96484375 48.67578125 139.66015625 c 0xf4
 60.861328125 192.439453125 97.7294921875 243.190429688 194.46875 243.190429688 c 2
 331.658203125 243.190429688 l 1
 314.349609375 168.219726562 l 2
410.618164062 696.071289062 m 1
 346.583007812 696.071289062 l 1
 231.817382812 583.87109375 l 1
 277.001953125 583.87109375 l 1
 410.618164062 696.071289062 l 1
EndSplineSet
EndChar

StartChar: acircumflex
Encoding: 226 226 163
Width: 496
GlyphClass: 2
Flags: MW
HStem: -5.69141 40.8018<127.429 159.774> 243.19 35.6982<194.469 331.658 331.658 331.658> 466.57 42.8398<240.043 271.697>
VStem: 45.7168 54.0596 61.0342 52.0908 358.856 54.0605
LayerCount: 2
Fore
SplineSet
409.1484375 344.6796875 m 2xf4
 426.891601562 421.530273438 414.880859375 509.41015625 267.1484375 509.41015625 c 0
 212.569335938 509.41015625 167.653320312 496.447265625 131.671875 471.390625 c 0
 96.4169921875 446.83984375 74.0400390625 414.767578125 63.9775390625 373.75 c 1
 116.068359375 373.75 l 1xec
 123.55859375 401.5 139.844726562 424.3671875 164.46875 440.936523438 c 0
 190.329101562 458.336914062 221.805664062 466.5703125 258.280273438 466.5703125 c 0
 285.11328125 466.5703125 382.403320312 462.9921875 355.32421875 345.69921875 c 2
 339.899414062 278.888671875 l 1
 192.509765625 278.888671875 l 2
 84.78515625 278.888671875 14.537109375 225.948242188 -5.619140625 138.638671875 c 0
 -16.7255859375 90.5341796875 -10.5341796875 55.30859375 11.8046875 31.2099609375 c 0
 34.298828125 6.9453125 71.53515625 -5.69140625 124.768554688 -5.69140625 c 0
 194.780273438 -5.69140625 239.606445312 16.1962890625 274.8359375 52.4111328125 c 2
 292.926757812 71.0087890625 l 1
 276.6328125 0.4296875 l 1
 329.672851562 0.4296875 l 1
 409.1484375 344.6796875 l 2xf4
314.349609375 168.219726562 m 2
 288.422851562 55.91796875 212.638671875 35.1103515625 145.409179688 35.1103515625 c 0
 109.448242188 35.1103515625 25.890625 40.96484375 48.67578125 139.66015625 c 0xf4
 60.861328125 192.439453125 97.7294921875 243.190429688 194.46875 243.190429688 c 2
 331.658203125 243.190429688 l 1
 314.349609375 168.219726562 l 2
344.217773438 705.250976562 m 1
 295.80859375 705.250976562 l 1
 167.659179688 573.670898438 l 1
 211.916992188 573.670898438 l 1
 313.703125 675.529296875 l 1
 367.384765625 573.670898438 l 1
 411.611328125 573.670898438 l 1
 344.217773438 705.250976562 l 1
EndSplineSet
EndChar

StartChar: atilde
Encoding: 227 227 164
Width: 496
GlyphClass: 2
Flags: MW
HStem: -5.69141 40.8018<127.429 159.774> 243.19 35.6982<194.469 331.658 331.658 331.658> 466.57 42.8398<240.043 271.697> 581.834 44.8799<341.711 357.971> 620.592 45.9023<244.787 258.597>
VStem: 45.7168 54.0596 61.0342 52.0908 358.856 54.0605
LayerCount: 2
Fore
SplineSet
409.1484375 344.6796875 m 2xe5
 426.891601562 421.530273438 414.880859375 509.41015625 267.1484375 509.41015625 c 0
 212.569335938 509.41015625 167.653320312 496.447265625 131.671875 471.390625 c 0
 96.4169921875 446.83984375 74.0400390625 414.767578125 63.9775390625 373.75 c 1
 116.068359375 373.75 l 1xe3
 123.55859375 401.5 139.844726562 424.3671875 164.46875 440.936523438 c 0
 190.329101562 458.336914062 221.805664062 466.5703125 258.280273438 466.5703125 c 0
 285.11328125 466.5703125 382.403320312 462.9921875 355.32421875 345.69921875 c 2
 339.899414062 278.888671875 l 1
 192.509765625 278.888671875 l 2
 84.78515625 278.888671875 14.537109375 225.948242188 -5.619140625 138.638671875 c 0
 -16.7255859375 90.5341796875 -10.5341796875 55.30859375 11.8046875 31.2099609375 c 0
 34.298828125 6.9453125 71.53515625 -5.69140625 124.768554688 -5.69140625 c 0
 194.780273438 -5.69140625 239.606445312 16.1962890625 274.8359375 52.4111328125 c 2
 292.926757812 71.0087890625 l 1
 276.6328125 0.4296875 l 1
 329.672851562 0.4296875 l 1
 409.1484375 344.6796875 l 2xe5
314.349609375 168.219726562 m 2
 288.422851562 55.91796875 212.638671875 35.1103515625 145.409179688 35.1103515625 c 0
 109.448242188 35.1103515625 25.890625 40.96484375 48.67578125 139.66015625 c 0xe5
 60.861328125 192.439453125 97.7294921875 243.190429688 194.46875 243.190429688 c 2
 331.658203125 243.190429688 l 1
 314.349609375 168.219726562 l 2
426.879882812 655.640625 m 1
 402.724609375 636.7890625 385.509765625 626.713867188 360.532226562 626.713867188 c 0xf1
 315.499023438 626.713867188 302.529296875 666.494140625 255.4765625 666.494140625 c 0
 234.09765625 666.494140625 214.19140625 659.052734375 184.907226562 632.541992188 c 1
 175.583007812 592.153320312 l 1
 198.087890625 610.03515625 216.239257812 620.591796875 242.838867188 620.591796875 c 0xe9
 274.35546875 620.591796875 294.80078125 597.194335938 320.313476562 586.426757812 c 0
 327.420898438 583.426757812 336.310546875 581.833984375 347.111328125 581.833984375 c 0xf1
 368.831054688 581.833984375 391.997070312 592.19921875 417.453125 614.807617188 c 1
 426.879882812 655.640625 l 1
EndSplineSet
EndChar

StartChar: adieresis
Encoding: 228 228 165
Width: 496
GlyphClass: 2
Flags: MW
HStem: -5.69141 40.8018<127.429 159.774> 243.19 35.6982<194.469 331.658 331.658 331.658> 466.57 42.8398<240.043 271.697>
VStem: 45.7168 54.0596 61.0342 52.0908 358.856 54.0605
LayerCount: 2
Fore
SplineSet
409.1484375 344.6796875 m 2xf4
 426.891601562 421.530273438 414.880859375 509.41015625 267.1484375 509.41015625 c 0
 212.569335938 509.41015625 167.653320312 496.447265625 131.671875 471.390625 c 0
 96.4169921875 446.83984375 74.0400390625 414.767578125 63.9775390625 373.75 c 1
 116.068359375 373.75 l 1xec
 123.55859375 401.5 139.844726562 424.3671875 164.46875 440.936523438 c 0
 190.329101562 458.336914062 221.805664062 466.5703125 258.280273438 466.5703125 c 0
 285.11328125 466.5703125 382.403320312 462.9921875 355.32421875 345.69921875 c 2
 339.899414062 278.888671875 l 1
 192.509765625 278.888671875 l 2
 84.78515625 278.888671875 14.537109375 225.948242188 -5.619140625 138.638671875 c 0
 -16.7255859375 90.5341796875 -10.5341796875 55.30859375 11.8046875 31.2099609375 c 0
 34.298828125 6.9453125 71.53515625 -5.69140625 124.768554688 -5.69140625 c 0
 194.780273438 -5.69140625 239.606445312 16.1962890625 274.8359375 52.4111328125 c 2
 292.926757812 71.0087890625 l 1
 276.6328125 0.4296875 l 1
 329.672851562 0.4296875 l 1
 409.1484375 344.6796875 l 2xf4
314.349609375 168.219726562 m 2
 288.422851562 55.91796875 212.638671875 35.1103515625 145.409179688 35.1103515625 c 0
 109.448242188 35.1103515625 25.890625 40.96484375 48.67578125 139.66015625 c 0xf4
 60.861328125 192.439453125 97.7294921875 243.190429688 194.46875 243.190429688 c 2
 331.658203125 243.190429688 l 1
 314.349609375 168.219726562 l 2
254.022460938 662.411132812 m 1
 191.802734375 662.411132812 l 1
 175.083007812 589.991210938 l 1
 237.302734375 589.991210938 l 1
 254.022460938 662.411132812 l 1
428.442382812 662.411132812 m 1
 366.22265625 662.411132812 l 1
 349.502929688 589.991210938 l 1
 411.72265625 589.991210938 l 1
 428.442382812 662.411132812 l 1
EndSplineSet
EndChar

StartChar: aring
Encoding: 229 229 166
Width: 496
GlyphClass: 2
Flags: MW
HStem: -5.69141 40.8018<127.429 159.774> 243.19 35.6982<194.469 331.658 331.658 331.658> 466.57 42.8398<240.043 271.697> 570.611 23.46<278.104 301.809> 718.511 23.46<316.263 340.598>
VStem: 45.7168 54.0596 61.0342 52.0908 155.877 24.4795 301.737 24.4795 358.856 54.0605
LayerCount: 2
Fore
SplineSet
409.1484375 344.6796875 m 2xfdc0
 426.891601562 421.530273438 414.880859375 509.41015625 267.1484375 509.41015625 c 0
 212.569335938 509.41015625 167.653320312 496.447265625 131.671875 471.390625 c 0
 96.4169921875 446.83984375 74.0400390625 414.767578125 63.9775390625 373.75 c 1
 116.068359375 373.75 l 1xfbc0
 123.55859375 401.5 139.844726562 424.3671875 164.46875 440.936523438 c 0
 190.329101562 458.336914062 221.805664062 466.5703125 258.280273438 466.5703125 c 0
 285.11328125 466.5703125 382.403320312 462.9921875 355.32421875 345.69921875 c 2
 339.899414062 278.888671875 l 1
 192.509765625 278.888671875 l 2
 84.78515625 278.888671875 14.537109375 225.948242188 -5.619140625 138.638671875 c 0
 -16.7255859375 90.5341796875 -10.5341796875 55.30859375 11.8046875 31.2099609375 c 0
 34.298828125 6.9453125 71.53515625 -5.69140625 124.768554688 -5.69140625 c 0
 194.780273438 -5.69140625 239.606445312 16.1962890625 274.8359375 52.4111328125 c 2
 292.926757812 71.0087890625 l 1
 276.6328125 0.4296875 l 1
 329.672851562 0.4296875 l 1
 409.1484375 344.6796875 l 2xfdc0
314.349609375 168.219726562 m 2
 288.422851562 55.91796875 212.638671875 35.1103515625 145.409179688 35.1103515625 c 0
 109.448242188 35.1103515625 25.890625 40.96484375 48.67578125 139.66015625 c 0xfdc0
 60.861328125 192.439453125 97.7294921875 243.190429688 194.46875 243.190429688 c 2
 331.658203125 243.190429688 l 1
 314.349609375 168.219726562 l 2
289.439453125 570.611328125 m 0
 314.178710938 570.611328125 335.958007812 578.658203125 355.935546875 594.889648438 c 0
 375.913085938 611.120117188 388.560546875 631.041992188 394.272460938 655.78125 c 0
 400.153320312 681.25390625 396.740234375 701.502929688 384.287109375 717.692382812 c 0
 371.803710938 733.922851562 353.740234375 741.970703125 329.000976562 741.970703125 c 0
 303.525390625 741.970703125 281.6171875 733.887695312 262.05859375 717.74609375 c 0
 242.456054688 701.567382812 229.822265625 681.29296875 223.932617188 655.78125 c 0
 218.211914062 631.001953125 221.51953125 611.0546875 233.682617188 594.8359375 c 0
 245.788085938 578.694335938 263.963867188 570.611328125 289.439453125 570.611328125 c 0
369.79296875 655.782226562 m 0
 361.360351562 619.255859375 328.356445312 594.071289062 294.85546875 594.071289062 c 0
 261.3515625 594.071289062 239.979492188 619.258789062 248.412109375 655.78125 c 0
 256.73046875 691.8125 289.553710938 718.510742188 323.584960938 718.510742188 c 0
 357.610351562 718.510742188 378.112304688 691.819335938 369.79296875 655.782226562 c 0
EndSplineSet
EndChar

StartChar: ae
Encoding: 230 230 167
Width: 802
GlyphClass: 2
Flags: MW
HStem: -5.69141 40.7998<127.43 169.763> 243.188 35.7012<194.47 331.659 331.659 331.659> 466.57 42.8398<240.043 271.697>
VStem: 45.7168 54.0625 61.0342 52.0908 358.858 54.0596 681.179 55.0771
LayerCount: 2
Fore
SplineSet
192.509765625 278.888671875 m 2xee
 84.78515625 278.888671875 14.537109375 225.948242188 -5.619140625 138.638671875 c 0xf6
 -16.5341796875 91.36328125 -9.5869140625 56.3515625 14.375 31.82421875 c 0
 38.5263671875 7.1015625 76.9912109375 -5.69140625 130.889648438 -5.69140625 c 0
 208.63671875 -5.69140625 269.212890625 20.8466796875 315.087890625 73.404296875 c 2
 324.006835938 83.6220703125 l 1
 332.970703125 60.5302734375 343.877929688 32.4306640625 380.75390625 13.505859375 c 0
 405.58984375 0.7607421875 435.783203125 -5.69140625 471.568359375 -5.69140625 c 0
 528.076171875 -5.69140625 574.362304688 8.876953125 611.4140625 37.1513671875 c 0
 647.995117188 65.06640625 671.418945312 100.361328125 682.119140625 144.249023438 c 1
 630.041992188 144.249023438 l 1
 621.900390625 113.303710938 604.86328125 87.9443359375 579.07421875 69.5751953125 c 0
 552.119140625 50.3759765625 519.294921875 41.228515625 481.381835938 41.228515625 c 0
 437.810546875 41.228515625 405.424804688 53.4580078125 385.706054688 78.6220703125 c 0
 365.51953125 104.3828125 363.66796875 147.674804688 377.359375 206.978515625 c 2
 386.190429688 245.23046875 l 1
 709.528320312 245.23046875 l 1
 721.890625 298.780273438 l 2
 738.7421875 371.76953125 733.291992188 424.391601562 707.364257812 458.1015625 c 0
 681.145507812 492.19140625 639.916992188 509.41015625 582.328125 509.41015625 c 0
 514.671875 509.41015625 460.680664062 487.465820312 418.357421875 444.151367188 c 2
 409.985351562 435.583007812 l 1
 405.96875 444.397460938 l 2
 386.4296875 487.272460938 341.16796875 509.41015625 267.1484375 509.41015625 c 0
 212.569335938 509.41015625 167.653320312 496.447265625 131.671875 471.390625 c 0
 96.4169921875 446.83984375 74.0400390625 414.767578125 63.9775390625 373.75 c 1
 116.068359375 373.75 l 1
 123.55859375 401.5 139.844726562 424.3671875 164.46875 440.936523438 c 0
 190.329101562 458.336914062 221.805664062 466.5703125 258.280273438 466.5703125 c 0
 285.11328125 466.5703125 382.403320312 462.9921875 355.32421875 345.69921875 c 2
 339.899414062 278.888671875 l 1
 192.509765625 278.888671875 l 2xee
571.26171875 461.46875 m 0
 612.09765625 461.46875 642.473632812 450.103515625 660.896484375 426.629882812 c 0
 679.764648438 402.586914062 681.529296875 362.521484375 668.932617188 307.958984375 c 2
 662.927734375 281.94921875 l 1
 394.66796875 281.94921875 l 1
 399.025390625 300.819335938 l 2
 412.248046875 358.09375 433.4453125 400.028320312 464.677734375 425.09765625 c 0
 495.067382812 449.491210938 530.981445312 461.46875 571.26171875 461.46875 c 0
48.6787109375 139.658203125 m 0
 60.86328125 192.4375 97.73046875 243.1875 194.469726562 243.1875 c 2
 331.659179688 243.1875 l 1
 315.528320312 173.318359375 l 2
 298.75390625 100.658203125 253.630859375 35.1083984375 145.41015625 35.1083984375 c 0
 109.44921875 35.1083984375 25.892578125 40.962890625 48.6787109375 139.658203125 c 0
EndSplineSet
EndChar

StartChar: ccedilla
Encoding: 231 231 168
Width: 502
GlyphClass: 2
Flags: MW
HStem: -5.69434 46.9248<155.638 199.125> 461.469 47.9414<255.737 314.42 255.62 315.412>
VStem: 57.9561 54.0586 383.315 52.0107
LayerCount: 2
Fore
SplineSet
277.498046875 461.46875 m 0
 353.326171875 461.46875 396.194335938 421.6796875 380.135742188 347.23046875 c 1
 432.163085938 347.23046875 l 1
 443.024414062 396.630859375 435.571289062 435.262695312 410.23828125 464.483398438 c 0
 384.477539062 494.198242188 343.33203125 509.41015625 285.508789062 509.41015625 c 0
 225.731445312 509.41015625 175.260742188 492.909179688 133.061523438 460.470703125 c 0
 91.44921875 428.483398438 61.693359375 377.1875 45.00390625 304.900390625 c 2
 20.513671875 198.8203125 l 2
 4.2861328125 128.530273438 9.4150390625 78.1181640625 34.01953125 46.1279296875 c 0
 58.939453125 13.728515625 99.044921875 -3.7041015625 155.637695312 -5.6943359375 c 2
 166.31640625 -6.0703125 l 1
 75.5224609375 -152.5703125 l 1
 131.21875 -152.5703125 l 1
 215.697265625 -1.6416015625 l 1
 236.456054688 2.447265625 284.809570312 11.9716796875 329.572265625 54.2626953125 c 0
 358.455078125 81.5498046875 377.889648438 115.022460938 387.875976562 155.469726562 c 1
 335.865234375 155.469726562 l 1
 327.221679688 120.3359375 309.056640625 91.8984375 281.284179688 71.681640625 c 0
 253.015625 51.103515625 218.7890625 41.23046875 179.459960938 41.23046875 c 0
 135.940429688 41.23046875 103.657226562 53.072265625 84.0908203125 77.5625 c 0
 64.05078125 102.643554688 62.1357421875 144.950195312 75.5146484375 202.900390625 c 2
 98.12109375 300.8203125 l 2
 111.350585938 358.125 132.9375 400.125 164.893554688 425.17578125 c 0
 196.081054688 449.624023438 233.975585938 461.46875 277.498046875 461.46875 c 0
EndSplineSet
EndChar

StartChar: egrave
Encoding: 232 232 169
Width: 502
GlyphClass: 2
Flags: MW
HStem: -5.69043 46.9209<158.694 193.512> 461.47 47.9404<252.635 290.781>
VStem: 57.9561 54.0596 381.296 54.0596
LayerCount: 2
Fore
SplineSet
76.45703125 206.98046875 m 2
 85.2880859375 245.23046875 l 1
 408.627929688 245.23046875 l 1
 420.990234375 298.780273438 l 2
 437.841796875 371.76953125 432.392578125 424.391601562 406.46484375 458.1015625 c 0
 380.24609375 492.19140625 339.016601562 509.41015625 281.428710938 509.41015625 c 0
 223.841796875 509.41015625 174.474609375 492.190429688 132.159179688 458.076171875 c 0
 90.33984375 424.360351562 60.439453125 371.755859375 43.5908203125 298.780273438 c 2
 22.8681640625 209.01953125 l 2
 5.5390625 133.958007812 10.9150390625 80.1474609375 37.080078125 46.1279296875 c 0
 63.5439453125 11.720703125 105.572265625 -5.6904296875 164.547851562 -5.6904296875 c 0
 222.4765625 -5.6904296875 270.16796875 8.5908203125 308.458007812 36.296875 c 0
 346.099609375 63.533203125 370.209960938 99.05859375 381.217773438 144.25 c 1
 329.140625 144.25 l 1
 320.998046875 113.3046875 303.961914062 87.9453125 278.172851562 69.576171875 c 0
 251.21875 50.376953125 218.392578125 41.23046875 180.479492188 41.23046875 c 0
 136.908203125 41.23046875 104.5234375 53.458984375 84.8046875 78.623046875 c 0
 64.6181640625 104.383789062 62.765625 147.67578125 76.45703125 206.98046875 c 2
270.361328125 461.469726562 m 0
 311.201171875 461.469726562 341.716796875 450.103515625 360.470703125 426.671875 c 0
 379.70703125 402.638671875 381.650390625 362.538085938 369.05078125 307.959960938 c 2
 363.045898438 281.950195312 l 1
 93.765625 281.950195312 l 1
 98.1220703125 300.8203125 l 2
 111.344726562 358.094726562 132.543945312 400.029296875 163.776367188 425.098632812 c 0
 194.166015625 449.4921875 230.080078125 461.469726562 270.361328125 461.469726562 c 0
277.983398438 696.069335938 m 1
 213.94921875 696.069335938 l 1
 295.7578125 583.869140625 l 1
 340.943359375 583.869140625 l 1
 277.983398438 696.069335938 l 1
EndSplineSet
EndChar

StartChar: eacute
Encoding: 233 233 170
Width: 502
GlyphClass: 2
Flags: MW
HStem: -5.69043 46.9209<158.694 193.512> 461.47 47.9404<252.635 290.781>
VStem: 57.9561 54.0596 381.296 54.0596
LayerCount: 2
Fore
SplineSet
76.45703125 206.98046875 m 2
 85.2880859375 245.23046875 l 1
 408.627929688 245.23046875 l 1
 420.990234375 298.780273438 l 2
 437.841796875 371.76953125 432.392578125 424.391601562 406.46484375 458.1015625 c 0
 380.24609375 492.19140625 339.016601562 509.41015625 281.428710938 509.41015625 c 0
 223.841796875 509.41015625 174.474609375 492.190429688 132.159179688 458.076171875 c 0
 90.33984375 424.360351562 60.439453125 371.755859375 43.5908203125 298.780273438 c 2
 22.8681640625 209.01953125 l 2
 5.5390625 133.958007812 10.9150390625 80.1474609375 37.080078125 46.1279296875 c 0
 63.5439453125 11.720703125 105.572265625 -5.6904296875 164.547851562 -5.6904296875 c 0
 222.4765625 -5.6904296875 270.16796875 8.5908203125 308.458007812 36.296875 c 0
 346.099609375 63.533203125 370.209960938 99.05859375 381.217773438 144.25 c 1
 329.140625 144.25 l 1
 320.998046875 113.3046875 303.961914062 87.9453125 278.172851562 69.576171875 c 0
 251.21875 50.376953125 218.392578125 41.23046875 180.479492188 41.23046875 c 0
 136.908203125 41.23046875 104.5234375 53.458984375 84.8046875 78.623046875 c 0
 64.6181640625 104.383789062 62.765625 147.67578125 76.45703125 206.98046875 c 2
270.361328125 461.469726562 m 0
 311.201171875 461.469726562 341.716796875 450.103515625 360.470703125 426.671875 c 0
 379.70703125 402.638671875 381.650390625 362.538085938 369.05078125 307.959960938 c 2
 363.045898438 281.950195312 l 1
 93.765625 281.950195312 l 1
 98.1220703125 300.8203125 l 2
 111.344726562 358.094726562 132.543945312 400.029296875 163.776367188 425.098632812 c 0
 194.166015625 449.4921875 230.080078125 461.469726562 270.361328125 461.469726562 c 0
416.735351562 696.069335938 m 1
 352.701171875 696.069335938 l 1
 237.934570312 583.869140625 l 1
 283.120117188 583.869140625 l 1
 416.735351562 696.069335938 l 1
EndSplineSet
EndChar

StartChar: ecircumflex
Encoding: 234 234 171
Width: 502
GlyphClass: 2
Flags: MW
HStem: -5.69043 46.9209<158.694 193.512> 461.47 47.9404<252.635 290.781>
VStem: 57.9561 54.0596 381.296 54.0596
LayerCount: 2
Fore
SplineSet
76.45703125 206.98046875 m 2
 85.2880859375 245.23046875 l 1
 408.627929688 245.23046875 l 1
 420.990234375 298.780273438 l 2
 437.841796875 371.76953125 432.392578125 424.391601562 406.46484375 458.1015625 c 0
 380.24609375 492.19140625 339.016601562 509.41015625 281.428710938 509.41015625 c 0
 223.841796875 509.41015625 174.474609375 492.190429688 132.159179688 458.076171875 c 0
 90.33984375 424.360351562 60.439453125 371.755859375 43.5908203125 298.780273438 c 2
 22.8681640625 209.01953125 l 2
 5.5390625 133.958007812 10.9150390625 80.1474609375 37.080078125 46.1279296875 c 0
 63.5439453125 11.720703125 105.572265625 -5.6904296875 164.547851562 -5.6904296875 c 0
 222.4765625 -5.6904296875 270.16796875 8.5908203125 308.458007812 36.296875 c 0
 346.099609375 63.533203125 370.209960938 99.05859375 381.217773438 144.25 c 1
 329.140625 144.25 l 1
 320.998046875 113.3046875 303.961914062 87.9453125 278.172851562 69.576171875 c 0
 251.21875 50.376953125 218.392578125 41.23046875 180.479492188 41.23046875 c 0
 136.908203125 41.23046875 104.5234375 53.458984375 84.8046875 78.623046875 c 0
 64.6181640625 104.383789062 62.765625 147.67578125 76.45703125 206.98046875 c 2
270.361328125 461.469726562 m 0
 311.201171875 461.469726562 341.716796875 450.103515625 360.470703125 426.671875 c 0
 379.70703125 402.638671875 381.650390625 362.538085938 369.05078125 307.959960938 c 2
 363.045898438 281.950195312 l 1
 93.765625 281.950195312 l 1
 98.1220703125 300.8203125 l 2
 111.344726562 358.094726562 132.543945312 400.029296875 163.776367188 425.098632812 c 0
 194.166015625 449.4921875 230.080078125 461.469726562 270.361328125 461.469726562 c 0
350.3359375 705.249023438 m 1
 301.926757812 705.249023438 l 1
 173.778320312 573.668945312 l 1
 218.036132812 573.668945312 l 1
 319.822265625 675.52734375 l 1
 373.50390625 573.668945312 l 1
 417.73046875 573.668945312 l 1
 350.3359375 705.249023438 l 1
EndSplineSet
EndChar

